#N canvas 474 163 601 530 10;
#X obj 69 442 dac~;
#X msg 153 403 set \$1;
#X obj 153 326 loadbang;
#X obj 153 350 f \$1;
#X obj 153 375 + 1;
#X text 182 377 routes to each channel;
#X obj 33 10 inlet;
#X obj 67 163 gain~;
#X obj 82 122 line;
#X obj 93 6 adc~ 8;
#X text 140 7 aux in;
#X obj 93 70 eq-music-noview~, f 51;
#X text 240 8 aux in;
#X obj 193 7 adc~ 7;
#X msg 32 59 \$1 100;
#X obj 157 167 loadbang;
#X msg 160 197 -100;
#X connect 1 0 0 0;
#X connect 2 0 3 0;
#X connect 3 0 4 0;
#X connect 4 0 1 0;
#X connect 6 0 14 0;
#X connect 7 0 0 0;
#X connect 8 0 7 1;
#X connect 9 0 11 0;
#X connect 9 0 7 0;
#X connect 13 0 11 0;
#X connect 13 0 7 0;
#X connect 14 0 8 0;
#X connect 15 0 16 0;
#X connect 16 0 7 1;
