#N canvas 1023 163 929 772 10;
#X obj 69 442 dac~;
#X msg 153 403 set \$1;
#X obj 153 326 loadbang;
#X obj 153 350 f \$1;
#X obj 153 375 + 1;
#X text 182 377 routes to each channel;
#X obj 33 10 inlet;
#X obj 67 163 gain~;
#X obj 82 122 line;
#X obj 93 6 adc~ 8;
#X text 140 7 aux in;
#X text 240 8 aux in;
#X obj 193 7 adc~ 7;
#X msg 32 59 \$1 100;
#X obj 303 218 env~ 512;
#X obj 370 253 snapshot~;
#X floatatom 415 285 5 0 0 0 - - -, f 5;
#X obj 370 205 tgl 15 0 empty empty empty 17 7 0 10 -262144 -1 -1 1
1;
#X obj 370 227 metro 100;
#X obj 369 303 change;
#X obj 371 413 f;
#X obj 370 153 loadbang;
#X msg 370 180 1;
#X obj 369 329 t b f;
#X obj 353 358 delay 10000;
#X text 426 358 sets time that can exist between audio where no ducking
occurs;
#X obj 371 434 change;
#X text 464 249 music detector / noise ducker;
#X obj 372 534 outlet;
#X msg 454 413 set \$1;
#X msg 457 440 0;
#X obj 372 473 sel 0 1;
#X msg 372 503 1;
#X msg 408 503 0.75;
#X msg 142 162 set \$1;
#X msg 144 188 -60;
#X obj 370 283 > 35;
#X floatatom 26 96 5 0 0 0 - - -, f 5;
#X connect 1 0 0 0;
#X connect 2 0 3 0;
#X connect 3 0 4 0;
#X connect 4 0 1 0;
#X connect 6 0 13 0;
#X connect 7 0 0 0;
#X connect 7 0 14 0;
#X connect 8 0 7 1;
#X connect 8 0 34 0;
#X connect 9 0 7 0;
#X connect 12 0 7 0;
#X connect 13 0 8 0;
#X connect 13 0 37 0;
#X connect 14 0 15 0;
#X connect 15 0 16 0;
#X connect 15 0 36 0;
#X connect 17 0 18 0;
#X connect 18 0 15 0;
#X connect 19 0 23 0;
#X connect 20 0 26 0;
#X connect 20 0 29 0;
#X connect 21 0 22 0;
#X connect 22 0 17 0;
#X connect 23 0 24 0;
#X connect 23 1 20 1;
#X connect 24 0 20 0;
#X connect 26 0 31 0;
#X connect 29 0 30 0;
#X connect 31 0 32 0;
#X connect 31 1 33 0;
#X connect 32 0 28 0;
#X connect 33 0 28 0;
#X connect 34 0 35 0;
#X connect 36 0 19 0;
