#N canvas 789 71 632 655 10;
#X obj 99 510 *~;
#X obj 279 162 hsl 128 15 0 1 0 0 empty empty empty -2 -8 0 10 -262144
-1 -1 0 1;
#X obj 95 242 elooper~;
#X obj 83 138 inlet;
#X obj 167 140 inlet;
#X obj 276 140 inlet;
#X obj 238 511 *~;
#X obj 233 240 elooper~;
#X obj 219 141 inlet;
#X obj 101 631 dac~ 1 2 3 4 5 6 7 8 9 10 11 12 13 14 15;
#X obj 99 294 gain~;
#X obj 238 292 gain~;
#X msg 321 250 0;
#X obj 321 223 loadbang;
#X connect 0 0 9 0;
#X connect 0 0 9 2;
#X connect 0 0 9 4;
#X connect 0 0 9 6;
#X connect 0 0 9 8;
#X connect 0 0 9 10;
#X connect 0 0 9 12;
#X connect 0 0 9 14;
#X connect 1 0 0 1;
#X connect 1 0 6 1;
#X connect 2 0 10 0;
#X connect 3 0 2 0;
#X connect 3 0 7 0;
#X connect 4 0 2 2;
#X connect 5 0 1 0;
#X connect 6 0 9 1;
#X connect 6 0 9 3;
#X connect 6 0 9 5;
#X connect 6 0 9 7;
#X connect 6 0 9 9;
#X connect 6 0 9 11;
#X connect 6 0 9 13;
#X connect 7 0 11 0;
#X connect 8 0 7 2;
#X connect 10 0 0 0;
#X connect 11 0 6 0;
#X connect 12 0 11 1;
#X connect 12 0 10 1;
#X connect 13 0 12 0;
