#N canvas 520 23 1313 929 10;
#X obj 383 772 noise~;
#X obj 383 821 *~;
#X obj 398 724 tgl 35 0 empty empty noise 0 -7 0 10 -4034 -1 -1 0 1
;
#X obj 383 795 *~ 0.5;
#X obj 448 819 *~;
#X obj 448 794 *~ 0.5;
#X obj 449 873 send~ test;
#X obj 807 60 receive~ test;
#X obj 197 63 receive~ test;
#X obj 489 322 receive~ test;
#X obj 834 713 loadbang;
#X obj 862 756 tgl 50 0 empty empty global_mute 0 -7 0 10 -258113 -1
-1 0 1;
#X obj 862 840 s mute;
#X obj 463 724 tgl 35 0 empty empty test_tone 0 -7 0 10 -4034 -1 -1
0 1;
#X obj 448 771 osc~ 440;
#X obj 528 723 tgl 35 0 empty empty frank 0 -7 0 10 -4034 -1 -1 0 1
;
#X obj 528 788 tabplay~ frank;
#X obj 528 838 *~;
#X obj 38 741 soundfiler;
#N canvas 0 22 450 300 (subpatch) 0;
#X array frank 4e+06 float 0;
#X coords 0 1 4e+06 -1 300 100 1 0 0;
#X restore 33 788 graph;
#X obj 38 685 loadbang;
#X obj 528 764 t b f;
#X msg 38 709 read -resize frank.wav frank;
#X obj 528 812 *~ 0.5;
#X msg 862 814 all \$1;
#X obj 1065 337 tgl 15 0 empty empty empty 17 7 0 10 -262144 -1 -1
1 1;
#X obj 1065 398 f;
#X floatatom 995 466 5 0 0 0 - - -, f 5;
#X obj 1065 361 metro 500;
#X obj 1098 398 + 1;
#X obj 1065 432 mod 15;
#X obj 1064 469 t f f;
#X floatatom 1140 303 5 0 0 0 - - -, f 5;
#X obj 1091 500 pipe;
#X msg 1052 543 \$1 1;
#X msg 1091 543 \$1 0;
#X obj 1061 589 s mute;
#X obj 1111 694 r mute;
#X obj 1111 722 route \$1;
#X obj 1096 758 print;
#X msg 1174 667 5;
#X obj 90 103 output~ 1;
#X obj 277 103 output~ 4;
#X obj 361 370 output~ 11;
#X obj 564 369 output~ 14;
#X obj 152 103 output~ 2;
#X obj 214 103 output~ 3;
#X obj 346 103 output~ 5;
#X obj 687 107 output~ 6;
#X obj 755 107 output~ 7;
#X obj 823 107 output~ 8;
#X obj 890 107 output~ 9;
#X obj 957 107 output~ 10;
#X obj 634 369 output~ 15;
#X obj 428 370 output~ 12;
#X obj 495 370 output~ 13;
#X connect 0 0 3 0;
#X connect 1 0 6 0;
#X connect 2 0 1 1;
#X connect 3 0 1 0;
#X connect 4 0 6 0;
#X connect 5 0 4 0;
#X connect 7 0 48 0;
#X connect 7 0 49 0;
#X connect 7 0 50 0;
#X connect 7 0 51 0;
#X connect 7 0 52 0;
#X connect 8 0 41 0;
#X connect 8 0 42 0;
#X connect 8 0 45 0;
#X connect 8 0 46 0;
#X connect 8 0 47 0;
#X connect 9 0 43 0;
#X connect 9 0 44 0;
#X connect 9 0 53 0;
#X connect 9 0 54 0;
#X connect 9 0 55 0;
#X connect 10 0 11 0;
#X connect 11 0 24 0;
#X connect 13 0 4 1;
#X connect 14 0 5 0;
#X connect 15 0 21 0;
#X connect 16 0 23 0;
#X connect 17 0 6 0;
#X connect 20 0 22 0;
#X connect 21 0 16 0;
#X connect 21 1 17 1;
#X connect 22 0 18 0;
#X connect 23 0 17 0;
#X connect 24 0 12 0;
#X connect 25 0 28 0;
#X connect 26 0 29 0;
#X connect 26 0 30 0;
#X connect 28 0 26 0;
#X connect 29 0 26 1;
#X connect 30 0 27 0;
#X connect 30 0 31 0;
#X connect 31 0 34 0;
#X connect 31 1 33 0;
#X connect 32 0 28 1;
#X connect 32 0 33 1;
#X connect 33 0 35 0;
#X connect 34 0 36 0;
#X connect 35 0 36 0;
#X connect 37 0 38 0;
#X connect 40 0 38 1;
