#N canvas 702 229 632 655 10;
#X obj 96 323 *~;
#X obj 279 210 hsl 128 15 0 1 0 0 empty empty empty -2 -8 0 10 -262144
-1 -1 12500 1;
#X obj 98 540 dac~;
#X obj 230 377 loadbang;
#X obj 230 401 f \$1;
#X obj 95 242 elooper~;
#X obj 83 138 inlet;
#X obj 167 140 inlet;
#X obj 276 140 inlet;
#X obj 234 321 *~;
#X obj 233 240 elooper~;
#X obj 219 141 inlet;
#X msg 230 494 set \$1 \$2;
#X obj 230 462 pack f f;
#X text 299 431 routes to each stereo pair;
#X obj 262 430 + 2;
#X obj 230 430 + 1;
#X obj 276 183 line;
#X msg 276 161 \$1 500;
#X connect 0 0 2 0;
#X connect 1 0 0 1;
#X connect 1 0 9 1;
#X connect 3 0 4 0;
#X connect 4 0 15 0;
#X connect 4 0 16 0;
#X connect 5 0 0 0;
#X connect 6 0 5 0;
#X connect 6 0 10 0;
#X connect 7 0 5 2;
#X connect 8 0 18 0;
#X connect 9 0 2 1;
#X connect 10 0 9 0;
#X connect 11 0 10 2;
#X connect 12 0 2 0;
#X connect 13 0 12 0;
#X connect 15 0 13 1;
#X connect 16 0 13 0;
#X connect 17 0 1 0;
#X connect 18 0 17 0;
