#N canvas 802 43 1676 916 10;
#X obj 1496 451 biquad~;
#X floatatom 1496 132 0 0 0 0 - - -;
#X floatatom 1557 132 0 0 0 0 - - -;
#X obj 1557 155 trigger bang float;
#X obj 1499 87 hsl 128 17 20 20000 1 1 empty empty frequency 5 9 0
10 -203904 -1 -1 4233 0;
#X obj 1560 110 hsl 128 17 -100 100 0 1 empty empty gain 5 9 0 10 -204786
-1 -1 6604 0;
#X floatatom 1697 132 0 0 0 0 - - -;
#X obj 1697 155 trigger bang float;
#X obj 1700 110 hsl 128 17 0 100 0 1 empty empty bandwidth 5 9 0 10
-261682 -1 -1 12700 0;
#X obj 1496 198 ggee/equalizer 5000 70 8;
#X obj 1845 459 biquad~;
#X floatatom 1845 132 0 0 0 0 - - -;
#X floatatom 1906 132 0 0 0 0 - - -;
#X obj 1906 155 trigger bang float;
#X obj 1848 87 hsl 128 17 20 20000 1 1 empty empty frequency 5 9 0
10 -203904 -1 -1 4644 0;
#X obj 1909 110 hsl 128 17 -100 100 0 1 empty empty gain 5 9 0 10 -204786
-1 -1 6540 0;
#X floatatom 2046 132 0 0 0 0 - - -;
#X obj 2046 155 trigger bang float;
#X obj 2049 110 hsl 128 17 0 100 0 1 empty empty bandwidth 5 9 0 10
-261682 -1 -1 12700 0;
#X obj 1845 198 ggee/equalizer 5000 70 8;
#X obj 10 618 s \$0-b1;
#X obj 22 642 s \$0-b2;
#X obj 47 667 s \$0-b3;
#X obj 66 617 s \$0-b4;
#X obj 78 641 s \$0-b5;
#X obj 103 666 s \$0-b6;
#X obj 124 613 s \$0-b7;
#X obj 136 637 s \$0-b8;
#X obj 161 662 s \$0-b9;
#X obj 180 614 s \$0-b10;
#X obj 27 34 inlet~;
#X obj 1697 65 loadbang;
#X msg 1697 88 100;
#X floatatom 2194 132 0 0 0 0 - - -;
#X floatatom 2255 132 0 0 0 0 - - -;
#X obj 2255 155 trigger bang float;
#X obj 2197 87 hsl 128 17 20 20000 1 1 empty empty frequency 5 9 0
10 -203904 -1 -1 5068 0;
#X obj 2258 110 hsl 128 17 -100 100 0 1 empty empty gain 5 9 0 10 -204786
-1 -1 6477 0;
#X floatatom 2395 132 0 0 0 0 - - -;
#X obj 2395 155 trigger bang float;
#X obj 2398 110 hsl 128 17 0 100 0 1 empty empty bandwidth 5 9 0 10
-261682 -1 -1 12700 0;
#X obj 2194 198 ggee/equalizer 5000 70 8;
#X floatatom 2543 132 0 0 0 0 - - -;
#X floatatom 2604 132 0 0 0 0 - - -;
#X obj 2604 155 trigger bang float;
#X obj 2546 87 hsl 128 17 20 20000 1 1 empty empty frequency 5 9 0
10 -203904 -1 -1 5508 0;
#X obj 2607 110 hsl 128 17 -100 100 0 1 empty empty gain 5 9 0 10 -204786
-1 -1 6413 0;
#X floatatom 2744 132 0 0 0 0 - - -;
#X obj 2744 155 trigger bang float;
#X obj 2747 110 hsl 128 17 0 100 0 1 empty empty bandwidth 5 9 0 10
-261682 -1 -1 12700 0;
#X obj 2543 198 ggee/equalizer 5000 70 8;
#X obj 2395 65 loadbang;
#X msg 2395 88 100;
#X floatatom 2912 152 0 0 0 0 - - -;
#X floatatom 2973 152 0 0 0 0 - - -;
#X obj 2973 175 trigger bang float;
#X obj 2915 107 hsl 128 17 20 20000 1 1 empty empty frequency 5 9 0
10 -203904 -1 -1 5918 0;
#X obj 2976 130 hsl 128 17 -100 100 0 1 empty empty gain 5 9 0 10 -204786
-1 -1 6350 0;
#X floatatom 3113 152 0 0 0 0 - - -;
#X obj 3113 175 trigger bang float;
#X obj 3116 130 hsl 128 17 0 100 0 1 empty empty bandwidth 5 9 0 10
-261682 -1 -1 12700 0;
#X obj 2912 218 ggee/equalizer 5000 70 8;
#X floatatom 3261 152 0 0 0 0 - - -;
#X floatatom 3322 152 0 0 0 0 - - -;
#X obj 3322 175 trigger bang float;
#X obj 3264 107 hsl 128 17 20 20000 1 1 empty empty frequency 5 9 0
10 -203904 -1 -1 6343 0;
#X obj 3325 130 hsl 128 17 -100 100 0 1 empty empty gain 5 9 0 10 -204786
-1 -1 6286 0;
#X floatatom 3462 152 0 0 0 0 - - -;
#X obj 3462 175 trigger bang float;
#X obj 3465 130 hsl 128 17 0 100 0 1 empty empty bandwidth 5 9 0 10
-261682 -1 -1 12700 0;
#X obj 3261 218 ggee/equalizer 5000 70 8;
#X obj 3113 85 loadbang;
#X msg 3113 108 100;
#X floatatom 3610 152 0 0 0 0 - - -;
#X floatatom 3671 152 0 0 0 0 - - -;
#X obj 3671 175 trigger bang float;
#X obj 3613 107 hsl 128 17 20 20000 1 1 empty empty frequency 5 9 0
10 -203904 -1 -1 6782 0;
#X obj 3674 130 hsl 128 17 -100 100 0 1 empty empty gain 5 9 0 10 -204786
-1 -1 6223 0;
#X floatatom 3811 152 0 0 0 0 - - -;
#X obj 3811 175 trigger bang float;
#X obj 3814 130 hsl 128 17 0 100 0 1 empty empty bandwidth 5 9 0 10
-261682 -1 -1 12700 0;
#X obj 3610 218 ggee/equalizer 5000 70 8;
#X floatatom 3962 167 0 0 0 0 - - -;
#X floatatom 4023 167 0 0 0 0 - - -;
#X obj 4023 190 trigger bang float;
#X obj 3965 122 hsl 128 17 20 20000 1 1 empty empty frequency 5 9 0
10 -203904 -1 -1 7192 0;
#X obj 4026 145 hsl 128 17 -100 100 0 1 empty empty gain 5 9 0 10 -204786
-1 -1 6159 0;
#X floatatom 4163 167 0 0 0 0 - - -;
#X obj 4163 190 trigger bang float;
#X obj 4166 145 hsl 128 17 0 100 0 1 empty empty bandwidth 5 9 0 10
-261682 -1 -1 12700 0;
#X obj 3961 221 ggee/equalizer 5000 70 8;
#X obj 3811 85 loadbang;
#X msg 3811 108 100;
#X floatatom 4309 168 0 0 0 0 - - -;
#X floatatom 4370 168 0 0 0 0 - - -;
#X obj 4370 191 trigger bang float;
#X obj 4312 123 hsl 128 17 20 20000 1 1 empty empty frequency 5 9 0
10 -203904 -1 -1 7603 0;
#X obj 4373 146 hsl 128 17 -100 100 0 1 empty empty gain 5 9 0 10 -204786
-1 -1 6096 0;
#X floatatom 4510 168 0 0 0 0 - - -;
#X obj 4510 191 trigger bang float;
#X obj 4513 146 hsl 128 17 0 100 0 1 empty empty bandwidth 5 9 0 10
-261682 -1 -1 12700 0;
#X obj 4309 234 ggee/equalizer 5000 70 8;
#X floatatom 4658 168 0 0 0 0 - - -;
#X floatatom 4719 168 0 0 0 0 - - -;
#X obj 4719 191 trigger bang float;
#X obj 4661 123 hsl 128 17 20 20000 1 1 empty empty frequency 5 9 0
10 -203904 -1 -1 8056 0;
#X obj 4722 146 hsl 128 17 -100 100 0 1 empty empty gain 5 9 0 10 -204786
-1 -1 6032 0;
#X floatatom 4859 168 0 0 0 0 - - -;
#X obj 4859 191 trigger bang float;
#X obj 4862 146 hsl 128 17 0 100 0 1 empty empty bandwidth 5 9 0 10
-261682 -1 -1 12700 0;
#X obj 4658 234 ggee/equalizer 5000 70 8;
#X obj 4510 101 loadbang;
#X msg 4510 124 100;
#X obj 2047 65 loadbang;
#X msg 2047 88 100;
#X obj 2193 476 biquad~;
#X obj 2543 486 biquad~;
#X obj 2912 534 biquad~;
#X obj 3261 544 biquad~;
#X obj 3610 561 biquad~;
#X obj 3963 585 biquad~;
#X obj 4310 605 biquad~;
#X obj 4658 621 biquad~;
#X obj 4660 718 outlet~;
#X obj 2744 63 loadbang;
#X msg 2744 86 100;
#X obj 3462 81 loadbang;
#X msg 3462 104 100;
#X obj 4163 96 loadbang;
#X msg 4163 119 100;
#X obj 4859 99 loadbang;
#X msg 4859 122 100;
#X obj 30 524 loadbang;
#X msg 30 554 80 100 125 160 200 250 315 400 500 630 800 1000 1250
1600;
#X obj 96 434 biquad~;
#X floatatom 96 116 0 0 0 0 - - -;
#X obj 157 151 trigger bang float;
#X obj 99 71 hsl 128 17 20 20000 1 1 empty empty frequency 5 9 0 10
-203904 -1 -1 2549 0;
#X obj 160 94 hsl 128 17 -100 100 0 1 empty empty gain 5 9 0 10 -204786
-1 -1 6096 0;
#X floatatom 297 116 0 0 0 0 - - -;
#X obj 297 139 trigger bang float;
#X obj 300 94 hsl 128 17 0 100 0 1 empty empty bandwidth 5 9 0 10 -261682
-1 -1 12700 0;
#X obj 96 182 ggee/equalizer 5000 70 8;
#X obj 445 443 biquad~;
#X floatatom 445 116 0 0 0 0 - - -;
#X obj 506 139 trigger bang float;
#X obj 448 71 hsl 128 17 20 20000 1 1 empty empty frequency 5 9 0 10
-203904 -1 -1 2959 0;
#X obj 509 94 hsl 128 17 -100 100 0 1 empty empty gain 5 9 0 10 -204786
-1 -1 6286 0;
#X floatatom 646 116 0 0 0 0 - - -;
#X obj 646 139 trigger bang float;
#X obj 649 94 hsl 128 17 0 100 0 1 empty empty bandwidth 5 9 0 10 -261682
-1 -1 12700 0;
#X obj 445 182 ggee/equalizer 5000 70 8;
#X obj 96 44 r \$0-b1;
#X obj 445 41 r \$0-b2;
#X obj 297 49 loadbang;
#X msg 297 72 100;
#X floatatom 794 116 0 0 0 0 - - -;
#X floatatom 855 116 0 0 0 0 - - -;
#X obj 855 139 trigger bang float;
#X obj 797 71 hsl 128 17 20 20000 1 1 empty empty frequency 5 9 0 10
-203904 -1 -1 3369 0;
#X obj 858 94 hsl 128 17 -100 100 0 1 empty empty gain 5 9 0 10 -204786
-1 -1 6477 0;
#X floatatom 995 116 0 0 0 0 - - -;
#X obj 995 139 trigger bang float;
#X obj 998 94 hsl 128 17 0 100 0 1 empty empty bandwidth 5 9 0 10 -261682
-1 -1 12700 0;
#X obj 794 182 ggee/equalizer 5000 70 8;
#X floatatom 1143 116 0 0 0 0 - - -;
#X floatatom 1204 116 0 0 0 0 - - -;
#X obj 1204 139 trigger bang float;
#X obj 1146 71 hsl 128 17 20 20000 1 1 empty empty frequency 5 9 0
10 -203904 -1 -1 3823 0;
#X obj 1207 94 hsl 128 17 -100 100 0 1 empty empty gain 5 9 0 10 -204786
-1 -1 6604 0;
#X floatatom 1344 116 0 0 0 0 - - -;
#X obj 1344 139 trigger bang float;
#X obj 1347 94 hsl 128 17 0 100 0 1 empty empty bandwidth 5 9 0 10
-261682 -1 -1 12700 0;
#X obj 1143 182 ggee/equalizer 5000 70 8;
#X obj 995 49 loadbang;
#X msg 995 72 100;
#X obj 794 44 r \$0-b3;
#X obj 1143 41 r \$0-b4;
#X obj 647 49 loadbang;
#X msg 647 72 100;
#X obj 793 460 biquad~;
#X obj 1143 470 biquad~;
#X obj 1344 47 loadbang;
#X msg 1344 70 100;
#X obj 1496 60 r \$0-b5;
#X obj 1845 57 r \$0-b6;
#X obj 2194 60 r \$0-b7;
#X obj 2543 57 r \$0-b8;
#X obj 2912 80 r \$0-b9;
#X obj 3261 77 r \$0-b10;
#X obj 3610 80 r \$0-b11;
#X obj 3962 92 r \$0-b12;
#X obj 4309 96 r \$0-b13;
#X obj 4658 93 r \$0-b14;
#X text 149 525 bandpass eq bands;
#X text 60 703 should also roll off at 63 hz and 2k;
#X obj 30 582 unpack f f f f f f f f f f f f f f;
#X obj 194 640 s \$0-b11;
#X obj 241 616 s \$0-b12;
#X obj 252 640 s \$0-b13;
#X obj 264 664 s \$0-b14;
#X obj 4658 659 lop~ 2000;
#X obj 797 640 spectrogram~;
#X obj 4672 686 s~ output;
#X obj 665 569 r~ output;
#X obj 560 749 dac~;
#X obj 578 665 *~ 1;
#X obj 24 756 loadbang;
#X obj 24 814 unpack f f f f f f f f f f f f f f;
#X obj 4 850 s \$0-g1;
#X obj 16 874 s \$0-g2;
#X obj 41 899 s \$0-g3;
#X obj 60 849 s \$0-g4;
#X obj 72 873 s \$0-g5;
#X obj 97 898 s \$0-g6;
#X obj 118 845 s \$0-g7;
#X obj 130 869 s \$0-g8;
#X obj 155 894 s \$0-g9;
#X obj 174 846 s \$0-g10;
#X obj 188 872 s \$0-g11;
#X obj 235 848 s \$0-g12;
#X obj 246 872 s \$0-g13;
#X obj 258 896 s \$0-g14;
#X obj 198 36 r \$0-g1;
#X obj 584 37 r \$0-g2;
#X obj 947 42 r \$0-g3;
#X obj 1282 37 r \$0-g4;
#X obj 1649 58 r \$0-g4;
#X obj 1984 53 r \$0-g6;
#X obj 2347 58 r \$0-g7;
#X obj 2682 53 r \$0-g8;
#X obj 3065 78 r \$0-g9;
#X obj 3400 73 r \$0-g10;
#X obj 3763 78 r \$0-g11;
#X obj 4101 88 r \$0-g12;
#X obj 4462 94 r \$0-g13;
#X obj 4797 89 r \$0-g14;
#X obj 129 228 filterview;
#X text 81 754 per band gain - assumes average of 40dba to start;
#X floatatom 506 116 0 0 0 0 - - -;
#X floatatom 157 121 0 0 0 0 - - -;
#X msg 24 786 -4 -1 2 4 4 3 2 1 0 -1 -2 -3 -4 -5;
#X obj 28 375 hip~ 63;
#X obj 37 284 noise~;
#X obj 467 232 filterview;
#X connect 0 0 10 0;
#X connect 1 0 9 0;
#X connect 2 0 3 0;
#X connect 3 0 9 0;
#X connect 3 1 9 1;
#X connect 4 0 1 0;
#X connect 5 0 2 0;
#X connect 6 0 7 0;
#X connect 7 0 9 0;
#X connect 7 1 9 2;
#X connect 8 0 6 0;
#X connect 9 0 0 0;
#X connect 10 0 115 0;
#X connect 11 0 19 0;
#X connect 12 0 13 0;
#X connect 13 0 19 0;
#X connect 13 1 19 1;
#X connect 14 0 11 0;
#X connect 15 0 12 0;
#X connect 16 0 17 0;
#X connect 17 0 19 0;
#X connect 17 1 19 2;
#X connect 18 0 16 0;
#X connect 19 0 10 0;
#X connect 30 0 242 0;
#X connect 31 0 32 0;
#X connect 32 0 8 0;
#X connect 33 0 41 0;
#X connect 34 0 35 0;
#X connect 35 0 41 0;
#X connect 35 1 41 1;
#X connect 36 0 33 0;
#X connect 37 0 34 0;
#X connect 38 0 39 0;
#X connect 39 0 41 0;
#X connect 39 1 41 2;
#X connect 40 0 38 0;
#X connect 41 0 115 0;
#X connect 42 0 50 0;
#X connect 43 0 44 0;
#X connect 44 0 50 0;
#X connect 44 1 50 1;
#X connect 45 0 42 0;
#X connect 46 0 43 0;
#X connect 47 0 48 0;
#X connect 48 0 50 0;
#X connect 48 1 50 2;
#X connect 49 0 47 0;
#X connect 50 0 116 0;
#X connect 51 0 52 0;
#X connect 52 0 40 0;
#X connect 53 0 61 0;
#X connect 54 0 55 0;
#X connect 55 0 61 0;
#X connect 55 1 61 1;
#X connect 56 0 53 0;
#X connect 57 0 54 0;
#X connect 58 0 59 0;
#X connect 59 0 61 0;
#X connect 59 1 61 2;
#X connect 60 0 58 0;
#X connect 61 0 117 0;
#X connect 62 0 70 0;
#X connect 63 0 64 0;
#X connect 64 0 70 0;
#X connect 64 1 70 1;
#X connect 65 0 62 0;
#X connect 66 0 63 0;
#X connect 67 0 68 0;
#X connect 68 0 70 0;
#X connect 68 1 70 2;
#X connect 69 0 67 0;
#X connect 70 0 118 0;
#X connect 71 0 72 0;
#X connect 72 0 60 0;
#X connect 73 0 81 0;
#X connect 74 0 75 0;
#X connect 75 0 81 0;
#X connect 75 1 81 1;
#X connect 76 0 73 0;
#X connect 77 0 74 0;
#X connect 78 0 79 0;
#X connect 79 0 81 0;
#X connect 79 1 81 2;
#X connect 80 0 78 0;
#X connect 81 0 119 0;
#X connect 82 0 90 0;
#X connect 83 0 84 0;
#X connect 84 0 90 0;
#X connect 84 1 90 1;
#X connect 85 0 82 0;
#X connect 86 0 83 0;
#X connect 87 0 88 0;
#X connect 88 0 90 0;
#X connect 88 1 90 2;
#X connect 89 0 87 0;
#X connect 90 0 120 0;
#X connect 91 0 92 0;
#X connect 92 0 80 0;
#X connect 93 0 101 0;
#X connect 94 0 95 0;
#X connect 95 0 101 0;
#X connect 95 1 101 1;
#X connect 96 0 93 0;
#X connect 97 0 94 0;
#X connect 98 0 99 0;
#X connect 99 0 101 0;
#X connect 99 1 101 2;
#X connect 100 0 98 0;
#X connect 101 0 121 0;
#X connect 102 0 110 0;
#X connect 103 0 104 0;
#X connect 104 0 110 0;
#X connect 104 1 110 1;
#X connect 105 0 102 0;
#X connect 106 0 103 0;
#X connect 107 0 108 0;
#X connect 108 0 110 0;
#X connect 108 1 110 2;
#X connect 109 0 107 0;
#X connect 110 0 122 0;
#X connect 111 0 112 0;
#X connect 112 0 100 0;
#X connect 113 0 114 0;
#X connect 114 0 18 0;
#X connect 115 0 116 0;
#X connect 116 0 117 0;
#X connect 117 0 118 0;
#X connect 118 0 119 0;
#X connect 119 0 120 0;
#X connect 120 0 121 0;
#X connect 121 0 122 0;
#X connect 122 0 201 0;
#X connect 124 0 125 0;
#X connect 125 0 49 0;
#X connect 126 0 127 0;
#X connect 127 0 69 0;
#X connect 128 0 129 0;
#X connect 129 0 89 0;
#X connect 130 0 131 0;
#X connect 131 0 109 0;
#X connect 132 0 133 0;
#X connect 133 0 196 0;
#X connect 134 0 143 0;
#X connect 135 0 142 0;
#X connect 136 0 142 0;
#X connect 136 1 142 1;
#X connect 137 0 135 0;
#X connect 138 0 240 0;
#X connect 139 0 140 0;
#X connect 140 0 142 0;
#X connect 140 1 142 2;
#X connect 141 0 139 0;
#X connect 142 0 134 0;
#X connect 142 0 237 0;
#X connect 143 0 180 0;
#X connect 144 0 151 0;
#X connect 145 0 151 0;
#X connect 145 1 151 1;
#X connect 146 0 144 0;
#X connect 147 0 239 0;
#X connect 148 0 149 0;
#X connect 149 0 151 0;
#X connect 149 1 151 2;
#X connect 150 0 148 0;
#X connect 151 0 143 0;
#X connect 151 0 244 0;
#X connect 152 0 137 0;
#X connect 153 0 146 0;
#X connect 154 0 155 0;
#X connect 155 0 141 0;
#X connect 156 0 164 0;
#X connect 157 0 158 0;
#X connect 158 0 164 0;
#X connect 158 1 164 1;
#X connect 159 0 156 0;
#X connect 160 0 157 0;
#X connect 161 0 162 0;
#X connect 162 0 164 0;
#X connect 162 1 164 2;
#X connect 163 0 161 0;
#X connect 164 0 180 0;
#X connect 165 0 173 0;
#X connect 166 0 167 0;
#X connect 167 0 173 0;
#X connect 167 1 173 1;
#X connect 168 0 165 0;
#X connect 169 0 166 0;
#X connect 170 0 171 0;
#X connect 171 0 173 0;
#X connect 171 1 173 2;
#X connect 172 0 170 0;
#X connect 173 0 181 0;
#X connect 174 0 175 0;
#X connect 175 0 163 0;
#X connect 176 0 159 0;
#X connect 177 0 168 0;
#X connect 178 0 179 0;
#X connect 179 0 150 0;
#X connect 180 0 181 0;
#X connect 181 0 0 0;
#X connect 182 0 183 0;
#X connect 183 0 172 0;
#X connect 184 0 4 0;
#X connect 185 0 14 0;
#X connect 186 0 36 0;
#X connect 187 0 45 0;
#X connect 188 0 56 0;
#X connect 189 0 65 0;
#X connect 190 0 76 0;
#X connect 191 0 85 0;
#X connect 192 0 96 0;
#X connect 193 0 105 0;
#X connect 196 0 20 0;
#X connect 196 1 21 0;
#X connect 196 2 22 0;
#X connect 196 3 23 0;
#X connect 196 4 24 0;
#X connect 196 5 25 0;
#X connect 196 6 26 0;
#X connect 196 7 27 0;
#X connect 196 8 28 0;
#X connect 196 9 29 0;
#X connect 196 10 197 0;
#X connect 196 11 198 0;
#X connect 196 12 199 0;
#X connect 196 13 200 0;
#X connect 201 0 123 0;
#X connect 201 0 203 0;
#X connect 204 0 202 0;
#X connect 204 0 206 0;
#X connect 206 0 205 0;
#X connect 207 0 241 0;
#X connect 208 0 209 0;
#X connect 208 1 210 0;
#X connect 208 2 211 0;
#X connect 208 3 212 0;
#X connect 208 4 213 0;
#X connect 208 5 214 0;
#X connect 208 6 215 0;
#X connect 208 7 216 0;
#X connect 208 8 217 0;
#X connect 208 9 218 0;
#X connect 208 10 219 0;
#X connect 208 11 220 0;
#X connect 208 12 221 0;
#X connect 208 13 222 0;
#X connect 223 0 138 0;
#X connect 224 0 147 0;
#X connect 225 0 160 0;
#X connect 226 0 169 0;
#X connect 227 0 5 0;
#X connect 228 0 15 0;
#X connect 229 0 37 0;
#X connect 230 0 46 0;
#X connect 231 0 57 0;
#X connect 232 0 66 0;
#X connect 233 0 77 0;
#X connect 234 0 86 0;
#X connect 235 0 97 0;
#X connect 236 0 106 0;
#X connect 239 0 145 0;
#X connect 240 0 136 0;
#X connect 241 0 208 0;
#X connect 242 0 134 0;
#X connect 243 0 242 0;
