#N canvas 174 23 1512 942 10;
#X obj 1496 451 biquad~;
#X floatatom 1496 132 0 0 0 0 - - -;
#X floatatom 1557 132 0 0 0 0 - - -;
#X obj 1557 155 trigger bang float;
#X obj 1499 87 hsl 128 17 20 20000 1 1 empty empty frequency 5 9 0
10 -203904 -1 -1 4233 0;
#X obj 1560 110 hsl 128 17 -100 100 0 1 empty empty gain 5 9 0 10 -204786
-1 -1 7239 0;
#X floatatom 1697 132 0 0 0 0 - - -;
#X obj 1697 155 trigger bang float;
#X obj 1700 110 hsl 128 17 0 100 0 1 empty empty bandwidth 5 9 0 10
-261682 -1 -1 4191 0;
#X obj 1496 198 ggee/equalizer 5000 70 8;
#X obj 1845 459 biquad~;
#X floatatom 1845 132 0 0 0 0 - - -;
#X floatatom 1906 132 0 0 0 0 - - -;
#X obj 1906 155 trigger bang float;
#X obj 1848 87 hsl 128 17 20 20000 1 1 empty empty frequency 5 9 0
10 -203904 -1 -1 4644 0;
#X obj 1909 110 hsl 128 17 -100 100 0 1 empty empty gain 5 9 0 10 -204786
-1 -1 6858 0;
#X floatatom 2046 132 0 0 0 0 - - -;
#X obj 2046 155 trigger bang float;
#X obj 2049 110 hsl 128 17 0 100 0 1 empty empty bandwidth 5 9 0 10
-261682 -1 -1 4191 0;
#X obj 1845 198 ggee/equalizer 5000 70 8;
#X obj 10 618 s \$0-b1;
#X obj 22 642 s \$0-b2;
#X obj 47 667 s \$0-b3;
#X obj 66 617 s \$0-b4;
#X obj 78 641 s \$0-b5;
#X obj 103 666 s \$0-b6;
#X obj 124 613 s \$0-b7;
#X obj 136 637 s \$0-b8;
#X obj 161 662 s \$0-b9;
#X obj 180 614 s \$0-b10;
#X obj 27 34 inlet~;
#X obj 1697 65 loadbang;
#X floatatom 2194 132 0 0 0 0 - - -;
#X floatatom 2255 132 0 0 0 0 - - -;
#X obj 2255 155 trigger bang float;
#X obj 2197 87 hsl 128 17 20 20000 1 1 empty empty frequency 5 9 0
10 -203904 -1 -1 5068 0;
#X obj 2258 110 hsl 128 17 -100 100 0 1 empty empty gain 5 9 0 10 -204786
-1 -1 6985 0;
#X floatatom 2395 132 0 0 0 0 - - -;
#X obj 2395 155 trigger bang float;
#X obj 2398 110 hsl 128 17 0 100 0 1 empty empty bandwidth 5 9 0 10
-261682 -1 -1 4191 0;
#X obj 2194 198 ggee/equalizer 5000 70 8;
#X floatatom 2543 132 0 0 0 0 - - -;
#X floatatom 2604 132 0 0 0 0 - - -;
#X obj 2604 155 trigger bang float;
#X obj 2546 87 hsl 128 17 20 20000 1 1 empty empty frequency 5 9 0
10 -203904 -1 -1 5508 0;
#X obj 2607 110 hsl 128 17 -100 100 0 1 empty empty gain 5 9 0 10 -204786
-1 -1 6794 0;
#X floatatom 2744 132 0 0 0 0 - - -;
#X obj 2744 155 trigger bang float;
#X obj 2747 110 hsl 128 17 0 100 0 1 empty empty bandwidth 5 9 0 10
-261682 -1 -1 4191 0;
#X obj 2543 198 ggee/equalizer 5000 70 8;
#X obj 2395 65 loadbang;
#X floatatom 2912 152 0 0 0 0 - - -;
#X floatatom 2973 152 0 0 0 0 - - -;
#X obj 2973 175 trigger bang float;
#X obj 2915 107 hsl 128 17 20 20000 1 1 empty empty frequency 5 9 0
10 -203904 -1 -1 5918 0;
#X obj 2976 130 hsl 128 17 -100 100 0 1 empty empty gain 5 9 0 10 -204786
-1 -1 6667 0;
#X floatatom 3113 152 0 0 0 0 - - -;
#X obj 3113 175 trigger bang float;
#X obj 3116 130 hsl 128 17 0 100 0 1 empty empty bandwidth 5 9 0 10
-261682 -1 -1 4191 0;
#X obj 2912 218 ggee/equalizer 5000 70 8;
#X floatatom 3261 152 0 0 0 0 - - -;
#X floatatom 3322 152 0 0 0 0 - - -;
#X obj 3322 175 trigger bang float;
#X obj 3264 107 hsl 128 17 20 20000 1 1 empty empty frequency 5 9 0
10 -203904 -1 -1 6343 0;
#X obj 3325 130 hsl 128 17 -100 100 0 1 empty empty gain 5 9 0 10 -204786
-1 -1 6604 0;
#X floatatom 3462 152 0 0 0 0 - - -;
#X obj 3462 175 trigger bang float;
#X obj 3465 130 hsl 128 17 0 100 0 1 empty empty bandwidth 5 9 0 10
-261682 -1 -1 4191 0;
#X obj 3261 218 ggee/equalizer 5000 70 8;
#X obj 3113 85 loadbang;
#X floatatom 3610 152 0 0 0 0 - - -;
#X floatatom 3671 152 0 0 0 0 - - -;
#X obj 3671 175 trigger bang float;
#X obj 3613 107 hsl 128 17 20 20000 1 1 empty empty frequency 5 9 0
10 -203904 -1 -1 6782 0;
#X obj 3674 130 hsl 128 17 -100 100 0 1 empty empty gain 5 9 0 10 -204786
-1 -1 6477 0;
#X floatatom 3811 152 0 0 0 0 - - -;
#X obj 3811 175 trigger bang float;
#X obj 3814 130 hsl 128 17 0 100 0 1 empty empty bandwidth 5 9 0 10
-261682 -1 -1 4191 0;
#X obj 3610 218 ggee/equalizer 5000 70 8;
#X floatatom 3962 167 0 0 0 0 - - -;
#X floatatom 4023 167 0 0 0 0 - - -;
#X obj 4023 190 trigger bang float;
#X obj 3965 122 hsl 128 17 20 20000 1 1 empty empty frequency 5 9 0
10 -203904 -1 -1 7192 0;
#X obj 4026 145 hsl 128 17 -100 100 0 1 empty empty gain 5 9 0 10 -204786
-1 -1 6223 0;
#X floatatom 4163 167 0 0 0 0 - - -;
#X obj 4163 190 trigger bang float;
#X obj 4166 145 hsl 128 17 0 100 0 1 empty empty bandwidth 5 9 0 10
-261682 -1 -1 4191 0;
#X obj 3961 221 ggee/equalizer 5000 70 8;
#X obj 3811 85 loadbang;
#X floatatom 4309 168 0 0 0 0 - - -;
#X floatatom 4370 168 0 0 0 0 - - -;
#X obj 4370 191 trigger bang float;
#X obj 4312 123 hsl 128 17 20 20000 1 1 empty empty frequency 5 9 0
10 -203904 -1 -1 7603 0;
#X obj 4373 146 hsl 128 17 -100 100 0 1 empty empty gain 5 9 0 10 -204786
-1 -1 6096 0;
#X floatatom 4510 168 0 0 0 0 - - -;
#X obj 4510 191 trigger bang float;
#X obj 4513 146 hsl 128 17 0 100 0 1 empty empty bandwidth 5 9 0 10
-261682 -1 -1 4191 0;
#X obj 4309 234 ggee/equalizer 5000 70 8;
#X floatatom 4658 168 0 0 0 0 - - -;
#X floatatom 4719 168 0 0 0 0 - - -;
#X obj 4719 191 trigger bang float;
#X obj 4661 123 hsl 128 17 20 20000 1 1 empty empty frequency 5 9 0
10 -203904 -1 -1 8056 0;
#X obj 4722 146 hsl 128 17 -100 100 0 1 empty empty gain 5 9 0 10 -204786
-1 -1 5080 0;
#X floatatom 4859 168 0 0 0 0 - - -;
#X obj 4859 191 trigger bang float;
#X obj 4862 146 hsl 128 17 0 100 0 1 empty empty bandwidth 5 9 0 10
-261682 -1 -1 4191 0;
#X obj 4658 234 ggee/equalizer 5000 70 8;
#X obj 4510 101 loadbang;
#X obj 2047 65 loadbang;
#X obj 2193 476 biquad~;
#X obj 2543 486 biquad~;
#X obj 2912 534 biquad~;
#X obj 3261 544 biquad~;
#X obj 3610 561 biquad~;
#X obj 3963 585 biquad~;
#X obj 4310 605 biquad~;
#X obj 4657 323 biquad~;
#X obj 5139 811 outlet~;
#X obj 2744 63 loadbang;
#X obj 3462 81 loadbang;
#X obj 4163 96 loadbang;
#X obj 4859 99 loadbang;
#X obj 30 524 loadbang;
#X obj 96 434 biquad~;
#X floatatom 96 116 0 0 0 0 - - -;
#X obj 157 151 trigger bang float;
#X obj 99 71 hsl 128 17 20 20000 1 1 empty empty frequency 5 9 0 10
-203904 -1 -1 2549 0;
#X obj 160 94 hsl 128 17 -100 100 0 1 empty empty gain 5 9 0 10 -204786
-1 -1 6350 0;
#X floatatom 297 116 0 0 0 0 - - -;
#X obj 297 139 trigger bang float;
#X obj 300 94 hsl 128 17 0 100 0 1 empty empty bandwidth 5 9 0 10 -261682
-1 -1 4191 0;
#X obj 96 182 ggee/equalizer 5000 70 8;
#X obj 445 443 biquad~;
#X floatatom 445 116 0 0 0 0 - - -;
#X obj 506 139 trigger bang float;
#X obj 448 71 hsl 128 17 20 20000 1 1 empty empty frequency 5 9 0 10
-203904 -1 -1 2959 0;
#X obj 509 94 hsl 128 17 -100 100 0 1 empty empty gain 5 9 0 10 -204786
-1 -1 4445 0;
#X floatatom 646 116 0 0 0 0 - - -;
#X obj 646 139 trigger bang float;
#X obj 649 94 hsl 128 17 0 100 0 1 empty empty bandwidth 5 9 0 10 -261682
-1 -1 4191 0;
#X obj 445 182 ggee/equalizer 5000 70 8;
#X obj 96 44 r \$0-b1;
#X obj 445 41 r \$0-b2;
#X obj 297 49 loadbang;
#X floatatom 794 116 0 0 0 0 - - -;
#X floatatom 855 116 0 0 0 0 - - -;
#X obj 855 139 trigger bang float;
#X obj 797 71 hsl 128 17 20 20000 1 1 empty empty frequency 5 9 0 10
-203904 -1 -1 3369 0;
#X obj 858 94 hsl 128 17 -100 100 0 1 empty empty gain 5 9 0 10 -204786
-1 -1 6667 0;
#X floatatom 995 116 0 0 0 0 - - -;
#X obj 995 139 trigger bang float;
#X obj 998 94 hsl 128 17 0 100 0 1 empty empty bandwidth 5 9 0 10 -261682
-1 -1 4191 0;
#X obj 794 182 ggee/equalizer 5000 70 8;
#X floatatom 1143 116 0 0 0 0 - - -;
#X floatatom 1204 116 0 0 0 0 - - -;
#X obj 1204 139 trigger bang float;
#X obj 1146 71 hsl 128 17 20 20000 1 1 empty empty frequency 5 9 0
10 -203904 -1 -1 3823 0;
#X obj 1207 94 hsl 128 17 -100 100 0 1 empty empty gain 5 9 0 10 -204786
-1 -1 7239 0;
#X floatatom 1344 116 0 0 0 0 - - -;
#X obj 1344 139 trigger bang float;
#X obj 1347 94 hsl 128 17 0 100 0 1 empty empty bandwidth 5 9 0 10
-261682 -1 -1 4191 0;
#X obj 1143 182 ggee/equalizer 5000 70 8;
#X obj 995 49 loadbang;
#X obj 794 44 r \$0-b3;
#X obj 1143 41 r \$0-b4;
#X obj 647 49 loadbang;
#X obj 793 460 biquad~;
#X obj 1143 470 biquad~;
#X obj 1344 47 loadbang;
#X obj 1496 60 r \$0-b5;
#X obj 1845 57 r \$0-b6;
#X obj 2194 60 r \$0-b7;
#X obj 2543 57 r \$0-b8;
#X obj 2912 80 r \$0-b9;
#X obj 3261 77 r \$0-b10;
#X obj 3610 80 r \$0-b11;
#X obj 3962 92 r \$0-b12;
#X obj 4309 96 r \$0-b13;
#X obj 4658 93 r \$0-b14;
#X text 149 525 bandpass eq bands;
#X text 60 703 should also roll off at 63 hz and 2k;
#X obj 194 640 s \$0-b11;
#X obj 241 616 s \$0-b12;
#X obj 252 640 s \$0-b13;
#X obj 264 664 s \$0-b14;
#X obj 5151 779 s~ output;
#X obj 24 747 loadbang;
#X obj 4 850 s \$0-g1;
#X obj 16 874 s \$0-g2;
#X obj 41 899 s \$0-g3;
#X obj 60 849 s \$0-g4;
#X obj 72 873 s \$0-g5;
#X obj 97 898 s \$0-g6;
#X obj 118 845 s \$0-g7;
#X obj 130 869 s \$0-g8;
#X obj 155 894 s \$0-g9;
#X obj 174 846 s \$0-g10;
#X obj 188 872 s \$0-g11;
#X obj 235 848 s \$0-g12;
#X obj 246 872 s \$0-g13;
#X obj 258 896 s \$0-g14;
#X obj 198 36 r \$0-g1;
#X obj 584 37 r \$0-g2;
#X obj 947 42 r \$0-g3;
#X obj 1282 37 r \$0-g4;
#X obj 1649 58 r \$0-g4;
#X obj 1984 53 r \$0-g6;
#X obj 2347 58 r \$0-g7;
#X obj 2682 53 r \$0-g8;
#X obj 3065 78 r \$0-g9;
#X obj 3400 73 r \$0-g10;
#X obj 3763 78 r \$0-g11;
#X obj 4101 88 r \$0-g12;
#X obj 4462 94 r \$0-g13;
#X obj 4797 89 r \$0-g14;
#X text 81 745 per band gain - assumes average of 40dba to start;
#X floatatom 506 116 0 0 0 0 - - -;
#X floatatom 157 121 0 0 0 0 - - -;
#X obj 28 375 hip~ 63;
#X obj 37 284 noise~;
#X obj 4560 865 *~ 0.5;
#X msg 297 72 33;
#X msg 647 72 33;
#X msg 995 72 33;
#X msg 1344 70 33;
#X msg 1697 89 33;
#X msg 2047 88 33;
#X msg 2395 88 33;
#X msg 2744 86 33;
#X msg 3113 108 33;
#X msg 3462 104 33;
#X msg 3811 108 33;
#X msg 4163 119 33;
#X msg 4510 124 33;
#X msg 4859 122 33;
#X floatatom 5090 573 0 0 0 0 - - -;
#X floatatom 5181 573 0 0 0 0 - - -;
#X obj 5181 596 trigger bang float;
#X obj 5093 528 hsl 128 17 20 20000 1 1 empty empty frequency 5 9 0
10 -203904 -1 -1 8467 0;
#X obj 5184 551 hsl 128 17 0 100 0 1 empty empty bandwidth 5 9 0 10
-261682 -1 -1 12700 0;
#X obj 5091 634 ggee/lowpass;
#X obj 5024 671 biquad~;
#X obj 302 618 s \$0-b15;
#X obj 303 857 s \$0-g15;
#X floatatom 5014 155 0 0 0 0 - - -;
#X floatatom 5075 155 0 0 0 0 - - -;
#X obj 5075 178 trigger bang float;
#X obj 5017 110 hsl 128 17 20 20000 1 1 empty empty frequency 5 9 0
10 -203904 -1 -1 8467 0;
#X obj 5078 133 hsl 128 17 -100 100 0 1 empty empty gain 5 9 0 10 -204786
-1 -1 4953 0;
#X floatatom 5215 155 0 0 0 0 - - -;
#X obj 5215 178 trigger bang float;
#X obj 5218 133 hsl 128 17 0 100 0 1 empty empty bandwidth 5 9 0 10
-261682 -1 -1 4191 0;
#X obj 5014 221 ggee/equalizer 5000 70 8;
#X obj 5013 310 biquad~;
#X obj 5215 86 loadbang;
#X msg 5215 109 33;
#X obj 5014 80 r \$0-b15;
#X obj 5153 76 r \$0-g15;
#X floatatom 5401 214 0 0 0 0 - - -;
#X floatatom 5462 214 0 0 0 0 - - -;
#X obj 5462 237 trigger bang float;
#X obj 5404 169 hsl 128 17 20 20000 1 1 empty empty frequency 5 9 0
10 -203904 -1 -1 8877 0;
#X obj 5465 192 hsl 128 17 -100 100 0 1 empty empty gain 5 9 0 10 -204786
-1 -1 4953 0;
#X floatatom 5602 214 0 0 0 0 - - -;
#X obj 5602 237 trigger bang float;
#X obj 5605 192 hsl 128 17 0 100 0 1 empty empty bandwidth 5 9 0 10
-261682 -1 -1 4191 0;
#X obj 5401 280 ggee/equalizer 5000 70 8;
#X obj 5400 369 biquad~;
#X obj 5602 145 loadbang;
#X msg 5602 168 33;
#X obj 320 890 s \$0-g16;
#X obj 324 645 s \$0-b16;
#X obj 5401 139 r \$0-b16;
#X obj 5540 135 r \$0-g16;
#X msg 30 545 80 100 125 160 200 250 315 400 500 630 800 1000 1250
1600 2000 2500 3150;
#X obj 30 582 unpack f f f f f f f f f f f f f f f f f;
#X obj 334 669 s \$0-b17;
#X obj 24 814 unpack f f f f f f f f f f f f f f f f f;
#X obj 375 861 s \$0-g17;
#X floatatom 5751 272 0 0 0 0 - - -;
#X floatatom 5812 272 0 0 0 0 - - -;
#X obj 5812 295 trigger bang float;
#X obj 5754 227 hsl 128 17 20 20000 1 1 empty empty frequency 5 9 0
10 -203904 -1 -1 9302 0;
#X obj 5815 250 hsl 128 17 -100 100 0 1 empty empty gain 5 9 0 10 -204786
-1 -1 6350 0;
#X floatatom 5952 272 0 0 0 0 - - -;
#X obj 5952 295 trigger bang float;
#X obj 5955 250 hsl 128 17 0 100 0 1 empty empty bandwidth 5 9 0 10
-261682 -1 -1 4191 0;
#X obj 5751 338 ggee/equalizer 5000 70 8;
#X obj 5750 427 biquad~;
#X obj 5952 203 loadbang;
#X msg 5952 226 33;
#X obj 5751 197 r \$0-b17;
#X floatatom 4730 720 0 0 0 0 - - -;
#X floatatom 4821 720 0 0 0 0 - - -;
#X obj 4821 743 trigger bang float;
#X obj 4733 675 hsl 128 17 20 20000 1 1 empty empty frequency 5 9 0
10 -203904 -1 -1 8467 0;
#X obj 4824 698 hsl 128 17 0 100 0 1 empty empty bandwidth 5 9 0 10
-261682 -1 -1 12700 0;
#X obj 4731 781 ggee/lowpass;
#X obj 4664 818 biquad~;
#X floatatom 5469 478 0 0 0 0 - - -;
#X floatatom 5560 478 0 0 0 0 - - -;
#X obj 5560 501 trigger bang float;
#X obj 5472 433 hsl 128 17 20 20000 1 1 empty empty frequency 5 9 0
10 -203904 -1 -1 8467 0;
#X obj 5563 456 hsl 128 17 0 100 0 1 empty empty bandwidth 5 9 0 10
-261682 -1 -1 12700 0;
#X obj 5470 539 ggee/lowpass;
#X obj 5403 576 biquad~;
#X msg 5043 437 2000;
#X obj 4559 724 ctlin 14;
#X floatatom 4505 765 5 0 0 0 - - -, f 5;
#X obj 4560 786 / 127;
#X obj 4551 920 outlet~;
#X floatatom 517 670 5 0 0 0 - - -, f 5;
#X text 518 652 80;
#X obj 446 779 list append;
#X msg 25 778 0 -30 5 14 2 8 10 7 5 4 2 -2 -4 -20 -22 -22 0;
#X obj 464 814 list trim;
#X obj 806 809 pack f f f f f f f f f f f f f f f f f;
#X obj 648 775 bng 15 250 50 0 empty empty empty 17 7 0 10 -262144
-1 -1;
#X obj 517 507 vsl 15 128 -50 50 0 0 empty empty empty 0 -9 0 10 -262144
-1 -1 6350 1;
#X obj 560 697 t b f;
#X floatatom 560 671 5 0 0 0 - - -, f 5;
#X obj 560 508 vsl 15 128 -50 50 0 0 empty empty empty 0 -9 0 10 -262144
-1 -1 2540 1;
#X obj 610 696 t b f;
#X floatatom 610 670 5 0 0 0 - - -, f 5;
#X obj 610 507 vsl 15 128 -50 50 0 0 empty empty empty 0 -9 0 10 -262144
-1 -1 6985 1;
#X obj 653 698 t b f;
#X floatatom 653 672 5 0 0 0 - - -, f 5;
#X obj 653 509 vsl 15 128 -50 50 0 0 empty empty empty 0 -9 0 10 -262144
-1 -1 8128 1;
#X obj 703 697 t b f;
#X floatatom 703 671 5 0 0 0 - - -, f 5;
#X obj 703 508 vsl 15 128 -50 50 0 0 empty empty empty 0 -9 0 10 -262144
-1 -1 6604 1;
#X text 561 653 100;
#X text 611 652 125;
#X text 654 654 160;
#X text 704 653 200;
#X obj 750 698 t b f;
#X floatatom 750 672 5 0 0 0 - - -, f 5;
#X obj 750 509 vsl 15 128 -50 50 0 0 empty empty empty 0 -9 0 10 -262144
-1 -1 7366 1;
#X obj 800 697 t b f;
#X floatatom 800 671 5 0 0 0 - - -, f 5;
#X obj 800 508 vsl 15 128 -50 50 0 0 empty empty empty 0 -9 0 10 -262144
-1 -1 7620 1;
#X obj 843 699 t b f;
#X floatatom 843 673 5 0 0 0 - - -, f 5;
#X obj 843 510 vsl 15 128 -50 50 0 0 empty empty empty 0 -9 0 10 -262144
-1 -1 7239 1;
#X obj 893 698 t b f;
#X floatatom 893 672 5 0 0 0 - - -, f 5;
#X obj 893 509 vsl 15 128 -50 50 0 0 empty empty empty 0 -9 0 10 -262144
-1 -1 6985 1;
#X text 751 654 250;
#X text 801 653 315;
#X text 844 655 400;
#X text 894 654 500;
#X obj 935 698 t b f;
#X floatatom 935 672 5 0 0 0 - - -, f 5;
#X obj 935 509 vsl 15 128 -50 50 0 0 empty empty empty 0 -9 0 10 -262144
-1 -1 6858 1;
#X obj 985 697 t b f;
#X floatatom 985 671 5 0 0 0 - - -, f 5;
#X obj 985 508 vsl 15 128 -50 50 0 0 empty empty empty 0 -9 0 10 -262144
-1 -1 6604 1;
#X obj 1028 699 t b f;
#X floatatom 1028 673 5 0 0 0 - - -, f 5;
#X obj 1028 510 vsl 15 128 -50 50 0 0 empty empty empty 0 -9 0 10 -262144
-1 -1 6096 1;
#X obj 1078 698 t b f;
#X floatatom 1078 672 5 0 0 0 - - -, f 5;
#X obj 1078 509 vsl 15 128 -50 50 0 0 empty empty empty 0 -9 0 10 -262144
-1 -1 5842 1;
#X obj 1125 699 t b f;
#X floatatom 1125 673 5 0 0 0 - - -, f 5;
#X obj 1125 510 vsl 15 128 -50 50 0 0 empty empty empty 0 -9 0 10 -262144
-1 -1 3810 1;
#X obj 1175 698 t b f;
#X floatatom 1175 672 5 0 0 0 - - -, f 5;
#X obj 1175 509 vsl 15 128 -50 50 0 0 empty empty empty 0 -9 0 10 -262144
-1 -1 3556 1;
#X obj 1218 700 t b f;
#X floatatom 1218 674 5 0 0 0 - - -, f 5;
#X obj 1218 511 vsl 15 128 -50 50 0 0 empty empty empty 0 -9 0 10 -262144
-1 -1 3556 1;
#X obj 1268 699 t b f;
#X floatatom 1268 673 5 0 0 0 - - -, f 5;
#X obj 1268 510 vsl 15 128 -50 50 0 0 empty empty empty 0 -9 0 10 -262144
-1 -1 6350 1;
#X text 936 654 630;
#X text 986 653 800;
#X text 1029 655 1000;
#X text 1079 654 1250;
#X text 1126 655 1600;
#X text 1176 654 2000;
#X text 1219 656 2500;
#X text 1269 655 3150;
#X obj 767 395 unpack f f f f f f f f f f f f f f f f f;
#X msg 433 739 set;
#X obj 5890 193 r \$0-g17;
#X obj 464 839 t b a;
#X msg 1131 258 10 10 0 -6 4 -6 2 5 -20 -5 -5 -23 -12 -8 -28 -10 -15
;
#X msg 771 336 0 -30 5 14 2 8 10 7 5 4 2 -2 -4 -20 -22 -22 0;
#X connect 0 0 10 0;
#X connect 1 0 9 0;
#X connect 2 0 3 0;
#X connect 3 0 9 0;
#X connect 3 1 9 1;
#X connect 4 0 1 0;
#X connect 5 0 2 0;
#X connect 6 0 7 0;
#X connect 7 0 9 0;
#X connect 7 1 9 2;
#X connect 8 0 6 0;
#X connect 9 0 0 0;
#X connect 10 0 109 0;
#X connect 11 0 19 0;
#X connect 12 0 13 0;
#X connect 13 0 19 0;
#X connect 13 1 19 1;
#X connect 14 0 11 0;
#X connect 15 0 12 0;
#X connect 16 0 17 0;
#X connect 17 0 19 0;
#X connect 17 1 19 2;
#X connect 18 0 16 0;
#X connect 19 0 10 0;
#X connect 30 0 218 0;
#X connect 31 0 225 0;
#X connect 32 0 40 0;
#X connect 33 0 34 0;
#X connect 34 0 40 0;
#X connect 34 1 40 1;
#X connect 35 0 32 0;
#X connect 36 0 33 0;
#X connect 37 0 38 0;
#X connect 38 0 40 0;
#X connect 38 1 40 2;
#X connect 39 0 37 0;
#X connect 40 0 109 0;
#X connect 41 0 49 0;
#X connect 42 0 43 0;
#X connect 43 0 49 0;
#X connect 43 1 49 1;
#X connect 44 0 41 0;
#X connect 45 0 42 0;
#X connect 46 0 47 0;
#X connect 47 0 49 0;
#X connect 47 1 49 2;
#X connect 48 0 46 0;
#X connect 49 0 110 0;
#X connect 50 0 227 0;
#X connect 51 0 59 0;
#X connect 52 0 53 0;
#X connect 53 0 59 0;
#X connect 53 1 59 1;
#X connect 54 0 51 0;
#X connect 55 0 52 0;
#X connect 56 0 57 0;
#X connect 57 0 59 0;
#X connect 57 1 59 2;
#X connect 58 0 56 0;
#X connect 59 0 111 0;
#X connect 60 0 68 0;
#X connect 61 0 62 0;
#X connect 62 0 68 0;
#X connect 62 1 68 1;
#X connect 63 0 60 0;
#X connect 64 0 61 0;
#X connect 65 0 66 0;
#X connect 66 0 68 0;
#X connect 66 1 68 2;
#X connect 67 0 65 0;
#X connect 68 0 112 0;
#X connect 69 0 229 0;
#X connect 70 0 78 0;
#X connect 71 0 72 0;
#X connect 72 0 78 0;
#X connect 72 1 78 1;
#X connect 73 0 70 0;
#X connect 74 0 71 0;
#X connect 75 0 76 0;
#X connect 76 0 78 0;
#X connect 76 1 78 2;
#X connect 77 0 75 0;
#X connect 78 0 113 0;
#X connect 79 0 87 0;
#X connect 80 0 81 0;
#X connect 81 0 87 0;
#X connect 81 1 87 1;
#X connect 82 0 79 0;
#X connect 83 0 80 0;
#X connect 84 0 85 0;
#X connect 85 0 87 0;
#X connect 85 1 87 2;
#X connect 86 0 84 0;
#X connect 87 0 114 0;
#X connect 88 0 231 0;
#X connect 89 0 97 0;
#X connect 90 0 91 0;
#X connect 91 0 97 0;
#X connect 91 1 97 1;
#X connect 92 0 89 0;
#X connect 93 0 90 0;
#X connect 94 0 95 0;
#X connect 95 0 97 0;
#X connect 95 1 97 2;
#X connect 96 0 94 0;
#X connect 97 0 115 0;
#X connect 98 0 106 0;
#X connect 99 0 100 0;
#X connect 100 0 106 0;
#X connect 100 1 106 1;
#X connect 101 0 98 0;
#X connect 102 0 99 0;
#X connect 103 0 104 0;
#X connect 104 0 106 0;
#X connect 104 1 106 2;
#X connect 105 0 103 0;
#X connect 106 0 116 0;
#X connect 107 0 233 0;
#X connect 108 0 226 0;
#X connect 109 0 110 0;
#X connect 110 0 111 0;
#X connect 111 0 112 0;
#X connect 112 0 113 0;
#X connect 113 0 114 0;
#X connect 114 0 115 0;
#X connect 115 0 116 0;
#X connect 116 0 253 0;
#X connect 118 0 228 0;
#X connect 119 0 230 0;
#X connect 120 0 232 0;
#X connect 121 0 234 0;
#X connect 122 0 274 0;
#X connect 123 0 132 0;
#X connect 124 0 131 0;
#X connect 125 0 131 0;
#X connect 125 1 131 1;
#X connect 126 0 124 0;
#X connect 127 0 217 0;
#X connect 128 0 129 0;
#X connect 129 0 131 0;
#X connect 129 1 131 2;
#X connect 130 0 128 0;
#X connect 131 0 123 0;
#X connect 132 0 166 0;
#X connect 133 0 140 0;
#X connect 134 0 140 0;
#X connect 134 1 140 1;
#X connect 135 0 133 0;
#X connect 136 0 216 0;
#X connect 137 0 138 0;
#X connect 138 0 140 0;
#X connect 138 1 140 2;
#X connect 139 0 137 0;
#X connect 140 0 132 0;
#X connect 141 0 126 0;
#X connect 142 0 135 0;
#X connect 143 0 221 0;
#X connect 144 0 152 0;
#X connect 145 0 146 0;
#X connect 146 0 152 0;
#X connect 146 1 152 1;
#X connect 147 0 144 0;
#X connect 148 0 145 0;
#X connect 149 0 150 0;
#X connect 150 0 152 0;
#X connect 150 1 152 2;
#X connect 151 0 149 0;
#X connect 152 0 166 0;
#X connect 153 0 161 0;
#X connect 154 0 155 0;
#X connect 155 0 161 0;
#X connect 155 1 161 1;
#X connect 156 0 153 0;
#X connect 157 0 154 0;
#X connect 158 0 159 0;
#X connect 159 0 161 0;
#X connect 159 1 161 2;
#X connect 160 0 158 0;
#X connect 161 0 167 0;
#X connect 162 0 223 0;
#X connect 163 0 147 0;
#X connect 164 0 156 0;
#X connect 165 0 222 0;
#X connect 166 0 167 0;
#X connect 167 0 0 0;
#X connect 168 0 224 0;
#X connect 169 0 4 0;
#X connect 170 0 14 0;
#X connect 171 0 35 0;
#X connect 172 0 44 0;
#X connect 173 0 54 0;
#X connect 174 0 63 0;
#X connect 175 0 73 0;
#X connect 176 0 82 0;
#X connect 177 0 92 0;
#X connect 178 0 101 0;
#X connect 186 0 314 0;
#X connect 201 0 127 0;
#X connect 202 0 136 0;
#X connect 203 0 148 0;
#X connect 204 0 157 0;
#X connect 205 0 5 0;
#X connect 206 0 15 0;
#X connect 207 0 36 0;
#X connect 208 0 45 0;
#X connect 209 0 55 0;
#X connect 210 0 64 0;
#X connect 211 0 74 0;
#X connect 212 0 83 0;
#X connect 213 0 93 0;
#X connect 214 0 102 0;
#X connect 216 0 134 0;
#X connect 217 0 125 0;
#X connect 218 0 123 0;
#X connect 219 0 218 0;
#X connect 220 0 310 0;
#X connect 221 0 130 0;
#X connect 222 0 139 0;
#X connect 223 0 151 0;
#X connect 224 0 160 0;
#X connect 225 0 8 0;
#X connect 226 0 18 0;
#X connect 227 0 39 0;
#X connect 228 0 48 0;
#X connect 229 0 58 0;
#X connect 230 0 67 0;
#X connect 231 0 77 0;
#X connect 232 0 86 0;
#X connect 233 0 96 0;
#X connect 234 0 105 0;
#X connect 235 0 240 0;
#X connect 236 0 237 0;
#X connect 237 0 240 0;
#X connect 237 1 240 1;
#X connect 238 0 235 0;
#X connect 239 0 236 0;
#X connect 240 0 241 0;
#X connect 241 0 117 0;
#X connect 241 0 185 0;
#X connect 241 0 298 0;
#X connect 244 0 252 0;
#X connect 245 0 246 0;
#X connect 246 0 252 0;
#X connect 246 1 252 1;
#X connect 247 0 244 0;
#X connect 248 0 245 0;
#X connect 249 0 250 0;
#X connect 250 0 252 0;
#X connect 250 1 252 2;
#X connect 251 0 249 0;
#X connect 252 0 253 0;
#X connect 253 0 267 0;
#X connect 254 0 255 0;
#X connect 255 0 251 0;
#X connect 256 0 247 0;
#X connect 257 0 248 0;
#X connect 258 0 266 0;
#X connect 259 0 260 0;
#X connect 260 0 266 0;
#X connect 260 1 266 1;
#X connect 261 0 258 0;
#X connect 262 0 259 0;
#X connect 263 0 264 0;
#X connect 264 0 266 0;
#X connect 264 1 266 2;
#X connect 265 0 263 0;
#X connect 266 0 267 0;
#X connect 267 0 288 0;
#X connect 268 0 269 0;
#X connect 269 0 265 0;
#X connect 272 0 261 0;
#X connect 273 0 262 0;
#X connect 274 0 275 0;
#X connect 275 0 20 0;
#X connect 275 1 21 0;
#X connect 275 2 22 0;
#X connect 275 3 23 0;
#X connect 275 4 24 0;
#X connect 275 5 25 0;
#X connect 275 6 26 0;
#X connect 275 7 27 0;
#X connect 275 8 28 0;
#X connect 275 9 29 0;
#X connect 275 10 181 0;
#X connect 275 11 182 0;
#X connect 275 12 183 0;
#X connect 275 13 184 0;
#X connect 275 14 242 0;
#X connect 275 15 271 0;
#X connect 275 16 276 0;
#X connect 277 0 187 0;
#X connect 277 1 188 0;
#X connect 277 2 189 0;
#X connect 277 3 190 0;
#X connect 277 4 191 0;
#X connect 277 5 192 0;
#X connect 277 6 193 0;
#X connect 277 7 194 0;
#X connect 277 8 195 0;
#X connect 277 9 196 0;
#X connect 277 10 197 0;
#X connect 277 11 198 0;
#X connect 277 12 199 0;
#X connect 277 13 200 0;
#X connect 277 14 243 0;
#X connect 277 15 270 0;
#X connect 277 16 278 0;
#X connect 279 0 287 0;
#X connect 280 0 281 0;
#X connect 281 0 287 0;
#X connect 281 1 287 1;
#X connect 282 0 279 0;
#X connect 283 0 280 0;
#X connect 284 0 285 0;
#X connect 285 0 287 0;
#X connect 285 1 287 2;
#X connect 286 0 284 0;
#X connect 287 0 288 0;
#X connect 288 0 305 0;
#X connect 289 0 290 0;
#X connect 290 0 286 0;
#X connect 291 0 282 0;
#X connect 292 0 297 0;
#X connect 293 0 294 0;
#X connect 294 0 297 0;
#X connect 294 1 297 1;
#X connect 295 0 292 0;
#X connect 296 0 293 0;
#X connect 297 0 298 0;
#X connect 298 0 220 0;
#X connect 299 0 304 0;
#X connect 300 0 301 0;
#X connect 301 0 304 0;
#X connect 301 1 304 1;
#X connect 302 0 299 0;
#X connect 303 0 300 0;
#X connect 304 0 305 0;
#X connect 305 0 241 0;
#X connect 306 0 238 0;
#X connect 306 0 302 0;
#X connect 306 0 295 0;
#X connect 307 0 308 0;
#X connect 307 0 309 0;
#X connect 309 0 220 1;
#X connect 311 0 316 0;
#X connect 313 0 315 0;
#X connect 314 0 277 0;
#X connect 315 0 386 0;
#X connect 316 0 313 1;
#X connect 317 0 316 0;
#X connect 317 0 384 0;
#X connect 318 0 311 0;
#X connect 319 0 317 0;
#X connect 319 1 316 1;
#X connect 320 0 319 0;
#X connect 321 0 320 0;
#X connect 322 0 317 0;
#X connect 322 1 316 2;
#X connect 323 0 322 0;
#X connect 324 0 323 0;
#X connect 325 0 317 0;
#X connect 325 1 316 3;
#X connect 326 0 325 0;
#X connect 327 0 326 0;
#X connect 328 0 317 0;
#X connect 328 1 316 4;
#X connect 329 0 328 0;
#X connect 330 0 329 0;
#X connect 335 0 317 0;
#X connect 335 1 316 5;
#X connect 336 0 335 0;
#X connect 337 0 336 0;
#X connect 338 0 317 0;
#X connect 338 1 316 6;
#X connect 339 0 338 0;
#X connect 340 0 339 0;
#X connect 341 0 317 0;
#X connect 341 1 316 7;
#X connect 342 0 341 0;
#X connect 343 0 342 0;
#X connect 344 0 317 0;
#X connect 344 1 316 8;
#X connect 345 0 344 0;
#X connect 346 0 345 0;
#X connect 351 0 317 0;
#X connect 351 1 316 9;
#X connect 352 0 351 0;
#X connect 353 0 352 0;
#X connect 354 0 317 0;
#X connect 354 1 316 10;
#X connect 355 0 354 0;
#X connect 356 0 355 0;
#X connect 357 0 317 0;
#X connect 357 1 316 11;
#X connect 358 0 357 0;
#X connect 359 0 358 0;
#X connect 360 0 317 0;
#X connect 360 1 316 12;
#X connect 361 0 360 0;
#X connect 362 0 361 0;
#X connect 363 0 317 0;
#X connect 363 1 316 13;
#X connect 364 0 363 0;
#X connect 365 0 364 0;
#X connect 366 0 317 0;
#X connect 366 1 316 14;
#X connect 367 0 366 0;
#X connect 368 0 367 0;
#X connect 369 0 317 0;
#X connect 369 1 316 15;
#X connect 370 0 369 0;
#X connect 371 0 370 0;
#X connect 372 0 317 0;
#X connect 372 1 316 16;
#X connect 373 0 372 0;
#X connect 374 0 373 0;
#X connect 383 0 318 0;
#X connect 383 1 321 0;
#X connect 383 2 324 0;
#X connect 383 3 327 0;
#X connect 383 4 330 0;
#X connect 383 5 337 0;
#X connect 383 6 340 0;
#X connect 383 7 343 0;
#X connect 383 8 346 0;
#X connect 383 9 353 0;
#X connect 383 10 356 0;
#X connect 383 11 359 0;
#X connect 383 12 362 0;
#X connect 383 13 365 0;
#X connect 383 14 368 0;
#X connect 383 15 371 0;
#X connect 383 16 374 0;
#X connect 384 0 313 0;
#X connect 385 0 283 0;
#X connect 386 0 314 0;
#X connect 386 1 314 0;
#X connect 388 0 383 0;
