#N canvas 47 70 1242 628 10;
#X floatatom 1496 132 0 0 0 0 - - -;
#X floatatom 1557 132 0 0 0 0 - - -;
#X obj 1557 155 trigger bang float;
#X obj 1499 87 hsl 128 17 20 20000 1 1 empty empty frequency 5 9 0
10 -203904 -1 -1 4233 0;
#X obj 1560 110 hsl 128 17 -100 100 0 1 empty empty gain 5 9 0 10 -204786
-1 -1 6604 0;
#X floatatom 1697 132 0 0 0 0 - - -;
#X obj 1697 155 trigger bang float;
#X obj 1700 110 hsl 128 17 0 100 0 1 empty empty bandwidth 5 9 0 10
-261682 -1 -1 4191 0;
#X obj 1496 198 ggee/equalizer 5000 70 8;
#X floatatom 1845 132 0 0 0 0 - - -;
#X floatatom 1906 132 0 0 0 0 - - -;
#X obj 1906 155 trigger bang float;
#X obj 1848 87 hsl 128 17 20 20000 1 1 empty empty frequency 5 9 0
10 -203904 -1 -1 4644 0;
#X obj 1909 110 hsl 128 17 -100 100 0 1 empty empty gain 5 9 0 10 -204786
-1 -1 6540 0;
#X floatatom 2046 132 0 0 0 0 - - -;
#X obj 2046 155 trigger bang float;
#X obj 2049 110 hsl 128 17 0 100 0 1 empty empty bandwidth 5 9 0 10
-261682 -1 -1 4191 0;
#X obj 1845 198 ggee/equalizer 5000 70 8;
#X obj 10 618 s \$0-b1;
#X obj 22 642 s \$0-b2;
#X obj 47 667 s \$0-b3;
#X obj 66 617 s \$0-b4;
#X obj 78 641 s \$0-b5;
#X obj 103 666 s \$0-b6;
#X obj 124 613 s \$0-b7;
#X obj 136 637 s \$0-b8;
#X obj 161 662 s \$0-b9;
#X obj 180 614 s \$0-b10;
#X obj 27 34 inlet~;
#X obj 1697 65 loadbang;
#X floatatom 2194 132 0 0 0 0 - - -;
#X floatatom 2255 132 0 0 0 0 - - -;
#X obj 2255 155 trigger bang float;
#X obj 2197 87 hsl 128 17 20 20000 1 1 empty empty frequency 5 9 0
10 -203904 -1 -1 5068 0;
#X obj 2258 110 hsl 128 17 -100 100 0 1 empty empty gain 5 9 0 10 -204786
-1 -1 6477 0;
#X floatatom 2395 132 0 0 0 0 - - -;
#X obj 2395 155 trigger bang float;
#X obj 2398 110 hsl 128 17 0 100 0 1 empty empty bandwidth 5 9 0 10
-261682 -1 -1 4191 0;
#X obj 2194 198 ggee/equalizer 5000 70 8;
#X floatatom 2543 132 0 0 0 0 - - -;
#X floatatom 2604 132 0 0 0 0 - - -;
#X obj 2604 155 trigger bang float;
#X obj 2546 87 hsl 128 17 20 20000 1 1 empty empty frequency 5 9 0
10 -203904 -1 -1 5508 0;
#X obj 2607 110 hsl 128 17 -100 100 0 1 empty empty gain 5 9 0 10 -204786
-1 -1 6667 0;
#X floatatom 2744 132 0 0 0 0 - - -;
#X obj 2744 155 trigger bang float;
#X obj 2747 110 hsl 128 17 0 100 0 1 empty empty bandwidth 5 9 0 10
-261682 -1 -1 4191 0;
#X obj 2543 198 ggee/equalizer 5000 70 8;
#X obj 2395 65 loadbang;
#X floatatom 2912 152 0 0 0 0 - - -;
#X floatatom 2973 152 0 0 0 0 - - -;
#X obj 2973 175 trigger bang float;
#X obj 2915 107 hsl 128 17 20 20000 1 1 empty empty frequency 5 9 0
10 -203904 -1 -1 5918 0;
#X obj 2976 130 hsl 128 17 -100 100 0 1 empty empty gain 5 9 0 10 -204786
-1 -1 6032 0;
#X floatatom 3113 152 0 0 0 0 - - -;
#X obj 3113 175 trigger bang float;
#X obj 3116 130 hsl 128 17 0 100 0 1 empty empty bandwidth 5 9 0 10
-261682 -1 -1 4191 0;
#X obj 2912 218 ggee/equalizer 5000 70 8;
#X floatatom 3261 152 0 0 0 0 - - -;
#X floatatom 3322 152 0 0 0 0 - - -;
#X obj 3322 175 trigger bang float;
#X obj 3264 107 hsl 128 17 20 20000 1 1 empty empty frequency 5 9 0
10 -203904 -1 -1 6343 0;
#X obj 3325 130 hsl 128 17 -100 100 0 1 empty empty gain 5 9 0 10 -204786
-1 -1 6032 0;
#X floatatom 3462 152 0 0 0 0 - - -;
#X obj 3462 175 trigger bang float;
#X obj 3465 130 hsl 128 17 0 100 0 1 empty empty bandwidth 5 9 0 10
-261682 -1 -1 4191 0;
#X obj 3261 218 ggee/equalizer 5000 70 8;
#X obj 3113 85 loadbang;
#X floatatom 3610 152 0 0 0 0 - - -;
#X floatatom 3671 152 0 0 0 0 - - -;
#X obj 3671 175 trigger bang float;
#X obj 3613 107 hsl 128 17 20 20000 1 1 empty empty frequency 5 9 0
10 -203904 -1 -1 6782 0;
#X obj 3674 130 hsl 128 17 -100 100 0 1 empty empty gain 5 9 0 10 -204786
-1 -1 6032 0;
#X floatatom 3811 152 0 0 0 0 - - -;
#X obj 3811 175 trigger bang float;
#X obj 3814 130 hsl 128 17 0 100 0 1 empty empty bandwidth 5 9 0 10
-261682 -1 -1 4191 0;
#X obj 3610 218 ggee/equalizer 5000 70 8;
#X floatatom 3962 167 0 0 0 0 - - -;
#X floatatom 4023 167 0 0 0 0 - - -;
#X obj 4023 190 trigger bang float;
#X obj 3965 122 hsl 128 17 20 20000 1 1 empty empty frequency 5 9 0
10 -203904 -1 -1 7192 0;
#X obj 4026 145 hsl 128 17 -100 100 0 1 empty empty gain 5 9 0 10 -204786
-1 -1 5842 0;
#X floatatom 4163 167 0 0 0 0 - - -;
#X obj 4163 190 trigger bang float;
#X obj 4166 145 hsl 128 17 0 100 0 1 empty empty bandwidth 5 9 0 10
-261682 -1 -1 4191 0;
#X obj 3961 221 ggee/equalizer 5000 70 8;
#X obj 3811 85 loadbang;
#X floatatom 4309 168 0 0 0 0 - - -;
#X floatatom 4370 168 0 0 0 0 - - -;
#X obj 4370 191 trigger bang float;
#X obj 4312 123 hsl 128 17 20 20000 1 1 empty empty frequency 5 9 0
10 -203904 -1 -1 7603 0;
#X obj 4373 146 hsl 128 17 -100 100 0 1 empty empty gain 5 9 0 10 -204786
-1 -1 5588 0;
#X floatatom 4510 168 0 0 0 0 - - -;
#X obj 4510 191 trigger bang float;
#X obj 4513 146 hsl 128 17 0 100 0 1 empty empty bandwidth 5 9 0 10
-261682 -1 -1 4191 0;
#X obj 4309 234 ggee/equalizer 5000 70 8;
#X floatatom 4658 168 0 0 0 0 - - -;
#X floatatom 4719 168 0 0 0 0 - - -;
#X obj 4719 191 trigger bang float;
#X obj 4661 123 hsl 128 17 20 20000 1 1 empty empty frequency 5 9 0
10 -203904 -1 -1 8056 0;
#X obj 4722 146 hsl 128 17 -100 100 0 1 empty empty gain 5 9 0 10 -204786
-1 -1 5842 0;
#X floatatom 4859 168 0 0 0 0 - - -;
#X obj 4859 191 trigger bang float;
#X obj 4862 146 hsl 128 17 0 100 0 1 empty empty bandwidth 5 9 0 10
-261682 -1 -1 4191 0;
#X obj 4658 234 ggee/equalizer 5000 70 8;
#X obj 4510 101 loadbang;
#X obj 2047 65 loadbang;
#X obj 5324 810 outlet~;
#X obj 2744 63 loadbang;
#X obj 3462 81 loadbang;
#X obj 4163 96 loadbang;
#X obj 4859 99 loadbang;
#X obj 30 524 loadbang;
#X obj 96 434 biquad~;
#X floatatom 96 116 0 0 0 0 - - -;
#X obj 157 151 trigger bang float;
#X obj 99 71 hsl 128 17 20 20000 1 1 empty empty frequency 5 9 0 10
-203904 -1 -1 2549 0;
#X obj 160 94 hsl 128 17 -100 100 0 1 empty empty gain 5 9 0 10 -204786
-1 -1 6096 0;
#X floatatom 297 116 0 0 0 0 - - -;
#X obj 297 139 trigger bang float;
#X obj 300 94 hsl 128 17 0 100 0 1 empty empty bandwidth 5 9 0 10 -261682
-1 -1 4191 0;
#X obj 96 182 ggee/equalizer 5000 70 8;
#X floatatom 445 116 0 0 0 0 - - -;
#X obj 506 139 trigger bang float;
#X obj 448 71 hsl 128 17 20 20000 1 1 empty empty frequency 5 9 0 10
-203904 -1 -1 2959 0;
#X obj 509 94 hsl 128 17 -100 100 0 1 empty empty gain 5 9 0 10 -204786
-1 -1 6286 0;
#X floatatom 646 116 0 0 0 0 - - -;
#X obj 646 139 trigger bang float;
#X obj 649 94 hsl 128 17 0 100 0 1 empty empty bandwidth 5 9 0 10 -261682
-1 -1 4191 0;
#X obj 445 182 ggee/equalizer 5000 70 8;
#X obj 96 44 r \$0-b1;
#X obj 445 41 r \$0-b2;
#X obj 297 49 loadbang;
#X floatatom 794 116 0 0 0 0 - - -;
#X floatatom 855 116 0 0 0 0 - - -;
#X obj 855 139 trigger bang float;
#X obj 797 71 hsl 128 17 20 20000 1 1 empty empty frequency 5 9 0 10
-203904 -1 -1 3369 0;
#X obj 858 94 hsl 128 17 -100 100 0 1 empty empty gain 5 9 0 10 -204786
-1 -1 6477 0;
#X floatatom 995 116 0 0 0 0 - - -;
#X obj 995 139 trigger bang float;
#X obj 998 94 hsl 128 17 0 100 0 1 empty empty bandwidth 5 9 0 10 -261682
-1 -1 4191 0;
#X obj 793 189 ggee/equalizer 5000 70 8;
#X floatatom 1143 116 0 0 0 0 - - -;
#X floatatom 1204 116 0 0 0 0 - - -;
#X obj 1204 139 trigger bang float;
#X obj 1146 71 hsl 128 17 20 20000 1 1 empty empty frequency 5 9 0
10 -203904 -1 -1 3823 0;
#X obj 1207 94 hsl 128 17 -100 100 0 1 empty empty gain 5 9 0 10 -204786
-1 -1 6604 0;
#X floatatom 1344 116 0 0 0 0 - - -;
#X obj 1344 139 trigger bang float;
#X obj 1347 94 hsl 128 17 0 100 0 1 empty empty bandwidth 5 9 0 10
-261682 -1 -1 4191 0;
#X obj 1143 182 ggee/equalizer 5000 70 8;
#X obj 995 49 loadbang;
#X obj 794 44 r \$0-b3;
#X obj 1143 41 r \$0-b4;
#X obj 647 49 loadbang;
#X obj 1344 47 loadbang;
#X obj 1496 60 r \$0-b5;
#X obj 1845 57 r \$0-b6;
#X obj 2194 60 r \$0-b7;
#X obj 2543 57 r \$0-b8;
#X obj 2912 80 r \$0-b9;
#X obj 3261 77 r \$0-b10;
#X obj 3610 80 r \$0-b11;
#X obj 3962 92 r \$0-b12;
#X obj 4309 96 r \$0-b13;
#X obj 4658 93 r \$0-b14;
#X text 149 525 bandpass eq bands;
#X text 60 703 should also roll off at 63 hz and 2k;
#X obj 194 640 s \$0-b11;
#X obj 241 616 s \$0-b12;
#X obj 252 640 s \$0-b13;
#X obj 264 664 s \$0-b14;
#X obj 5151 779 s~ output;
#X obj 24 747 loadbang;
#X obj 4 850 s \$0-g1;
#X obj 16 874 s \$0-g2;
#X obj 41 899 s \$0-g3;
#X obj 60 849 s \$0-g4;
#X obj 72 873 s \$0-g5;
#X obj 97 898 s \$0-g6;
#X obj 118 845 s \$0-g7;
#X obj 130 869 s \$0-g8;
#X obj 155 894 s \$0-g9;
#X obj 174 846 s \$0-g10;
#X obj 188 872 s \$0-g11;
#X obj 235 848 s \$0-g12;
#X obj 246 872 s \$0-g13;
#X obj 258 896 s \$0-g14;
#X obj 198 36 r \$0-g1;
#X obj 584 37 r \$0-g2;
#X obj 947 42 r \$0-g3;
#X obj 1282 37 r \$0-g4;
#X obj 1649 58 r \$0-g4;
#X obj 1984 53 r \$0-g6;
#X obj 2347 58 r \$0-g7;
#X obj 2682 53 r \$0-g8;
#X obj 3065 78 r \$0-g9;
#X obj 3400 73 r \$0-g10;
#X obj 3763 78 r \$0-g11;
#X obj 4101 88 r \$0-g12;
#X obj 4462 94 r \$0-g13;
#X obj 4797 89 r \$0-g14;
#X text 81 745 per band gain - assumes average of 40dba to start;
#X floatatom 506 116 0 0 0 0 - - -;
#X floatatom 157 121 0 0 0 0 - - -;
#X obj 40 325 hip~ 63;
#X obj 37 284 noise~;
#X msg 297 72 33;
#X msg 647 72 33;
#X msg 995 72 33;
#X msg 1344 70 33;
#X msg 1697 89 33;
#X msg 2047 88 33;
#X msg 2395 88 33;
#X msg 2744 86 33;
#X msg 3113 108 33;
#X msg 3462 104 33;
#X msg 3811 108 33;
#X msg 4163 119 33;
#X msg 4510 124 33;
#X msg 4859 122 33;
#X floatatom 5090 573 0 0 0 0 - - -;
#X floatatom 5181 573 0 0 0 0 - - -;
#X obj 5181 596 trigger bang float;
#X obj 5093 528 hsl 128 17 20 20000 1 1 empty empty frequency 5 9 0
10 -203904 -1 -1 8467 0;
#X obj 5184 551 hsl 128 17 0 100 0 1 empty empty bandwidth 5 9 0 10
-261682 -1 -1 12700 0;
#X obj 5091 634 ggee/lowpass;
#X obj 5024 671 biquad~;
#X obj 302 618 s \$0-b15;
#X obj 303 857 s \$0-g15;
#X floatatom 5014 155 0 0 0 0 - - -;
#X floatatom 5075 155 0 0 0 0 - - -;
#X obj 5075 178 trigger bang float;
#X obj 5017 110 hsl 128 17 20 20000 1 1 empty empty frequency 5 9 0
10 -203904 -1 -1 8467 0;
#X obj 5078 133 hsl 128 17 -100 100 0 1 empty empty gain 5 9 0 10 -204786
-1 -1 4572 0;
#X floatatom 5215 155 0 0 0 0 - - -;
#X obj 5215 178 trigger bang float;
#X obj 5218 133 hsl 128 17 0 100 0 1 empty empty bandwidth 5 9 0 10
-261682 -1 -1 4191 0;
#X obj 5014 221 ggee/equalizer 5000 70 8;
#X obj 5215 86 loadbang;
#X msg 5215 109 33;
#X obj 5014 80 r \$0-b15;
#X obj 5153 76 r \$0-g15;
#X floatatom 5401 214 0 0 0 0 - - -;
#X floatatom 5462 214 0 0 0 0 - - -;
#X obj 5462 237 trigger bang float;
#X obj 5404 169 hsl 128 17 20 20000 1 1 empty empty frequency 5 9 0
10 -203904 -1 -1 8877 0;
#X obj 5465 192 hsl 128 17 -100 100 0 1 empty empty gain 5 9 0 10 -204786
-1 -1 5715 0;
#X floatatom 5602 214 0 0 0 0 - - -;
#X obj 5602 237 trigger bang float;
#X obj 5605 192 hsl 128 17 0 100 0 1 empty empty bandwidth 5 9 0 10
-261682 -1 -1 4191 0;
#X obj 5401 280 ggee/equalizer 5000 70 8;
#X obj 5602 145 loadbang;
#X msg 5602 168 33;
#X obj 320 890 s \$0-g16;
#X obj 324 645 s \$0-b16;
#X obj 5401 139 r \$0-b16;
#X obj 5540 135 r \$0-g16;
#X msg 33 555 80 100 125 160 200 250 315 400 500 630 800 1000 1250
1600 2000 2500 3150;
#X obj 30 582 unpack f f f f f f f f f f f f f f f f f;
#X obj 334 669 s \$0-b17;
#X obj 24 814 unpack f f f f f f f f f f f f f f f f f;
#X obj 375 861 s \$0-g17;
#X floatatom 5751 272 0 0 0 0 - - -;
#X floatatom 5812 272 0 0 0 0 - - -;
#X obj 5812 295 trigger bang float;
#X obj 5754 227 hsl 128 17 20 20000 1 1 empty empty frequency 5 9 0
10 -203904 -1 -1 9302 0;
#X obj 5815 250 hsl 128 17 -100 100 0 1 empty empty gain 5 9 0 10 -204786
-1 -1 5715 0;
#X floatatom 5952 272 0 0 0 0 - - -;
#X obj 5952 295 trigger bang float;
#X obj 5955 250 hsl 128 17 0 100 0 1 empty empty bandwidth 5 9 0 10
-261682 -1 -1 4191 0;
#X obj 5751 338 ggee/equalizer 5000 70 8;
#X obj 5952 203 loadbang;
#X msg 5952 226 33;
#X obj 5890 193 r \$0-g16;
#X obj 5751 197 r \$0-b17;
#X floatatom 4730 720 0 0 0 0 - - -;
#X floatatom 4821 720 0 0 0 0 - - -;
#X obj 4821 743 trigger bang float;
#X obj 4733 675 hsl 128 17 20 20000 1 1 empty empty frequency 5 9 0
10 -203904 -1 -1 8467 0;
#X obj 4824 698 hsl 128 17 0 100 0 1 empty empty bandwidth 5 9 0 10
-261682 -1 -1 12700 0;
#X obj 4731 781 ggee/lowpass;
#X obj 4664 818 biquad~;
#X msg 24 786 -4 -1 2 4 4 3 2 5 -5 -5 -5 -8 -12 -8 -28 -10 -15;
#X floatatom 5469 478 0 0 0 0 - - -;
#X floatatom 5560 478 0 0 0 0 - - -;
#X obj 5560 501 trigger bang float;
#X obj 5472 433 hsl 128 17 20 20000 1 1 empty empty frequency 5 9 0
10 -203904 -1 -1 8467 0;
#X obj 5563 456 hsl 128 17 0 100 0 1 empty empty bandwidth 5 9 0 10
-261682 -1 -1 12700 0;
#X obj 5470 539 ggee/lowpass;
#X obj 5403 576 biquad~;
#X msg 5043 437 2000;
#X obj 96 466 throw~ bands;
#X obj 40 358 send~ hip;
#X obj 105 404 receive~ hip;
#X obj 5395 525 catch~ bands;
#X obj 437 432 biquad~;
#X obj 437 464 throw~ bands;
#X obj 446 402 receive~ hip;
#X obj 802 439 biquad~;
#X obj 802 471 throw~ bands;
#X obj 811 409 receive~ hip;
#X obj 1151 453 biquad~;
#X obj 1151 485 throw~ bands;
#X obj 1160 423 receive~ hip;
#X obj 1525 462 biquad~;
#X obj 1525 494 throw~ bands;
#X obj 1534 432 receive~ hip;
#X obj 1845 468 biquad~;
#X obj 1845 500 throw~ bands;
#X obj 1854 438 receive~ hip;
#X obj 2201 456 biquad~;
#X obj 2201 488 throw~ bands;
#X obj 2210 426 receive~ hip;
#X obj 2552 464 biquad~;
#X obj 2552 496 throw~ bands;
#X obj 2561 434 receive~ hip;
#X obj 2916 465 biquad~;
#X obj 2916 497 throw~ bands;
#X obj 2925 435 receive~ hip;
#X obj 3249 477 biquad~;
#X obj 3249 509 throw~ bands;
#X obj 3258 447 receive~ hip;
#X obj 3649 498 biquad~;
#X obj 3649 530 throw~ bands;
#X obj 3658 468 receive~ hip;
#X obj 3964 491 biquad~;
#X obj 3964 523 throw~ bands;
#X obj 3973 461 receive~ hip;
#X obj 4321 485 biquad~;
#X obj 4321 517 throw~ bands;
#X obj 4330 455 receive~ hip;
#X obj 4676 416 biquad~;
#X obj 4676 448 throw~ bands;
#X obj 4685 386 receive~ hip;
#X obj 5024 324 biquad~;
#X obj 5024 356 throw~ bands;
#X obj 5033 294 receive~ hip;
#X obj 5398 354 biquad~;
#X obj 5398 386 throw~ bands;
#X obj 5407 324 receive~ hip;
#X obj 5808 431 biquad~;
#X obj 5808 463 throw~ bands;
#X obj 5817 401 receive~ hip;
#X connect 0 0 8 0;
#X connect 1 0 2 0;
#X connect 2 0 8 0;
#X connect 2 1 8 1;
#X connect 3 0 0 0;
#X connect 4 0 1 0;
#X connect 5 0 6 0;
#X connect 6 0 8 0;
#X connect 6 1 8 2;
#X connect 7 0 5 0;
#X connect 8 0 305 0;
#X connect 9 0 17 0;
#X connect 10 0 11 0;
#X connect 11 0 17 0;
#X connect 11 1 17 1;
#X connect 12 0 9 0;
#X connect 13 0 10 0;
#X connect 14 0 15 0;
#X connect 15 0 17 0;
#X connect 15 1 17 2;
#X connect 16 0 14 0;
#X connect 17 0 308 0;
#X connect 28 0 205 0;
#X connect 29 0 211 0;
#X connect 30 0 38 0;
#X connect 31 0 32 0;
#X connect 32 0 38 0;
#X connect 32 1 38 1;
#X connect 33 0 30 0;
#X connect 34 0 31 0;
#X connect 35 0 36 0;
#X connect 36 0 38 0;
#X connect 36 1 38 2;
#X connect 37 0 35 0;
#X connect 38 0 311 0;
#X connect 39 0 47 0;
#X connect 40 0 41 0;
#X connect 41 0 47 0;
#X connect 41 1 47 1;
#X connect 42 0 39 0;
#X connect 43 0 40 0;
#X connect 44 0 45 0;
#X connect 45 0 47 0;
#X connect 45 1 47 2;
#X connect 46 0 44 0;
#X connect 47 0 314 0;
#X connect 48 0 213 0;
#X connect 49 0 57 0;
#X connect 50 0 51 0;
#X connect 51 0 57 0;
#X connect 51 1 57 1;
#X connect 52 0 49 0;
#X connect 53 0 50 0;
#X connect 54 0 55 0;
#X connect 55 0 57 0;
#X connect 55 1 57 2;
#X connect 56 0 54 0;
#X connect 57 0 317 0;
#X connect 58 0 66 0;
#X connect 59 0 60 0;
#X connect 60 0 66 0;
#X connect 60 1 66 1;
#X connect 61 0 58 0;
#X connect 62 0 59 0;
#X connect 63 0 64 0;
#X connect 64 0 66 0;
#X connect 64 1 66 2;
#X connect 65 0 63 0;
#X connect 66 0 320 0;
#X connect 67 0 215 0;
#X connect 68 0 76 0;
#X connect 69 0 70 0;
#X connect 70 0 76 0;
#X connect 70 1 76 1;
#X connect 71 0 68 0;
#X connect 72 0 69 0;
#X connect 73 0 74 0;
#X connect 74 0 76 0;
#X connect 74 1 76 2;
#X connect 75 0 73 0;
#X connect 76 0 323 0;
#X connect 77 0 85 0;
#X connect 78 0 79 0;
#X connect 79 0 85 0;
#X connect 79 1 85 1;
#X connect 80 0 77 0;
#X connect 81 0 78 0;
#X connect 82 0 83 0;
#X connect 83 0 85 0;
#X connect 83 1 85 2;
#X connect 84 0 82 0;
#X connect 85 0 326 0;
#X connect 86 0 217 0;
#X connect 87 0 95 0;
#X connect 88 0 89 0;
#X connect 89 0 95 0;
#X connect 89 1 95 1;
#X connect 90 0 87 0;
#X connect 91 0 88 0;
#X connect 92 0 93 0;
#X connect 93 0 95 0;
#X connect 93 1 95 2;
#X connect 94 0 92 0;
#X connect 95 0 329 0;
#X connect 96 0 104 0;
#X connect 97 0 98 0;
#X connect 98 0 104 0;
#X connect 98 1 104 1;
#X connect 99 0 96 0;
#X connect 100 0 97 0;
#X connect 101 0 102 0;
#X connect 102 0 104 0;
#X connect 102 1 104 2;
#X connect 103 0 101 0;
#X connect 104 0 332 0;
#X connect 105 0 219 0;
#X connect 106 0 212 0;
#X connect 108 0 214 0;
#X connect 109 0 216 0;
#X connect 110 0 218 0;
#X connect 111 0 220 0;
#X connect 112 0 258 0;
#X connect 113 0 292 0;
#X connect 114 0 121 0;
#X connect 115 0 121 0;
#X connect 115 1 121 1;
#X connect 116 0 114 0;
#X connect 117 0 204 0;
#X connect 118 0 119 0;
#X connect 119 0 121 0;
#X connect 119 1 121 2;
#X connect 120 0 118 0;
#X connect 121 0 113 0;
#X connect 122 0 129 0;
#X connect 123 0 129 0;
#X connect 123 1 129 1;
#X connect 124 0 122 0;
#X connect 125 0 203 0;
#X connect 126 0 127 0;
#X connect 127 0 129 0;
#X connect 127 1 129 2;
#X connect 128 0 126 0;
#X connect 129 0 296 0;
#X connect 130 0 116 0;
#X connect 131 0 124 0;
#X connect 132 0 207 0;
#X connect 133 0 141 0;
#X connect 134 0 135 0;
#X connect 135 0 141 0;
#X connect 135 1 141 1;
#X connect 136 0 133 0;
#X connect 137 0 134 0;
#X connect 138 0 139 0;
#X connect 139 0 141 0;
#X connect 139 1 141 2;
#X connect 140 0 138 0;
#X connect 141 0 299 0;
#X connect 142 0 150 0;
#X connect 143 0 144 0;
#X connect 144 0 150 0;
#X connect 144 1 150 1;
#X connect 145 0 142 0;
#X connect 146 0 143 0;
#X connect 147 0 148 0;
#X connect 148 0 150 0;
#X connect 148 1 150 2;
#X connect 149 0 147 0;
#X connect 150 0 302 0;
#X connect 151 0 209 0;
#X connect 152 0 136 0;
#X connect 153 0 145 0;
#X connect 154 0 208 0;
#X connect 155 0 210 0;
#X connect 156 0 3 0;
#X connect 157 0 12 0;
#X connect 158 0 33 0;
#X connect 159 0 42 0;
#X connect 160 0 52 0;
#X connect 161 0 61 0;
#X connect 162 0 71 0;
#X connect 163 0 80 0;
#X connect 164 0 90 0;
#X connect 165 0 99 0;
#X connect 173 0 283 0;
#X connect 188 0 117 0;
#X connect 189 0 125 0;
#X connect 190 0 137 0;
#X connect 191 0 146 0;
#X connect 192 0 4 0;
#X connect 193 0 13 0;
#X connect 194 0 34 0;
#X connect 195 0 43 0;
#X connect 196 0 53 0;
#X connect 197 0 62 0;
#X connect 198 0 72 0;
#X connect 199 0 81 0;
#X connect 200 0 91 0;
#X connect 201 0 100 0;
#X connect 203 0 123 0;
#X connect 204 0 115 0;
#X connect 205 0 293 0;
#X connect 206 0 205 0;
#X connect 207 0 120 0;
#X connect 208 0 128 0;
#X connect 209 0 140 0;
#X connect 210 0 149 0;
#X connect 211 0 7 0;
#X connect 212 0 16 0;
#X connect 213 0 37 0;
#X connect 214 0 46 0;
#X connect 215 0 56 0;
#X connect 216 0 65 0;
#X connect 217 0 75 0;
#X connect 218 0 84 0;
#X connect 219 0 94 0;
#X connect 220 0 103 0;
#X connect 221 0 226 0;
#X connect 222 0 223 0;
#X connect 223 0 226 0;
#X connect 223 1 226 1;
#X connect 224 0 221 0;
#X connect 225 0 222 0;
#X connect 226 0 227 0;
#X connect 227 0 172 0;
#X connect 227 0 282 0;
#X connect 230 0 238 0;
#X connect 231 0 232 0;
#X connect 232 0 238 0;
#X connect 232 1 238 1;
#X connect 233 0 230 0;
#X connect 234 0 231 0;
#X connect 235 0 236 0;
#X connect 236 0 238 0;
#X connect 236 1 238 2;
#X connect 237 0 235 0;
#X connect 238 0 335 0;
#X connect 239 0 240 0;
#X connect 240 0 237 0;
#X connect 241 0 233 0;
#X connect 242 0 234 0;
#X connect 243 0 251 0;
#X connect 244 0 245 0;
#X connect 245 0 251 0;
#X connect 245 1 251 1;
#X connect 246 0 243 0;
#X connect 247 0 244 0;
#X connect 248 0 249 0;
#X connect 249 0 251 0;
#X connect 249 1 251 2;
#X connect 250 0 248 0;
#X connect 251 0 338 0;
#X connect 252 0 253 0;
#X connect 253 0 250 0;
#X connect 256 0 246 0;
#X connect 257 0 247 0;
#X connect 258 0 259 0;
#X connect 259 0 18 0;
#X connect 259 1 19 0;
#X connect 259 2 20 0;
#X connect 259 3 21 0;
#X connect 259 4 22 0;
#X connect 259 5 23 0;
#X connect 259 6 24 0;
#X connect 259 7 25 0;
#X connect 259 8 26 0;
#X connect 259 9 27 0;
#X connect 259 10 168 0;
#X connect 259 11 169 0;
#X connect 259 12 170 0;
#X connect 259 13 171 0;
#X connect 259 14 228 0;
#X connect 259 15 255 0;
#X connect 259 16 260 0;
#X connect 261 0 174 0;
#X connect 261 1 175 0;
#X connect 261 2 176 0;
#X connect 261 3 177 0;
#X connect 261 4 178 0;
#X connect 261 5 179 0;
#X connect 261 6 180 0;
#X connect 261 7 181 0;
#X connect 261 8 182 0;
#X connect 261 9 183 0;
#X connect 261 10 184 0;
#X connect 261 11 185 0;
#X connect 261 12 186 0;
#X connect 261 13 187 0;
#X connect 261 14 229 0;
#X connect 261 15 254 0;
#X connect 261 16 262 0;
#X connect 263 0 271 0;
#X connect 264 0 265 0;
#X connect 265 0 271 0;
#X connect 265 1 271 1;
#X connect 266 0 263 0;
#X connect 267 0 264 0;
#X connect 268 0 269 0;
#X connect 269 0 271 0;
#X connect 269 1 271 2;
#X connect 270 0 268 0;
#X connect 271 0 341 0;
#X connect 272 0 273 0;
#X connect 273 0 270 0;
#X connect 274 0 267 0;
#X connect 275 0 266 0;
#X connect 276 0 281 0;
#X connect 277 0 278 0;
#X connect 278 0 281 0;
#X connect 278 1 281 1;
#X connect 279 0 276 0;
#X connect 280 0 277 0;
#X connect 281 0 282 0;
#X connect 283 0 261 0;
#X connect 284 0 289 0;
#X connect 285 0 286 0;
#X connect 286 0 289 0;
#X connect 286 1 289 1;
#X connect 287 0 284 0;
#X connect 288 0 285 0;
#X connect 289 0 290 0;
#X connect 290 0 107 0;
#X connect 290 0 172 0;
#X connect 291 0 224 0;
#X connect 291 0 287 0;
#X connect 291 0 279 0;
#X connect 294 0 113 0;
#X connect 295 0 290 0;
#X connect 296 0 297 0;
#X connect 298 0 296 0;
#X connect 299 0 300 0;
#X connect 301 0 299 0;
#X connect 302 0 303 0;
#X connect 304 0 302 0;
#X connect 305 0 306 0;
#X connect 307 0 305 0;
#X connect 308 0 309 0;
#X connect 310 0 308 0;
#X connect 311 0 312 0;
#X connect 313 0 311 0;
#X connect 314 0 315 0;
#X connect 316 0 314 0;
#X connect 317 0 318 0;
#X connect 319 0 317 0;
#X connect 320 0 321 0;
#X connect 322 0 320 0;
#X connect 323 0 324 0;
#X connect 325 0 323 0;
#X connect 326 0 327 0;
#X connect 328 0 326 0;
#X connect 329 0 330 0;
#X connect 331 0 329 0;
#X connect 332 0 333 0;
#X connect 334 0 332 0;
#X connect 335 0 336 0;
#X connect 337 0 335 0;
#X connect 338 0 339 0;
#X connect 340 0 338 0;
#X connect 341 0 342 0;
#X connect 343 0 341 0;
