#N canvas 28 79 1521 768 10;
#X obj 62 455 biquad~;
#X obj 75 236 filterview;
#X floatatom 75 137 0 0 0 0 - - -;
#X floatatom 136 137 0 0 0 0 - - -;
#X obj 136 160 trigger bang float;
#X obj 78 92 hsl 128 17 20 20000 1 1 empty empty frequency 5 9 0 10
-203904 -1 -1 4233 0;
#X obj 139 115 hsl 128 17 -100 100 0 1 empty empty gain 5 9 0 10 -204786
-1 -1 6900 0;
#X floatatom 276 137 0 0 0 0 - - -;
#X obj 276 160 trigger bang float;
#X obj 279 115 hsl 128 17 0 100 0 1 empty empty bandwidth 5 9 0 10
-261682 -1 -1 12700 0;
#X obj 75 203 ggee/equalizer 5000 70 8;
#X obj 424 464 biquad~;
#X obj 424 236 filterview;
#X floatatom 424 137 0 0 0 0 - - -;
#X floatatom 485 137 0 0 0 0 - - -;
#X obj 485 160 trigger bang float;
#X obj 427 92 hsl 128 17 20 20000 1 1 empty empty frequency 5 9 0 10
-203904 -1 -1 4644 0;
#X obj 488 115 hsl 128 17 -100 100 0 1 empty empty gain 5 9 0 10 -204786
-1 -1 6900 0;
#X floatatom 625 137 0 0 0 0 - - -;
#X obj 625 160 trigger bang float;
#X obj 628 115 hsl 128 17 0 100 0 1 empty empty bandwidth 5 9 0 10
-261682 -1 -1 12700 0;
#X obj 424 203 ggee/equalizer 5000 70 8;
#X msg 632 652 200 250 315 400 500 630 800 1000 1250 1600;
#X obj 632 680 unpack f f f f f f f f f f;
#X obj 612 716 s \$0-b1;
#X obj 75 65 r \$0-b1;
#X obj 624 740 s \$0-b2;
#X obj 649 765 s \$0-b3;
#X obj 668 715 s \$0-b4;
#X obj 680 739 s \$0-b5;
#X obj 705 764 s \$0-b6;
#X obj 726 711 s \$0-b7;
#X obj 738 735 s \$0-b8;
#X obj 763 760 s \$0-b9;
#X obj 791 733 s \$0-b10;
#X obj 424 62 r \$0-b2;
#X obj 228 63 inlet;
#X obj 66 21 inlet~;
#X obj 563 58 inlet;
#X obj 276 70 loadbang;
#X msg 276 93 100;
#X obj 773 236 filterview;
#X floatatom 773 137 0 0 0 0 - - -;
#X floatatom 834 137 0 0 0 0 - - -;
#X obj 834 160 trigger bang float;
#X obj 776 92 hsl 128 17 20 20000 1 1 empty empty frequency 5 9 0 10
-203904 -1 -1 5068 0;
#X obj 837 115 hsl 128 17 -100 100 0 1 empty empty gain 5 9 0 10 -204786
-1 -1 6500 0;
#X floatatom 974 137 0 0 0 0 - - -;
#X obj 974 160 trigger bang float;
#X obj 977 115 hsl 128 17 0 100 0 1 empty empty bandwidth 5 9 0 10
-261682 -1 -1 12700 0;
#X obj 773 203 ggee/equalizer 5000 70 8;
#X obj 1122 236 filterview;
#X floatatom 1122 137 0 0 0 0 - - -;
#X floatatom 1183 137 0 0 0 0 - - -;
#X obj 1183 160 trigger bang float;
#X obj 1125 92 hsl 128 17 20 20000 1 1 empty empty frequency 5 9 0
10 -203904 -1 -1 5508 0;
#X obj 1186 115 hsl 128 17 -100 100 0 1 empty empty gain 5 9 0 10 -204786
-1 -1 6400 0;
#X floatatom 1323 137 0 0 0 0 - - -;
#X obj 1323 160 trigger bang float;
#X obj 1326 115 hsl 128 17 0 100 0 1 empty empty bandwidth 5 9 0 10
-261682 -1 -1 12700 0;
#X obj 1122 203 ggee/equalizer 5000 70 8;
#X obj 926 63 inlet;
#X obj 1261 58 inlet;
#X obj 974 70 loadbang;
#X msg 974 93 100;
#X obj 1472 238 filterview;
#X floatatom 1472 139 0 0 0 0 - - -;
#X floatatom 1533 139 0 0 0 0 - - -;
#X obj 1533 162 trigger bang float;
#X obj 1475 94 hsl 128 17 20 20000 1 1 empty empty frequency 5 9 0
10 -203904 -1 -1 5918 0;
#X obj 1536 117 hsl 128 17 -100 100 0 1 empty empty gain 5 9 0 10 -204786
-1 -1 6500 0;
#X floatatom 1673 139 0 0 0 0 - - -;
#X obj 1673 162 trigger bang float;
#X obj 1676 117 hsl 128 17 0 100 0 1 empty empty bandwidth 5 9 0 10
-261682 -1 -1 12700 0;
#X obj 1472 205 ggee/equalizer 5000 70 8;
#X obj 1821 238 filterview;
#X floatatom 1821 139 0 0 0 0 - - -;
#X floatatom 1882 139 0 0 0 0 - - -;
#X obj 1882 162 trigger bang float;
#X obj 1824 94 hsl 128 17 20 20000 1 1 empty empty frequency 5 9 0
10 -203904 -1 -1 6343 0;
#X obj 1885 117 hsl 128 17 -100 100 0 1 empty empty gain 5 9 0 10 -204786
-1 -1 7000 0;
#X floatatom 2022 139 0 0 0 0 - - -;
#X obj 2022 162 trigger bang float;
#X obj 2025 117 hsl 128 17 0 100 0 1 empty empty bandwidth 5 9 0 10
-261682 -1 -1 12700 0;
#X obj 1821 205 ggee/equalizer 5000 70 8;
#X obj 1625 65 inlet;
#X obj 1960 60 inlet;
#X obj 1673 72 loadbang;
#X msg 1673 95 100;
#X obj 2170 238 filterview;
#X floatatom 2170 139 0 0 0 0 - - -;
#X floatatom 2231 139 0 0 0 0 - - -;
#X obj 2231 162 trigger bang float;
#X obj 2173 94 hsl 128 17 20 20000 1 1 empty empty frequency 5 9 0
10 -203904 -1 -1 6782 0;
#X obj 2234 117 hsl 128 17 -100 100 0 1 empty empty gain 5 9 0 10 -204786
-1 -1 5800 0;
#X floatatom 2371 139 0 0 0 0 - - -;
#X obj 2371 162 trigger bang float;
#X obj 2374 117 hsl 128 17 0 100 0 1 empty empty bandwidth 5 9 0 10
-261682 -1 -1 12700 0;
#X obj 2170 205 ggee/equalizer 5000 70 8;
#X obj 2519 238 filterview;
#X floatatom 2519 139 0 0 0 0 - - -;
#X floatatom 2580 139 0 0 0 0 - - -;
#X obj 2580 162 trigger bang float;
#X obj 2522 94 hsl 128 17 20 20000 1 1 empty empty frequency 5 9 0
10 -203904 -1 -1 7192 0;
#X obj 2583 117 hsl 128 17 -100 100 0 1 empty empty gain 5 9 0 10 -204786
-1 -1 6900 0;
#X floatatom 2720 139 0 0 0 0 - - -;
#X obj 2720 162 trigger bang float;
#X obj 2723 117 hsl 128 17 0 100 0 1 empty empty bandwidth 5 9 0 10
-261682 -1 -1 12700 0;
#X obj 2519 205 ggee/equalizer 5000 70 8;
#X obj 2323 65 inlet;
#X obj 2658 60 inlet;
#X obj 2371 72 loadbang;
#X msg 2371 95 100;
#X obj 773 65 r \$0-b3;
#X obj 1122 62 r \$0-b4;
#X obj 1472 67 r \$0-b5;
#X obj 1821 64 r \$0-b6;
#X obj 2170 67 r \$0-b7;
#X obj 2519 64 r \$0-b8;
#X obj 2866 239 filterview;
#X floatatom 2866 140 0 0 0 0 - - -;
#X floatatom 2927 140 0 0 0 0 - - -;
#X obj 2927 163 trigger bang float;
#X obj 2869 95 hsl 128 17 20 20000 1 1 empty empty frequency 5 9 0
10 -203904 -1 -1 7603 0;
#X obj 2930 118 hsl 128 17 -100 100 0 1 empty empty gain 5 9 0 10 -204786
-1 -1 6500 0;
#X floatatom 3067 140 0 0 0 0 - - -;
#X obj 3067 163 trigger bang float;
#X obj 3070 118 hsl 128 17 0 100 0 1 empty empty bandwidth 5 9 0 10
-261682 -1 -1 12700 0;
#X obj 2866 206 ggee/equalizer 5000 70 8;
#X obj 3215 239 filterview;
#X floatatom 3215 140 0 0 0 0 - - -;
#X floatatom 3276 140 0 0 0 0 - - -;
#X obj 3276 163 trigger bang float;
#X obj 3218 95 hsl 128 17 20 20000 1 1 empty empty frequency 5 9 0
10 -203904 -1 -1 8056 0;
#X obj 3279 118 hsl 128 17 -100 100 0 1 empty empty gain 5 9 0 10 -204786
-1 -1 6400 0;
#X floatatom 3416 140 0 0 0 0 - - -;
#X obj 3416 163 trigger bang float;
#X obj 3419 118 hsl 128 17 0 100 0 1 empty empty bandwidth 5 9 0 10
-261682 -1 -1 12700 0;
#X obj 3215 206 ggee/equalizer 5000 70 8;
#X obj 3019 66 inlet;
#X obj 3354 61 inlet;
#X obj 3067 73 loadbang;
#X msg 3067 96 100;
#X obj 2866 68 r \$0-b9;
#X obj 3215 65 r \$0-b10;
#X obj 626 70 loadbang;
#X msg 626 93 100;
#X obj 772 481 biquad~;
#X obj 1122 491 biquad~;
#X obj 1472 521 biquad~;
#X obj 1821 531 biquad~;
#X obj 2170 548 biquad~;
#X obj 2520 557 biquad~;
#X obj 2867 577 biquad~;
#X obj 3215 593 biquad~;
#X obj 3233 723 outlet~;
#X obj 1323 68 loadbang;
#X msg 1323 91 100;
#X obj 2022 68 loadbang;
#X msg 2022 91 100;
#X obj 2720 68 loadbang;
#X msg 2720 91 100;
#X obj 3416 71 loadbang;
#X msg 3416 94 100;
#X obj 632 622 loadbang;
#X connect 0 0 11 0;
#X connect 1 0 0 0;
#X connect 2 0 10 0;
#X connect 3 0 4 0;
#X connect 4 0 10 0;
#X connect 4 1 10 1;
#X connect 5 0 2 0;
#X connect 6 0 3 0;
#X connect 7 0 8 0;
#X connect 8 0 10 0;
#X connect 8 1 10 2;
#X connect 9 0 7 0;
#X connect 10 0 1 0;
#X connect 11 0 147 0;
#X connect 12 0 11 0;
#X connect 13 0 21 0;
#X connect 14 0 15 0;
#X connect 15 0 21 0;
#X connect 15 1 21 1;
#X connect 16 0 13 0;
#X connect 17 0 14 0;
#X connect 18 0 19 0;
#X connect 19 0 21 0;
#X connect 19 1 21 2;
#X connect 20 0 18 0;
#X connect 21 0 12 0;
#X connect 22 0 23 0;
#X connect 23 0 24 0;
#X connect 23 1 26 0;
#X connect 23 2 27 0;
#X connect 23 3 28 0;
#X connect 23 4 29 0;
#X connect 23 5 30 0;
#X connect 23 6 31 0;
#X connect 23 7 32 0;
#X connect 23 8 33 0;
#X connect 23 9 34 0;
#X connect 25 0 5 0;
#X connect 35 0 16 0;
#X connect 36 0 6 0;
#X connect 37 0 0 0;
#X connect 38 0 17 0;
#X connect 39 0 40 0;
#X connect 40 0 9 0;
#X connect 41 0 147 0;
#X connect 42 0 50 0;
#X connect 43 0 44 0;
#X connect 44 0 50 0;
#X connect 44 1 50 1;
#X connect 45 0 42 0;
#X connect 46 0 43 0;
#X connect 47 0 48 0;
#X connect 48 0 50 0;
#X connect 48 1 50 2;
#X connect 49 0 47 0;
#X connect 50 0 41 0;
#X connect 51 0 148 0;
#X connect 52 0 60 0;
#X connect 53 0 54 0;
#X connect 54 0 60 0;
#X connect 54 1 60 1;
#X connect 55 0 52 0;
#X connect 56 0 53 0;
#X connect 57 0 58 0;
#X connect 58 0 60 0;
#X connect 58 1 60 2;
#X connect 59 0 57 0;
#X connect 60 0 51 0;
#X connect 61 0 46 0;
#X connect 62 0 56 0;
#X connect 63 0 64 0;
#X connect 64 0 49 0;
#X connect 65 0 149 0;
#X connect 66 0 74 0;
#X connect 67 0 68 0;
#X connect 68 0 74 0;
#X connect 68 1 74 1;
#X connect 69 0 66 0;
#X connect 70 0 67 0;
#X connect 71 0 72 0;
#X connect 72 0 74 0;
#X connect 72 1 74 2;
#X connect 73 0 71 0;
#X connect 74 0 65 0;
#X connect 75 0 150 0;
#X connect 76 0 84 0;
#X connect 77 0 78 0;
#X connect 78 0 84 0;
#X connect 78 1 84 1;
#X connect 79 0 76 0;
#X connect 80 0 77 0;
#X connect 81 0 82 0;
#X connect 82 0 84 0;
#X connect 82 1 84 2;
#X connect 83 0 81 0;
#X connect 84 0 75 0;
#X connect 85 0 70 0;
#X connect 86 0 80 0;
#X connect 87 0 88 0;
#X connect 88 0 73 0;
#X connect 89 0 151 0;
#X connect 90 0 98 0;
#X connect 91 0 92 0;
#X connect 92 0 98 0;
#X connect 92 1 98 1;
#X connect 93 0 90 0;
#X connect 94 0 91 0;
#X connect 95 0 96 0;
#X connect 96 0 98 0;
#X connect 96 1 98 2;
#X connect 97 0 95 0;
#X connect 98 0 89 0;
#X connect 99 0 152 0;
#X connect 100 0 108 0;
#X connect 101 0 102 0;
#X connect 102 0 108 0;
#X connect 102 1 108 1;
#X connect 103 0 100 0;
#X connect 104 0 101 0;
#X connect 105 0 106 0;
#X connect 106 0 108 0;
#X connect 106 1 108 2;
#X connect 107 0 105 0;
#X connect 108 0 99 0;
#X connect 109 0 94 0;
#X connect 110 0 104 0;
#X connect 111 0 112 0;
#X connect 112 0 97 0;
#X connect 113 0 45 0;
#X connect 114 0 55 0;
#X connect 115 0 69 0;
#X connect 116 0 79 0;
#X connect 117 0 93 0;
#X connect 118 0 103 0;
#X connect 119 0 153 0;
#X connect 120 0 128 0;
#X connect 121 0 122 0;
#X connect 122 0 128 0;
#X connect 122 1 128 1;
#X connect 123 0 120 0;
#X connect 124 0 121 0;
#X connect 125 0 126 0;
#X connect 126 0 128 0;
#X connect 126 1 128 2;
#X connect 127 0 125 0;
#X connect 128 0 119 0;
#X connect 129 0 154 0;
#X connect 130 0 138 0;
#X connect 131 0 132 0;
#X connect 132 0 138 0;
#X connect 132 1 138 1;
#X connect 133 0 130 0;
#X connect 134 0 131 0;
#X connect 135 0 136 0;
#X connect 136 0 138 0;
#X connect 136 1 138 2;
#X connect 137 0 135 0;
#X connect 138 0 129 0;
#X connect 139 0 124 0;
#X connect 140 0 134 0;
#X connect 141 0 142 0;
#X connect 142 0 127 0;
#X connect 143 0 123 0;
#X connect 144 0 133 0;
#X connect 145 0 146 0;
#X connect 146 0 20 0;
#X connect 147 0 148 0;
#X connect 148 0 149 0;
#X connect 149 0 150 0;
#X connect 150 0 151 0;
#X connect 151 0 152 0;
#X connect 152 0 153 0;
#X connect 153 0 154 0;
#X connect 154 0 155 0;
#X connect 156 0 157 0;
#X connect 157 0 59 0;
#X connect 158 0 159 0;
#X connect 159 0 83 0;
#X connect 160 0 161 0;
#X connect 161 0 107 0;
#X connect 162 0 163 0;
#X connect 163 0 137 0;
#X connect 164 0 22 0;
