#N canvas 124 39 1586 955 10;
#X obj 776 44 bng 15 250 50 0 empty empty empty 17 7 0 10 -262144 -1
-1;
#X obj 776 87 bng 15 250 50 0 empty empty empty 17 7 0 10 -262144 -1
-1;
#X obj 776 14 loadbang;
#X obj 776 65 audio_tables_loader;
#X obj 986 453 elooper~;
#X obj 433 39 tgl 15 0 empty empty empty 17 7 0 10 -262144 -1 -1 1
1;
#X floatatom 488 116 0 0 0 0 - - -;
#X floatatom 460 116 0 0 0 0 - - -;
#X floatatom 433 115 0 0 0 0 - - -;
#X floatatom 514 116 0 0 0 0 - - -;
#X obj 433 214 bng 15 250 50 0 empty empty empty 17 7 0 10 -262144
-1 -1;
#X text 454 214 noonbang;
#X obj 433 14 loadbang;
#X obj 32 593 bng 15 250 50 0 empty empty empty 17 7 0 10 -262144 -1
-1;
#X obj 100 446 hsl 128 15 0 1 0 0 empty empty empty -2 -8 0 10 -262144
-1 -1 0 1;
#X obj 95 372 line;
#X obj 95 227 bng 15 250 50 0 empty empty empty 17 7 0 10 -262144 -1
-1;
#X obj 1002 641 dac~ 1 2 3 4 5 6 7 8 9 10;
#X obj 1026 357 line;
#X obj 1026 288 bng 15 250 50 0 empty empty empty 17 7 0 10 -262144
-1 -1;
#X msg 971 419 oneshot;
#X obj 1092 490 hsl 128 15 0 1 0 0 empty empty empty -2 -8 0 10 -262144
-1 -1 0 1;
#X obj 1099 536 hsl 128 15 0 1 0 0 empty empty empty -2 -8 0 10 -262144
-1 -1 12700 1;
#X obj 1044 559 linear_panner_5ch~;
#X obj 1092 896 dac~ 11 12 13 14 15;
#X obj 1045 680 gain~;
#X obj 1100 680 gain~;
#X obj 1150 680 gain~;
#X obj 1199 680 gain~;
#X obj 1247 680 gain~;
#X obj 1234 369 line;
#X obj 1234 276 bng 15 250 50 0 empty empty empty 17 7 0 10 -262144
-1 -1;
#X obj 1096 514 r pan;
#X obj 1024 198 bng 15 250 50 0 empty empty empty 17 7 0 10 -262144
-1 -1;
#X obj 1306 606 loadbang;
#X text 203 52 mic masking;
#X obj 433 61 metro 1000;
#X obj 23 468 t b b;
#X obj 433 144 change;
#X obj 268 835 hsl 128 15 0 1 0 0 empty empty empty -2 -8 0 10 -262144
-1 -1 0 1;
#X obj 265 756 line;
#X obj 265 619 bng 15 250 50 0 empty empty empty 17 7 0 10 -262144
-1 -1;
#X obj 265 780 s shuffle_fade;
#X obj 265 805 r shuffle_fade;
#X obj 447 792 bng 15 250 50 0 empty empty empty 17 7 0 10 -262144
-1 -1;
#X obj 629 825 hsl 128 15 0 1 0 0 empty empty empty -2 -8 0 10 -262144
-1 -1 0 1;
#X obj 628 736 line;
#X msg 628 665 1 10000;
#X obj 1234 393 s passfade;
#X obj 1089 463 r passfade;
#X obj 1026 381 s pan;
#X obj 1050 8 loadbang;
#X msg 1050 38 all -100;
#X text 1113 38 aux in for music;
#X obj 823 197 swoosh;
#X obj 823 229 gain~;
#X obj 821 163 bng 15 250 50 0 empty empty empty 17 7 0 10 -262144
-1 -1;
#X obj 880 138 loadbang;
#N canvas 149 232 909 484 midi_control 0;
#X obj 133 234 outlet;
#X obj 406 233 outlet;
#X obj 715 232 outlet;
#X text 53 22 south zone;
#X text 365 25 center zone;
#X text 669 22 north zone;
#X obj 80 350 hsl 128 15 0 127 0 0 empty empty empty -2 -8 0 10 -262144
-1 -1 0 1;
#X obj 357 318 hsl 128 15 0 127 0 0 empty empty empty -2 -8 0 10 -262144
-1 -1 0 1;
#X obj 667 334 hsl 128 15 0 127 0 0 empty empty empty -2 -8 0 10 -262144
-1 -1 0 1;
#X obj 48 54 ctlin 1;
#X obj 363 52 ctlin 2;
#X obj 670 52 ctlin 3;
#X msg 70 126 0 \$1;
#X msg 83 153 1 \$1;
#X msg 106 126 2 \$1;
#X msg 121 153 3 \$1;
#X msg 162 153 10 \$1;
#X msg 185 126 11 \$1;
#X msg 460 128 12 \$1;
#X msg 774 163 13 \$1;
#X msg 728 127 8 \$1;
#X msg 768 127 9 \$1;
#X msg 705 155 14 \$1;
#X msg 382 129 5 \$1;
#X msg 419 129 6 \$1;
#X msg 147 126 4 \$1;
#X msg 692 127 7 \$1;
#X obj 47 85 jrange 0 127 -60 -10;
#X obj 360 87 jrange 0 127 -60 -10;
#X obj 669 86 jrange 0 127 -60 -10;
#X connect 9 0 6 0;
#X connect 9 0 27 0;
#X connect 10 0 7 0;
#X connect 10 0 28 0;
#X connect 11 0 8 0;
#X connect 11 0 29 0;
#X connect 12 0 0 0;
#X connect 13 0 0 0;
#X connect 14 0 0 0;
#X connect 15 0 0 0;
#X connect 16 0 0 0;
#X connect 17 0 0 0;
#X connect 18 0 1 0;
#X connect 19 0 2 0;
#X connect 20 0 2 0;
#X connect 21 0 2 0;
#X connect 22 0 2 0;
#X connect 23 0 1 0;
#X connect 24 0 1 0;
#X connect 25 0 0 0;
#X connect 26 0 2 0;
#X connect 27 0 12 0;
#X connect 27 0 14 0;
#X connect 27 0 25 0;
#X connect 27 0 17 0;
#X connect 27 0 13 0;
#X connect 27 0 15 0;
#X connect 27 0 16 0;
#X connect 28 0 24 0;
#X connect 28 0 18 0;
#X connect 28 0 23 0;
#X connect 29 0 26 0;
#X connect 29 0 20 0;
#X connect 29 0 21 0;
#X connect 29 0 22 0;
#X connect 29 0 19 0;
#X restore 939 26 pd midi_control;
#X msg 705 116 \; pd dsp 1;
#X obj 628 760 s shuffle_bed_fade;
#X obj 626 795 r shuffle_bed_fade;
#X msg 1307 638 0;
#X msg 303 855 all \$1;
#X msg 21 813 all oneshot;
#X obj 629 622 bng 15 250 50 0 empty empty empty 17 7 0 10 -262144
-1 -1;
#X obj 1126 154 bng 15 250 50 0 empty empty empty 17 7 0 10 -262144
-1 -1;
#X text 1147 156 pass swoosh;
#X obj 453 567 bng 15 250 50 0 empty empty empty 17 7 0 10 -262144
-1 -1;
#X msg 112 125 all -99;
#X obj 1026 235 delay 2000;
#X msg 1234 298 1 3000;
#X obj 1292 298 delay 3000;
#X obj 153 301 delay 6000;
#X msg 95 301 1 6000;
#X msg 153 329 0 4000;
#X msg 1292 326 0 4000;
#X obj 323 685 delay 5000;
#X obj 686 665 delay 5000;
#X msg 686 693 0 3000;
#X msg 323 713 0 3000;
#X obj 265 645 delay 2000;
#X msg 113 816 all shuffle2_weave_ch;
#X msg 485 787 shuffle2_bed_L;
#X msg 506 810 shuffle2_bed_R;
#X msg 53 572 pan4_bed_L;
#X msg 75 598 pan4_bed_L;
#X msg 1034 420 pan4_pass;
#X obj 202 102 masker_router;
#X obj 433 327 sound_loader;
#X obj 95 197 r pan_trig;
#X obj 16 402 r pan_trig;
#X obj 95 396 s pan_bed_fade;
#X obj 97 419 r pan_bed_fade;
#X obj 78 502 list prepend set;
#X obj 78 528 list trim;
#X obj 78 478 r pan_bed_L_table;
#X obj 433 355 print;
#X obj 194 503 list prepend set;
#X obj 194 529 list trim;
#X obj 194 479 r pan_bed_R_table;
#X obj 1102 333 list prepend set;
#X obj 1102 359 list trim;
#X obj 1102 309 r pan_pass_table;
#X obj 1025 145 r pan_trig;
#X obj 764 710 list prepend set;
#X obj 764 736 list trim;
#X obj 828 764 list prepend set;
#X obj 828 790 list trim;
#X obj 764 686 r shuffle_bed_L_table;
#X obj 828 740 r shuffle_bed_R_table;
#X obj 104 742 list trim;
#X obj 104 716 list prepend set all;
#X obj 104 692 r shuffle_weave_table;
#X obj 453 540 r shuffle_trig;
#X obj 453 588 t b b;
#X obj 1125 129 r swoosh_trig;
#X obj 1125 183 delay 4000;
#X msg 1026 326 1 6000;
#X msg 998 308 0;
#X obj 1050 93 send noise_ducking;
#X obj 433 188 select 12;
#X msg 265 685 1 200;
#X obj 86 25 zexy;
#X obj 433 89 time, f 14;
#X msg 57 128 all -38;
#X obj 987 485 *~ 0.1;
#X obj 1230 219 line;
#X obj 1230 243 s passfade;
#X msg 1230 148 1 500;
#X obj 1288 148 delay 10000;
#X msg 1288 176 0 2000;
#X obj 468 850 bed_player~;
#X obj 157 594 r pan_bed_vol;
#X obj 615 871 r shuffle_bed_vol;
#X obj 844 445 gain~;
#X obj 893 385 loadbang;
#X msg 894 410 - 25;
#X obj 878 353 r pass_vol;
#X obj 36 625 bed_player~;
#X obj 113 888 clone shuffle_player~ 15;
#X obj 336 880 r shuffle_weave_vol;
#X msg 344 905 all \$1;
#X floatatom 400 316 5 0 0 0 - - -, f 5;
#X obj 202 72 clone masker~ 6;
#X obj 45 163 clone noise_channel~ 15;
#X msg 880 172 -4;
#X obj 433 275 urn-jb 13;
#X obj 433 245 spigot;
#X obj 493 246 tgl 15 0 empty empty empty 17 7 0 10 -262144 -1 -1 1
1;
#X obj 550 194 r noise_ducking;
#X obj 1051 66 clone aux_in_channel~ 15;
#X obj 550 218 unpack f f;
#X obj 548 245 sel 0.75 1;
#X msg 546 270 0;
#X msg 579 270 1;
#X obj 620 246 loadbang;
#X connect 0 0 3 0;
#X connect 1 0 59 0;
#X connect 2 0 0 0;
#X connect 3 0 1 0;
#X connect 4 0 126 0;
#X connect 5 0 36 0;
#X connect 8 0 38 0;
#X connect 10 0 148 0;
#X connect 12 0 5 0;
#X connect 13 0 139 0;
#X connect 14 0 139 3;
#X connect 15 0 92 0;
#X connect 16 0 73 0;
#X connect 16 0 74 0;
#X connect 18 0 50 0;
#X connect 19 0 118 0;
#X connect 20 0 4 0;
#X connect 21 0 126 1;
#X connect 22 0 23 1;
#X connect 23 0 17 0;
#X connect 23 0 17 1;
#X connect 23 0 25 0;
#X connect 23 1 17 2;
#X connect 23 1 17 3;
#X connect 23 1 26 0;
#X connect 23 2 17 4;
#X connect 23 2 17 5;
#X connect 23 2 27 0;
#X connect 23 3 17 6;
#X connect 23 3 17 7;
#X connect 23 3 28 0;
#X connect 23 4 17 8;
#X connect 23 4 17 9;
#X connect 23 4 29 0;
#X connect 25 0 24 0;
#X connect 26 0 24 1;
#X connect 27 0 24 2;
#X connect 28 0 24 3;
#X connect 29 0 24 4;
#X connect 30 0 48 0;
#X connect 31 0 71 0;
#X connect 31 0 72 0;
#X connect 32 0 22 0;
#X connect 33 0 70 0;
#X connect 33 0 87 0;
#X connect 33 0 119 0;
#X connect 34 0 62 0;
#X connect 36 0 124 0;
#X connect 37 0 13 0;
#X connect 37 1 85 0;
#X connect 37 1 86 0;
#X connect 38 0 121 0;
#X connect 39 0 63 0;
#X connect 40 0 42 0;
#X connect 41 0 81 0;
#X connect 43 0 39 0;
#X connect 44 0 132 0;
#X connect 45 0 132 3;
#X connect 46 0 60 0;
#X connect 47 0 46 0;
#X connect 49 0 21 0;
#X connect 51 0 52 0;
#X connect 52 0 151 0;
#X connect 54 0 55 0;
#X connect 55 0 126 0;
#X connect 56 0 54 0;
#X connect 57 0 146 0;
#X connect 58 0 151 0;
#X connect 58 1 151 0;
#X connect 58 2 151 0;
#X connect 61 0 45 0;
#X connect 62 0 29 1;
#X connect 62 0 28 1;
#X connect 62 0 27 1;
#X connect 62 0 26 1;
#X connect 62 0 25 1;
#X connect 63 0 140 2;
#X connect 64 0 140 0;
#X connect 65 0 47 0;
#X connect 65 0 44 0;
#X connect 65 0 78 0;
#X connect 66 0 56 0;
#X connect 66 0 117 0;
#X connect 66 0 119 0;
#X connect 66 0 129 0;
#X connect 66 0 130 0;
#X connect 68 0 115 0;
#X connect 69 0 145 0;
#X connect 70 0 19 0;
#X connect 70 0 31 0;
#X connect 70 0 20 0;
#X connect 71 0 30 0;
#X connect 72 0 76 0;
#X connect 73 0 75 0;
#X connect 74 0 15 0;
#X connect 75 0 15 0;
#X connect 76 0 30 0;
#X connect 77 0 80 0;
#X connect 78 0 79 0;
#X connect 79 0 46 0;
#X connect 80 0 40 0;
#X connect 81 0 122 0;
#X connect 81 0 77 0;
#X connect 81 0 64 0;
#X connect 82 0 140 1;
#X connect 83 0 132 1;
#X connect 84 0 132 2;
#X connect 85 0 139 1;
#X connect 86 0 139 2;
#X connect 87 0 4 2;
#X connect 88 0 145 0;
#X connect 89 0 97 0;
#X connect 90 0 16 0;
#X connect 91 0 37 0;
#X connect 93 0 14 0;
#X connect 94 0 95 0;
#X connect 95 0 85 0;
#X connect 96 0 94 0;
#X connect 98 0 99 0;
#X connect 99 0 86 0;
#X connect 100 0 98 0;
#X connect 101 0 102 0;
#X connect 102 0 87 0;
#X connect 103 0 101 0;
#X connect 104 0 33 0;
#X connect 105 0 106 0;
#X connect 106 0 83 0;
#X connect 107 0 108 0;
#X connect 108 0 84 0;
#X connect 109 0 105 0;
#X connect 110 0 107 0;
#X connect 111 0 82 0;
#X connect 112 0 111 0;
#X connect 113 0 112 0;
#X connect 114 0 68 0;
#X connect 115 0 65 0;
#X connect 115 0 41 0;
#X connect 115 1 83 0;
#X connect 115 1 84 0;
#X connect 115 1 82 0;
#X connect 116 0 66 0;
#X connect 117 0 19 0;
#X connect 118 0 18 0;
#X connect 119 0 18 0;
#X connect 121 0 10 0;
#X connect 122 0 40 0;
#X connect 124 0 8 0;
#X connect 124 1 7 0;
#X connect 124 2 6 0;
#X connect 124 3 9 0;
#X connect 125 0 145 0;
#X connect 126 0 135 0;
#X connect 127 0 128 0;
#X connect 129 0 127 0;
#X connect 130 0 131 0;
#X connect 131 0 127 0;
#X connect 133 0 139 4;
#X connect 134 0 132 4;
#X connect 135 0 23 0;
#X connect 136 0 137 0;
#X connect 137 0 135 1;
#X connect 138 0 135 1;
#X connect 141 0 142 0;
#X connect 142 0 140 3;
#X connect 144 0 88 0;
#X connect 146 0 55 1;
#X connect 147 0 143 0;
#X connect 147 0 89 0;
#X connect 148 0 147 0;
#X connect 149 0 148 1;
#X connect 150 0 152 0;
#X connect 151 0 120 0;
#X connect 152 1 153 0;
#X connect 153 0 154 0;
#X connect 153 1 155 0;
#X connect 154 0 149 0;
#X connect 155 0 149 0;
#X connect 156 0 155 0;
