#N canvas 273 60 1377 962 10;
#X obj 776 44 bng 15 250 50 0 empty empty empty 17 7 0 10 -262144 -1
-1;
#X obj 776 87 bng 15 250 50 0 empty empty empty 17 7 0 10 -262144 -1
-1;
#X obj 776 114 s loaded;
#X obj 776 14 loadbang;
#X obj 776 65 audio_tables_loader;
#X obj 881 445 elooper~;
#X obj 36 11 zexy;
#X obj 433 39 tgl 15 0 empty empty empty 17 7 0 10 -262144 -1 -1 1
1;
#X floatatom 488 134 0 0 0 0 - - -;
#X floatatom 460 134 0 0 0 0 - - -;
#X floatatom 433 133 0 0 0 0 - - -;
#X floatatom 514 134 0 0 0 0 - - -;
#X obj 433 89 time, f 14;
#X obj 433 188 select 12;
#X obj 433 214 bng 15 250 50 0 empty empty empty 17 7 0 10 -262144
-1 -1;
#X text 454 214 noonbang;
#X obj 433 14 loadbang;
#X obj 24 479 bng 15 250 50 0 empty empty empty 17 7 0 10 -262144 -1
-1;
#X obj 113 508 hsl 128 15 0 1 0 0 empty empty empty -2 -8 0 10 -262144
-1 -1 0 1;
#X obj 112 419 line;
#X obj 112 282 bng 15 250 50 0 empty empty empty 17 7 0 10 -262144
-1 -1;
#X msg 112 348 1 10000;
#X obj 170 348 delay 10000;
#X msg 170 376 0 6000;
#X obj 29 538 bed_player~;
#X msg 60 463 pad;
#X obj 897 633 dac~ 1 2 3 4 5 6 7 8 9 10;
#X obj 921 349 line;
#X obj 921 280 bng 15 250 50 0 empty empty empty 17 7 0 10 -262144
-1 -1;
#X obj 881 506 *~;
#X msg 866 411 oneshot;
#X msg 929 412 flapping-bird;
#X obj 881 476 *~ 5;
#X obj 987 482 hsl 128 15 0 1 0 0 empty empty empty -2 -8 0 10 -262144
-1 -1 12700 1;
#X obj 994 528 hsl 128 15 0 1 0 0 empty empty empty -2 -8 0 10 -262144
-1 -1 12700 1;
#X obj 939 551 linear_panner_5ch~;
#X obj 987 888 dac~ 11 12 13 14 15;
#X obj 946 672 gain~;
#X obj 995 672 gain~;
#X obj 1045 672 gain~;
#X obj 1094 672 gain~;
#X obj 1142 672 gain~;
#X msg 1201 630 -20;
#X obj 921 373 s pan;
#X obj 112 443 s bedfade;
#X obj 1076 352 line;
#X obj 1076 259 bng 15 250 50 0 empty empty empty 17 7 0 10 -262144
-1 -1;
#X obj 1076 376 s flyingfade;
#X obj 984 455 r flyingfade;
#X obj 991 506 r pan;
#X msg 1076 281 1 1000;
#X msg 1134 309 0 500;
#X obj 110 478 r bedfade;
#X obj 1134 281 delay 14000;
#X msg 921 318 0 \, 1 5000;
#X obj 921 227 delay 4000;
#X msg 160 816 all bang;
#X msg 253 817 all arp;
#X obj 343 696 bng 15 250 50 0 empty empty empty 17 7 0 10 -262144
-1 -1;
#X obj 343 756 random 15;
#X obj 343 816 pack f f;
#X obj 343 725 t b b;
#X obj 184 866 clone dispersion_player~ 15;
#X obj 343 672 metro 500;
#X obj 343 644 tgl 15 0 empty empty empty 17 7 0 10 -262144 -1 -1 0
1;
#X obj 412 778 / 100;
#X obj 412 755 random 100;
#X obj 921 193 bng 15 250 50 0 empty empty empty 17 7 0 10 -262144
-1 -1;
#X obj 343 541 bng 15 250 50 0 empty empty empty 17 7 0 10 -262144
-1 -1;
#X msg 343 576 1;
#X obj 374 576 delay 16000;
#X msg 374 625 0;
#X obj 374 601 t b b;
#X msg 416 656 all 0;
#X obj 179 735 r loaded;
#X obj 179 766 t b b;
#X obj 52 402 r loaded;
#X obj 963 382 r loaded;
#X obj 1201 598 loadbang;
#X msg 36 109 all -20;
#X msg 99 111 all -100;
#X obj 36 76 loadbang;
#X obj 202 97 unpack f f f;
#X obj 235 123 pack f f;
#X text 165 144 first term (instance #) unneeded;
#X text 203 52 mic masking;
#X obj 433 61 metro 1000;
#X obj 52 429 t b b;
#X text 455 706 instead of random stuff - use 10 mono sound players
and behavior like bed;
#X text 25 199 undertone players - 5 minute crossfades to new sounds
;
#X text 27 227 texture players - same exact behavior as undertone players
;
#X text 26 250 need to be able to preset volume for each new sound
;
#X obj 459 417 dac~ 1 2;
#X obj 478 303 adc~;
#X obj 453 354 *~ 1;
#X obj 510 353 *~ 1;
#X obj 42 162 clone noise_channel~ 15;
#X obj 293 176 print;
#X obj 202 72 clone masker~ 6;
#X obj 433 162 change;
#X connect 0 0 4 0;
#X connect 1 0 2 0;
#X connect 3 0 0 0;
#X connect 4 0 1 0;
#X connect 5 0 32 0;
#X connect 7 0 86 0;
#X connect 10 0 99 0;
#X connect 12 0 10 0;
#X connect 12 1 9 0;
#X connect 12 2 8 0;
#X connect 12 3 11 0;
#X connect 13 0 14 0;
#X connect 14 0 20 0;
#X connect 14 0 67 0;
#X connect 16 0 7 0;
#X connect 17 0 24 0;
#X connect 18 0 24 3;
#X connect 19 0 44 0;
#X connect 20 0 21 0;
#X connect 20 0 22 0;
#X connect 21 0 19 0;
#X connect 22 0 23 0;
#X connect 23 0 19 0;
#X connect 25 0 24 1;
#X connect 25 0 24 2;
#X connect 27 0 43 0;
#X connect 28 0 54 0;
#X connect 29 0 35 0;
#X connect 30 0 5 0;
#X connect 31 0 5 2;
#X connect 32 0 29 0;
#X connect 33 0 29 1;
#X connect 34 0 35 1;
#X connect 35 0 26 0;
#X connect 35 0 26 1;
#X connect 35 0 37 0;
#X connect 35 1 26 2;
#X connect 35 1 26 3;
#X connect 35 1 38 0;
#X connect 35 2 26 4;
#X connect 35 2 26 5;
#X connect 35 2 39 0;
#X connect 35 3 26 6;
#X connect 35 3 26 7;
#X connect 35 3 40 0;
#X connect 35 4 26 8;
#X connect 35 4 26 9;
#X connect 35 4 41 0;
#X connect 37 0 36 0;
#X connect 38 0 36 1;
#X connect 39 0 36 2;
#X connect 40 0 36 3;
#X connect 41 0 36 4;
#X connect 42 0 41 1;
#X connect 42 0 40 1;
#X connect 42 0 39 1;
#X connect 42 0 38 1;
#X connect 42 0 37 1;
#X connect 45 0 47 0;
#X connect 46 0 50 0;
#X connect 46 0 53 0;
#X connect 48 0 33 0;
#X connect 49 0 34 0;
#X connect 50 0 45 0;
#X connect 51 0 45 0;
#X connect 52 0 18 0;
#X connect 53 0 51 0;
#X connect 54 0 27 0;
#X connect 55 0 28 0;
#X connect 55 0 46 0;
#X connect 55 0 30 0;
#X connect 56 0 62 0;
#X connect 57 0 62 1;
#X connect 57 0 62 2;
#X connect 58 0 61 0;
#X connect 59 0 60 0;
#X connect 60 0 62 3;
#X connect 61 0 59 0;
#X connect 61 1 66 0;
#X connect 63 0 58 0;
#X connect 64 0 63 0;
#X connect 65 0 60 1;
#X connect 66 0 65 0;
#X connect 67 0 55 0;
#X connect 68 0 70 0;
#X connect 68 0 69 0;
#X connect 69 0 64 0;
#X connect 70 0 72 0;
#X connect 71 0 64 0;
#X connect 72 0 71 0;
#X connect 72 1 73 0;
#X connect 73 0 62 3;
#X connect 74 0 75 0;
#X connect 75 0 56 0;
#X connect 75 1 57 0;
#X connect 76 0 87 0;
#X connect 77 0 31 0;
#X connect 78 0 42 0;
#X connect 79 0 96 0;
#X connect 80 0 96 0;
#X connect 81 0 79 0;
#X connect 82 1 83 0;
#X connect 82 2 83 1;
#X connect 83 0 96 0;
#X connect 83 0 97 0;
#X connect 86 0 12 0;
#X connect 87 0 17 0;
#X connect 87 1 25 0;
#X connect 93 0 94 0;
#X connect 93 1 95 0;
#X connect 98 0 82 0;
#X connect 99 0 13 0;
