#N canvas 282 23 1553 930 10;
#X obj 776 44 bng 15 250 50 0 empty empty empty 17 7 0 10 -262144 -1
-1;
#X obj 776 87 bng 15 250 50 0 empty empty empty 17 7 0 10 -262144 -1
-1;
#X obj 776 114 s loaded;
#X obj 776 14 loadbang;
#X obj 776 65 audio_tables_loader;
#X obj 986 453 elooper~;
#X obj 36 11 zexy;
#X obj 433 39 tgl 15 0 empty empty empty 17 7 0 10 -262144 -1 -1 1
1;
#X floatatom 488 134 0 0 0 0 - - -;
#X floatatom 460 134 0 0 0 0 - - -;
#X floatatom 433 133 0 0 0 0 - - -;
#X floatatom 514 134 0 0 0 0 - - -;
#X obj 433 89 time, f 14;
#X obj 433 188 select 12;
#X obj 433 214 bng 15 250 50 0 empty empty empty 17 7 0 10 -262144
-1 -1;
#X text 454 214 noonbang;
#X obj 433 14 loadbang;
#X obj 29 532 bng 15 250 50 0 empty empty empty 17 7 0 10 -262144 -1
-1;
#X obj 96 488 hsl 128 15 0 1 0 0 empty empty empty -2 -8 0 10 -262144
-1 -1 0 1;
#X obj 95 372 line;
#X obj 95 227 bng 15 250 50 0 empty empty empty 17 7 0 10 -262144 -1
-1;
#X obj 1002 641 dac~ 1 2 3 4 5 6 7 8 9 10;
#X obj 1026 357 line;
#X obj 1026 288 bng 15 250 50 0 empty empty empty 17 7 0 10 -262144
-1 -1;
#X msg 971 419 oneshot;
#X obj 1092 490 hsl 128 15 0 1 0 0 empty empty empty -2 -8 0 10 -262144
-1 -1 0 1;
#X obj 1099 536 hsl 128 15 0 1 0 0 empty empty empty -2 -8 0 10 -262144
-1 -1 0 1;
#X obj 1044 559 linear_panner_5ch~;
#X obj 1092 896 dac~ 11 12 13 14 15;
#X obj 1045 680 gain~;
#X obj 1100 680 gain~;
#X obj 1150 680 gain~;
#X obj 1199 680 gain~;
#X obj 1247 680 gain~;
#X obj 95 396 s bedfade;
#X obj 1181 360 line;
#X obj 1181 267 bng 15 250 50 0 empty empty empty 17 7 0 10 -262144
-1 -1;
#X obj 1096 514 r pan;
#X obj 93 431 r bedfade;
#X obj 1026 201 bng 15 250 50 0 empty empty empty 17 7 0 10 -262144
-1 -1;
#X obj 85 722 r loaded;
#X obj 23 436 r loaded;
#X obj 1094 399 r loaded;
#X obj 1306 606 loadbang;
#X obj 202 97 unpack f f f;
#X obj 235 123 pack f f;
#X text 165 144 first term (instance #) unneeded;
#X text 203 52 mic masking;
#X obj 433 61 metro 1000;
#X obj 23 468 t b b;
#X obj 433 162 change;
#X obj 268 835 hsl 128 15 0 1 0 0 empty empty empty -2 -8 0 10 -262144
-1 -1 0 1;
#X obj 265 756 line;
#X obj 265 619 bng 15 250 50 0 empty empty empty 17 7 0 10 -262144
-1 -1;
#X text 46 891 15 mono sound players - channel number gets auto-prepended
;
#X obj 265 780 s shuffle_fade;
#X obj 265 805 r shuffle_fade;
#X obj 447 792 bng 15 250 50 0 empty empty empty 17 7 0 10 -262144
-1 -1;
#X obj 629 825 hsl 128 15 0 1 0 0 empty empty empty -2 -8 0 10 -262144
-1 -1 0 1;
#X obj 628 736 line;
#X msg 628 665 1 10000;
#X obj 519 697 r loaded;
#X obj 519 746 t b b;
#X obj 268 534 bng 15 250 50 0 empty empty empty 17 7 0 10 -262144
-1 -1;
#X obj 336 482 hsl 128 15 0 1 0 0 empty empty empty -2 -8 0 10 -262144
-1 -1 0 1;
#X obj 331 432 r bedfade;
#X obj 262 438 r loaded;
#X obj 262 470 t b b;
#X obj 504 533 bng 15 250 50 0 empty empty empty 17 7 0 10 -262144
-1 -1;
#X obj 571 489 hsl 128 15 0 1 0 0 empty empty empty -2 -8 0 10 -262144
-1 -1 0 1;
#X obj 568 459 r bedfade;
#X obj 498 437 r loaded;
#X obj 498 469 t b b;
#X msg 289 513 pan01_bed_b_L;
#X msg 525 512 pan01_bed_c_L;
#X obj 1181 384 s passfade;
#X obj 1089 463 r passfade;
#X obj 1026 381 s pan;
#X obj 1050 8 loadbang;
#X msg 1050 38 all -100;
#X text 1113 38 aux in for music;
#X obj 825 285 swoosh;
#X obj 825 317 gain~;
#X obj 823 251 bng 15 250 50 0 empty empty empty 17 7 0 10 -262144
-1 -1;
#X obj 882 226 loadbang;
#X obj 881 294 line;
#N canvas 239 229 909 484 midi_control 0;
#X obj 133 234 outlet;
#X obj 406 233 outlet;
#X obj 715 232 outlet;
#X text 53 22 south zone;
#X text 365 25 center zone;
#X text 669 22 north zone;
#X obj 80 350 hsl 128 15 0 127 0 0 empty empty empty -2 -8 0 10 -262144
-1 -1 12700 1;
#X obj 357 318 hsl 128 15 0 127 0 0 empty empty empty -2 -8 0 10 -262144
-1 -1 12700 1;
#X obj 667 334 hsl 128 15 0 127 0 0 empty empty empty -2 -8 0 10 -262144
-1 -1 12700 1;
#X obj 48 54 ctlin 1;
#X obj 363 52 ctlin 2;
#X obj 670 52 ctlin 3;
#X msg 70 126 0 \$1;
#X msg 83 153 1 \$1;
#X msg 106 126 2 \$1;
#X msg 121 153 3 \$1;
#X msg 147 126 4 \$1;
#X msg 162 153 10 \$1;
#X msg 185 126 11 \$1;
#X msg 382 129 5 \$1;
#X msg 419 128 6 \$1;
#X msg 460 128 12 \$1;
#X msg 506 131 13 \$1;
#X msg 691 127 7 \$1;
#X msg 728 127 8 \$1;
#X msg 768 127 9 \$1;
#X msg 705 155 14 \$1;
#X obj 47 85 jrange 0 127 -60 -10;
#X obj 360 87 jrange 0 127 -60 -10;
#X obj 669 86 jrange 0 127 -60 -10;
#X connect 9 0 6 0;
#X connect 9 0 27 0;
#X connect 10 0 7 0;
#X connect 10 0 28 0;
#X connect 11 0 8 0;
#X connect 11 0 29 0;
#X connect 12 0 0 0;
#X connect 13 0 0 0;
#X connect 14 0 0 0;
#X connect 15 0 0 0;
#X connect 16 0 0 0;
#X connect 17 0 0 0;
#X connect 18 0 0 0;
#X connect 19 0 1 0;
#X connect 20 0 1 0;
#X connect 21 0 1 0;
#X connect 22 0 1 0;
#X connect 23 0 2 0;
#X connect 24 0 2 0;
#X connect 25 0 2 0;
#X connect 26 0 2 0;
#X connect 27 0 12 0;
#X connect 27 0 14 0;
#X connect 27 0 16 0;
#X connect 27 0 18 0;
#X connect 27 0 13 0;
#X connect 27 0 15 0;
#X connect 27 0 17 0;
#X connect 28 0 19 0;
#X connect 28 0 20 0;
#X connect 28 0 21 0;
#X connect 28 0 22 0;
#X connect 29 0 23 0;
#X connect 29 0 24 0;
#X connect 29 0 25 0;
#X connect 29 0 26 0;
#X restore 939 26 pd midi_control;
#X msg 705 116 \; pd dsp 1;
#X obj 628 760 s shuffle_bed_fade;
#X obj 626 795 r shuffle_bed_fade;
#X msg 311 539 pan01_bed_b_R;
#X msg 548 538 pan01_bed_c_R;
#X msg 1307 638 0;
#X msg 303 855 all \$1;
#X msg 21 813 all oneshot;
#X obj 629 622 bng 15 250 50 0 empty empty empty 17 7 0 10 -262144
-1 -1;
#X obj 1121 155 bng 15 250 50 0 empty empty empty 17 7 0 10 -262144
-1 -1;
#X text 1146 156 pass swoosh;
#X obj 447 602 bng 15 250 50 0 empty empty empty 17 7 0 10 -262144
-1 -1;
#X obj 1051 67 clone aux_in_channel~ 15;
#X msg 57 128 all -33;
#X msg 112 125 all -99;
#X obj 16 402 r trigger;
#X obj 19 265 s trigger;
#X obj 1026 235 delay 2000;
#X msg 1181 289 1 3000;
#X msg 1026 326 0 \, 1 6000;
#X obj 1239 289 delay 3000;
#X obj 153 301 delay 6000;
#X msg 95 301 1 6000;
#X msg 153 329 0 4000;
#X msg 1239 317 0 4000;
#X msg 889 260 0 1000;
#X obj 323 685 delay 5000;
#X obj 686 665 delay 5000;
#X msg 686 693 0 3000;
#X msg 323 713 0 3000;
#X obj 270 645 delay 2000;
#X msg 265 685 1 20;
#X obj 113 865 clone shuffle_player~ 15;
#X obj 714 894 bng 15 250 50 0 empty empty empty 17 7 0 10 -262144
-1 -1;
#X obj 896 927 hsl 128 15 0 1 0 0 empty empty empty -2 -8 0 10 -262144
-1 -1 0 1;
#X obj 895 838 line;
#X msg 895 767 1 10000;
#X obj 786 799 r loaded;
#X obj 786 848 t b b;
#X obj 895 862 s shuffle_bed_fade;
#X obj 893 897 r shuffle_bed_fade;
#X obj 896 724 bng 15 250 50 0 empty empty empty 17 7 0 10 -262144
-1 -1;
#X obj 953 767 delay 5000;
#X msg 953 795 0 3000;
#X msg 113 816 all shuffle04_weave_ch;
#X msg 485 787 shuffle04_bed_a_L;
#X msg 506 810 shuffle04_bed_a_R;
#X msg 752 889 shuffle04_bed_b_L;
#X msg 773 912 shuffle04_bed_b_R;
#X obj 468 850 bed_player~;
#X obj 735 952 bed_player~;
#X obj 33 564 bed_player~;
#X obj 268 567 bed_player~;
#X obj 504 571 bed_player~;
#X obj 987 485 *~ 0.1;
#X msg 50 511 pan03_bed_L;
#X msg 72 537 pan03_bed_R;
#X msg 1034 420 pan03_pass;
#X obj 986 514 *~ 1;
#X obj 44 163 clone noise_channel~ 15;
#X obj 254 171 print;
#X obj 202 72 clone masker~ 6;
#X connect 0 0 4 0;
#X connect 1 0 2 0;
#X connect 1 0 87 0;
#X connect 3 0 0 0;
#X connect 4 0 1 0;
#X connect 5 0 141 0;
#X connect 7 0 48 0;
#X connect 10 0 50 0;
#X connect 12 0 10 0;
#X connect 12 1 9 0;
#X connect 12 2 8 0;
#X connect 12 3 11 0;
#X connect 13 0 14 0;
#X connect 14 0 20 0;
#X connect 14 0 39 0;
#X connect 16 0 7 0;
#X connect 17 0 138 0;
#X connect 18 0 138 3;
#X connect 19 0 34 0;
#X connect 20 0 109 0;
#X connect 20 0 103 0;
#X connect 20 0 108 0;
#X connect 22 0 77 0;
#X connect 23 0 106 0;
#X connect 24 0 5 0;
#X connect 26 0 27 1;
#X connect 27 0 21 0;
#X connect 27 0 21 1;
#X connect 27 0 29 0;
#X connect 27 1 21 2;
#X connect 27 1 21 3;
#X connect 27 1 30 0;
#X connect 27 2 21 4;
#X connect 27 2 21 5;
#X connect 27 2 31 0;
#X connect 27 3 21 6;
#X connect 27 3 21 7;
#X connect 27 3 32 0;
#X connect 27 4 21 8;
#X connect 27 4 21 9;
#X connect 27 4 33 0;
#X connect 29 0 28 0;
#X connect 30 0 28 1;
#X connect 31 0 28 2;
#X connect 32 0 28 3;
#X connect 33 0 28 4;
#X connect 35 0 75 0;
#X connect 36 0 105 0;
#X connect 36 0 107 0;
#X connect 37 0 26 0;
#X connect 38 0 18 0;
#X connect 39 0 104 0;
#X connect 39 0 144 0;
#X connect 40 0 131 0;
#X connect 41 0 49 0;
#X connect 42 0 144 0;
#X connect 43 0 92 0;
#X connect 44 1 45 0;
#X connect 44 2 45 1;
#X connect 48 0 12 0;
#X connect 49 0 17 0;
#X connect 49 1 142 0;
#X connect 49 1 143 0;
#X connect 50 0 13 0;
#X connect 51 0 93 0;
#X connect 52 0 55 0;
#X connect 53 0 117 0;
#X connect 53 0 131 0;
#X connect 56 0 51 0;
#X connect 57 0 136 0;
#X connect 58 0 136 3;
#X connect 59 0 88 0;
#X connect 60 0 59 0;
#X connect 61 0 62 0;
#X connect 62 0 57 0;
#X connect 62 1 132 0;
#X connect 62 1 133 0;
#X connect 63 0 139 0;
#X connect 64 0 139 3;
#X connect 66 0 67 0;
#X connect 67 0 63 0;
#X connect 67 1 73 0;
#X connect 67 1 90 0;
#X connect 68 0 140 0;
#X connect 69 0 140 3;
#X connect 71 0 72 0;
#X connect 72 0 68 0;
#X connect 72 1 74 0;
#X connect 72 1 91 0;
#X connect 73 0 139 1;
#X connect 74 0 140 1;
#X connect 76 0 25 0;
#X connect 78 0 79 0;
#X connect 79 0 99 0;
#X connect 81 0 82 0;
#X connect 82 0 141 0;
#X connect 83 0 81 0;
#X connect 84 0 112 0;
#X connect 85 0 82 1;
#X connect 86 0 99 0;
#X connect 86 1 99 0;
#X connect 86 2 99 0;
#X connect 89 0 58 0;
#X connect 90 0 139 2;
#X connect 91 0 140 2;
#X connect 92 0 33 1;
#X connect 92 0 32 1;
#X connect 92 0 31 1;
#X connect 92 0 30 1;
#X connect 92 0 29 1;
#X connect 93 0 119 2;
#X connect 94 0 119 0;
#X connect 95 0 60 0;
#X connect 95 0 132 0;
#X connect 95 0 133 0;
#X connect 95 0 57 0;
#X connect 95 0 114 0;
#X connect 96 0 36 0;
#X connect 96 0 83 0;
#X connect 96 0 106 0;
#X connect 98 0 53 0;
#X connect 98 0 95 0;
#X connect 98 0 128 0;
#X connect 100 0 146 0;
#X connect 101 0 146 0;
#X connect 102 0 49 0;
#X connect 104 0 23 0;
#X connect 104 0 36 0;
#X connect 104 0 24 0;
#X connect 105 0 35 0;
#X connect 106 0 22 0;
#X connect 107 0 111 0;
#X connect 108 0 110 0;
#X connect 109 0 19 0;
#X connect 110 0 19 0;
#X connect 111 0 35 0;
#X connect 112 0 85 0;
#X connect 113 0 116 0;
#X connect 114 0 115 0;
#X connect 115 0 59 0;
#X connect 116 0 52 0;
#X connect 117 0 118 0;
#X connect 117 0 113 0;
#X connect 117 0 94 0;
#X connect 118 0 52 0;
#X connect 120 0 137 0;
#X connect 121 0 137 3;
#X connect 122 0 126 0;
#X connect 123 0 122 0;
#X connect 124 0 125 0;
#X connect 125 0 120 0;
#X connect 125 1 134 0;
#X connect 125 1 135 0;
#X connect 127 0 121 0;
#X connect 128 0 123 0;
#X connect 128 0 134 0;
#X connect 128 0 135 0;
#X connect 128 0 120 0;
#X connect 128 0 129 0;
#X connect 129 0 130 0;
#X connect 130 0 122 0;
#X connect 131 0 119 1;
#X connect 132 0 136 1;
#X connect 133 0 136 2;
#X connect 134 0 137 1;
#X connect 135 0 137 2;
#X connect 141 0 145 0;
#X connect 142 0 138 1;
#X connect 143 0 138 2;
#X connect 144 0 5 2;
#X connect 145 0 27 0;
#X connect 148 0 44 0;
