#N canvas 237 66 1377 962 10;
#X obj 776 44 bng 15 250 50 0 empty empty empty 17 7 0 10 -262144 -1
-1;
#X obj 776 87 bng 15 250 50 0 empty empty empty 17 7 0 10 -262144 -1
-1;
#X obj 776 114 s loaded;
#X obj 776 14 loadbang;
#X obj 776 65 audio_tables_loader;
#X obj 881 445 elooper~;
#X obj 36 11 zexy;
#X obj 433 39 tgl 15 0 empty empty empty 17 7 0 10 -262144 -1 -1 1
1;
#X floatatom 488 134 0 0 0 0 - - -;
#X floatatom 460 134 0 0 0 0 - - -;
#X floatatom 433 133 0 0 0 0 - - -;
#X floatatom 514 134 0 0 0 0 - - -;
#X obj 433 89 time, f 14;
#X obj 433 62 metro 500;
#X obj 433 160 select 12;
#X obj 433 194 bng 15 250 50 0 empty empty empty 17 7 0 10 -262144
-1 -1;
#X text 454 194 noonbang;
#X obj 433 14 loadbang;
#X obj 26 395 bng 15 250 50 0 empty empty empty 17 7 0 10 -262144 -1
-1;
#X obj 115 424 hsl 128 15 0 1 0 0 empty empty empty -2 -8 0 10 -262144
-1 -1 0 1;
#X obj 114 335 line;
#X obj 114 198 bng 15 250 50 0 empty empty empty 17 7 0 10 -262144
-1 -1;
#X msg 114 264 1 10000;
#X obj 172 264 delay 10000;
#X msg 172 292 0 6000;
#X obj 31 454 bed_player~;
#X msg 62 379 pad;
#X obj 923 618 dac~ 1 2 3 4 5 6 7 8 9 10;
#X obj 921 349 line;
#X obj 921 280 bng 15 250 50 0 empty empty empty 17 7 0 10 -262144
-1 -1;
#X obj 881 506 *~;
#X msg 866 411 oneshot;
#X msg 929 412 flapping-bird;
#X obj 881 476 *~ 5;
#X obj 987 482 hsl 128 15 0 1 0 0 empty empty empty -2 -8 0 10 -262144
-1 -1 0 1;
#X obj 994 528 hsl 128 15 0 1 0 0 empty empty empty -2 -8 0 10 -262144
-1 -1 12700 1;
#X obj 939 551 linear_panner_5ch~;
#X obj 987 888 dac~ 11 12 13 14 15;
#X obj 946 672 gain~;
#X obj 995 672 gain~;
#X obj 1045 672 gain~;
#X obj 1094 672 gain~;
#X obj 1142 672 gain~;
#X msg 1201 630 -20;
#X obj 921 373 s pan;
#X obj 114 359 s bedfade;
#X obj 1076 352 line;
#X obj 1076 259 bng 15 250 50 0 empty empty empty 17 7 0 10 -262144
-1 -1;
#X obj 1076 376 s flyingfade;
#X obj 984 455 r flyingfade;
#X obj 991 506 r pan;
#X msg 1076 281 1 1000;
#X msg 1134 309 0 500;
#X obj 112 394 r bedfade;
#X obj 1134 281 delay 14000;
#X msg 921 318 0 \, 1 5000;
#X obj 921 227 delay 4000;
#X msg 160 816 all bang;
#X msg 253 817 all arp;
#X obj 343 696 bng 15 250 50 0 empty empty empty 17 7 0 10 -262144
-1 -1;
#X obj 343 756 random 15;
#X obj 343 816 pack f f;
#X obj 343 725 t b b;
#X obj 184 866 clone dispersion_player~ 15;
#X obj 343 672 metro 500;
#X obj 343 644 tgl 15 0 empty empty empty 17 7 0 10 -262144 -1 -1 0
1;
#X obj 412 778 / 100;
#X obj 412 755 random 100;
#X obj 921 193 bng 15 250 50 0 empty empty empty 17 7 0 10 -262144
-1 -1;
#X obj 343 541 bng 15 250 50 0 empty empty empty 17 7 0 10 -262144
-1 -1;
#X msg 343 576 1;
#X obj 374 576 delay 16000;
#X msg 374 625 0;
#X obj 374 601 t b b;
#X msg 416 656 all 0;
#X obj 179 735 r loaded;
#X obj 179 766 t b b;
#X obj 51 349 r loaded;
#X obj 963 382 r loaded;
#X obj 1201 598 loadbang;
#X msg 36 109 all -20;
#X msg 99 111 all -100;
#X obj 36 76 loadbang;
#X obj 202 97 unpack f f f;
#X obj 235 123 pack f f;
#X obj 202 72 clone masker~ 15;
#X obj 42 162 clone noise_channel~ 15;
#X text 165 144 first term (instance #) unneeded;
#X text 203 52 mic masking;
#X connect 0 0 4 0;
#X connect 1 0 2 0;
#X connect 3 0 0 0;
#X connect 4 0 1 0;
#X connect 5 0 33 0;
#X connect 7 0 13 0;
#X connect 10 0 14 0;
#X connect 12 0 10 0;
#X connect 12 1 9 0;
#X connect 12 2 8 0;
#X connect 12 3 11 0;
#X connect 13 0 12 0;
#X connect 14 0 15 0;
#X connect 17 0 7 0;
#X connect 18 0 25 0;
#X connect 19 0 25 3;
#X connect 20 0 45 0;
#X connect 21 0 22 0;
#X connect 21 0 23 0;
#X connect 22 0 20 0;
#X connect 23 0 24 0;
#X connect 24 0 20 0;
#X connect 26 0 25 1;
#X connect 26 0 25 2;
#X connect 28 0 44 0;
#X connect 29 0 55 0;
#X connect 30 0 36 0;
#X connect 31 0 5 0;
#X connect 32 0 5 2;
#X connect 33 0 30 0;
#X connect 34 0 30 1;
#X connect 35 0 36 1;
#X connect 36 0 27 0;
#X connect 36 0 27 1;
#X connect 36 0 38 0;
#X connect 36 1 27 2;
#X connect 36 1 27 3;
#X connect 36 1 39 0;
#X connect 36 2 27 4;
#X connect 36 2 27 5;
#X connect 36 2 40 0;
#X connect 36 3 27 6;
#X connect 36 3 27 7;
#X connect 36 3 41 0;
#X connect 36 4 27 8;
#X connect 36 4 27 9;
#X connect 36 4 42 0;
#X connect 38 0 37 0;
#X connect 39 0 37 1;
#X connect 40 0 37 2;
#X connect 41 0 37 3;
#X connect 42 0 37 4;
#X connect 43 0 42 1;
#X connect 43 0 41 1;
#X connect 43 0 40 1;
#X connect 43 0 39 1;
#X connect 43 0 38 1;
#X connect 46 0 48 0;
#X connect 47 0 51 0;
#X connect 47 0 54 0;
#X connect 49 0 34 0;
#X connect 50 0 35 0;
#X connect 51 0 46 0;
#X connect 52 0 46 0;
#X connect 53 0 19 0;
#X connect 54 0 52 0;
#X connect 55 0 28 0;
#X connect 56 0 29 0;
#X connect 56 0 47 0;
#X connect 56 0 31 0;
#X connect 57 0 63 0;
#X connect 58 0 63 1;
#X connect 58 0 63 2;
#X connect 59 0 62 0;
#X connect 60 0 61 0;
#X connect 61 0 63 3;
#X connect 62 0 60 0;
#X connect 62 1 67 0;
#X connect 64 0 59 0;
#X connect 65 0 64 0;
#X connect 66 0 61 1;
#X connect 67 0 66 0;
#X connect 68 0 56 0;
#X connect 69 0 71 0;
#X connect 69 0 70 0;
#X connect 70 0 65 0;
#X connect 71 0 73 0;
#X connect 72 0 65 0;
#X connect 73 0 72 0;
#X connect 73 1 74 0;
#X connect 74 0 63 3;
#X connect 75 0 76 0;
#X connect 76 0 57 0;
#X connect 76 1 58 0;
#X connect 77 0 26 0;
#X connect 78 0 32 0;
#X connect 79 0 43 0;
#X connect 80 0 86 0;
#X connect 81 0 86 0;
#X connect 82 0 80 0;
#X connect 83 1 84 0;
#X connect 83 2 84 1;
#X connect 84 0 86 0;
#X connect 85 0 83 0;
