#N canvas 89 47 1377 962 10;
#X obj 776 44 bng 15 250 50 0 empty empty empty 17 7 0 10 -262144 -1
-1;
#X obj 776 87 bng 15 250 50 0 empty empty empty 17 7 0 10 -262144 -1
-1;
#X obj 776 114 s loaded;
#X obj 776 14 loadbang;
#X obj 776 65 audio_tables_loader;
#X obj 986 453 elooper~;
#X obj 36 11 zexy;
#X obj 433 39 tgl 15 0 empty empty empty 17 7 0 10 -262144 -1 -1 1
1;
#X floatatom 488 134 0 0 0 0 - - -;
#X floatatom 460 134 0 0 0 0 - - -;
#X floatatom 433 133 0 0 0 0 - - -;
#X floatatom 514 134 0 0 0 0 - - -;
#X obj 433 89 time, f 14;
#X obj 433 188 select 12;
#X obj 433 214 bng 15 250 50 0 empty empty empty 17 7 0 10 -262144
-1 -1;
#X text 454 214 noonbang;
#X obj 433 14 loadbang;
#X obj 29 532 bng 15 250 50 0 empty empty empty 17 7 0 10 -262144 -1
-1;
#X obj 96 488 hsl 128 15 0 1 0 0 empty empty empty -2 -8 0 10 -262144
-1 -1 0 1;
#X obj 95 372 line;
#X obj 95 235 bng 15 250 50 0 empty empty empty 17 7 0 10 -262144 -1
-1;
#X msg 95 301 1 10000;
#X obj 153 301 delay 10000;
#X msg 153 329 0 6000;
#X obj 1002 641 dac~ 1 2 3 4 5 6 7 8 9 10;
#X obj 1026 357 line;
#X obj 1026 288 bng 15 250 50 0 empty empty empty 17 7 0 10 -262144
-1 -1;
#X obj 986 514 *~;
#X msg 971 419 oneshot;
#X obj 986 484 *~ 5;
#X obj 1092 490 hsl 128 15 0 1 0 0 empty empty empty -2 -8 0 10 -262144
-1 -1 0 1;
#X obj 1099 536 hsl 128 15 0 1 0 0 empty empty empty -2 -8 0 10 -262144
-1 -1 0 1;
#X obj 1044 559 linear_panner_5ch~;
#X obj 1092 896 dac~ 11 12 13 14 15;
#X obj 1045 680 gain~;
#X obj 1100 680 gain~;
#X obj 1150 680 gain~;
#X obj 1199 680 gain~;
#X obj 1247 680 gain~;
#X obj 95 396 s bedfade;
#X obj 1181 360 line;
#X obj 1181 267 bng 15 250 50 0 empty empty empty 17 7 0 10 -262144
-1 -1;
#X obj 1096 514 r pan;
#X msg 1181 289 1 1000;
#X msg 1239 317 0 500;
#X obj 93 458 r bedfade;
#X obj 1239 289 delay 14000;
#X msg 1026 326 0 \, 1 5000;
#X obj 1026 235 delay 4000;
#X msg 21 813 all bang;
#X obj 1026 201 bng 15 250 50 0 empty empty empty 17 7 0 10 -262144
-1 -1;
#X obj 85 722 r loaded;
#X obj 85 753 t b b;
#X obj 23 436 r loaded;
#X obj 1094 399 r loaded;
#X obj 1306 606 loadbang;
#X msg 36 109 all -20;
#X msg 99 111 all -100;
#X obj 36 76 loadbang;
#X obj 202 97 unpack f f f;
#X obj 235 123 pack f f;
#X text 165 144 first term (instance #) unneeded;
#X text 203 52 mic masking;
#X obj 433 61 metro 1000;
#X obj 23 468 t b b;
#X obj 433 162 change;
#X obj 202 72 clone masker~ 6;
#X obj 268 835 hsl 128 15 0 1 0 0 empty empty empty -2 -8 0 10 -262144
-1 -1 0 1;
#X obj 265 756 line;
#X obj 265 619 bng 15 250 50 0 empty empty empty 17 7 0 10 -262144
-1 -1;
#X msg 265 685 1 10000;
#X obj 323 685 delay 10000;
#X msg 323 713 0 6000;
#X msg 113 816 all shuffle02_weave_ch;
#X text 46 891 15 mono sound players - channel number gets auto-prepended
;
#X obj 265 780 s shuffle_fade;
#X obj 265 805 r shuffle_fade;
#X obj 447 792 bng 15 250 50 0 empty empty empty 17 7 0 10 -262144
-1 -1;
#X obj 629 825 hsl 128 15 0 1 0 0 empty empty empty -2 -8 0 10 -262144
-1 -1 0 1;
#X obj 628 736 line;
#X msg 628 665 1 10000;
#X obj 686 665 delay 10000;
#X msg 686 693 0 6000;
#X obj 464 847 bed_player~;
#X obj 628 760 s bedfade;
#X obj 626 795 r bedfade;
#X obj 519 697 r loaded;
#X obj 519 746 t b b;
#X msg 485 787 shuffle02_bed_L;
#X msg 506 810 shuffle02_bed_R;
#X obj 113 865 clone shuffle_player~ 15;
#X msg 1306 638 0;
#X obj 29 565 bed_player~;
#X msg 50 511 pan01_bed_a_L;
#X msg 72 537 pan01_bed_a_r;
#X obj 268 534 bng 15 250 50 0 empty empty empty 17 7 0 10 -262144
-1 -1;
#X obj 335 490 hsl 128 15 0 1 0 0 empty empty empty -2 -8 0 10 -262144
-1 -1 0 1;
#X obj 332 460 r bedfade;
#X obj 262 438 r loaded;
#X obj 262 470 t b b;
#X obj 268 567 bed_player~;
#X obj 504 533 bng 15 250 50 0 empty empty empty 17 7 0 10 -262144
-1 -1;
#X obj 571 489 hsl 128 15 0 1 0 0 empty empty empty -2 -8 0 10 -262144
-1 -1 0 1;
#X obj 568 459 r bedfade;
#X obj 498 437 r loaded;
#X obj 498 469 t b b;
#X obj 504 566 bed_player~;
#X msg 289 513 pan01_bed_b_L;
#X msg 311 539 pan01_bed_b_r;
#X msg 525 512 pan01_bed_c_L;
#X msg 547 538 pan01_bed_c_r;
#X msg 1034 420 pan01_pass;
#X obj 1181 384 s passfade;
#X obj 1089 463 r passfade;
#X obj 1026 381 s pan;
#X obj 42 162 clone noise_channel~ 15;
#X obj 1050 8 loadbang;
#X msg 1050 38 all -100;
#X obj 1050 68 clone aux_in_channel~ 15;
#X text 1113 38 aux in for music;
#X obj 986 13 ctlin 0;
#X msg 986 39 all \$1;
#X text 926 13 midi in;
#X connect 0 0 4 0;
#X connect 1 0 2 0;
#X connect 3 0 0 0;
#X connect 4 0 1 0;
#X connect 5 0 29 0;
#X connect 7 0 63 0;
#X connect 10 0 65 0;
#X connect 12 0 10 0;
#X connect 12 1 9 0;
#X connect 12 2 8 0;
#X connect 12 3 11 0;
#X connect 13 0 14 0;
#X connect 14 0 20 0;
#X connect 14 0 50 0;
#X connect 16 0 7 0;
#X connect 17 0 92 0;
#X connect 18 0 92 3;
#X connect 19 0 39 0;
#X connect 20 0 21 0;
#X connect 20 0 22 0;
#X connect 21 0 19 0;
#X connect 22 0 23 0;
#X connect 23 0 19 0;
#X connect 25 0 114 0;
#X connect 26 0 47 0;
#X connect 27 0 32 0;
#X connect 28 0 5 0;
#X connect 29 0 27 0;
#X connect 30 0 27 1;
#X connect 31 0 32 1;
#X connect 32 0 24 0;
#X connect 32 0 24 1;
#X connect 32 0 34 0;
#X connect 32 1 24 2;
#X connect 32 1 24 3;
#X connect 32 1 35 0;
#X connect 32 2 24 4;
#X connect 32 2 24 5;
#X connect 32 2 36 0;
#X connect 32 3 24 6;
#X connect 32 3 24 7;
#X connect 32 3 37 0;
#X connect 32 4 24 8;
#X connect 32 4 24 9;
#X connect 32 4 38 0;
#X connect 34 0 33 0;
#X connect 35 0 33 1;
#X connect 36 0 33 2;
#X connect 37 0 33 3;
#X connect 38 0 33 4;
#X connect 40 0 112 0;
#X connect 41 0 43 0;
#X connect 41 0 46 0;
#X connect 42 0 31 0;
#X connect 43 0 40 0;
#X connect 44 0 40 0;
#X connect 45 0 18 0;
#X connect 46 0 44 0;
#X connect 47 0 25 0;
#X connect 48 0 26 0;
#X connect 48 0 41 0;
#X connect 48 0 28 0;
#X connect 49 0 90 0;
#X connect 50 0 48 0;
#X connect 51 0 52 0;
#X connect 52 0 49 0;
#X connect 52 1 73 0;
#X connect 53 0 64 0;
#X connect 54 0 111 0;
#X connect 55 0 91 0;
#X connect 56 0 115 0;
#X connect 57 0 115 0;
#X connect 58 0 56 0;
#X connect 59 1 60 0;
#X connect 59 2 60 1;
#X connect 60 0 115 0;
#X connect 63 0 12 0;
#X connect 64 0 17 0;
#X connect 64 1 93 0;
#X connect 65 0 13 0;
#X connect 66 0 59 0;
#X connect 67 0 90 2;
#X connect 68 0 75 0;
#X connect 69 0 70 0;
#X connect 69 0 71 0;
#X connect 70 0 68 0;
#X connect 71 0 72 0;
#X connect 72 0 68 0;
#X connect 73 0 90 1;
#X connect 76 0 67 0;
#X connect 77 0 83 0;
#X connect 78 0 83 3;
#X connect 79 0 84 0;
#X connect 80 0 79 0;
#X connect 81 0 82 0;
#X connect 82 0 79 0;
#X connect 85 0 78 0;
#X connect 86 0 87 0;
#X connect 87 0 77 0;
#X connect 87 1 88 0;
#X connect 88 0 83 1;
#X connect 89 0 83 2;
#X connect 91 0 38 1;
#X connect 91 0 37 1;
#X connect 91 0 36 1;
#X connect 91 0 35 1;
#X connect 91 0 34 1;
#X connect 93 0 92 1;
#X connect 94 0 92 2;
#X connect 95 0 100 0;
#X connect 96 0 100 3;
#X connect 97 0 96 0;
#X connect 98 0 99 0;
#X connect 99 0 95 0;
#X connect 99 1 107 0;
#X connect 101 0 106 0;
#X connect 102 0 106 3;
#X connect 103 0 102 0;
#X connect 104 0 105 0;
#X connect 105 0 101 0;
#X connect 105 1 109 0;
#X connect 107 0 100 1;
#X connect 108 0 100 2;
#X connect 109 0 106 1;
#X connect 110 0 106 2;
#X connect 111 0 5 2;
#X connect 113 0 30 0;
#X connect 116 0 117 0;
#X connect 117 0 118 0;
#X connect 120 0 121 0;
#X connect 121 0 118 0;
