#N canvas 784 23 756 866 10;
#X obj 335 137 bonk~;
#X msg 335 105 thresh 0.01 0.05;
#X obj 335 79 loadbang;
#X obj 310 195 bng 15 250 50 0 empty empty empty 17 7 0 10 -262144
-1 -1;
#X obj 362 164 route 0;
#X obj 287 274 bng 15 250 50 0 empty empty empty 17 7 0 10 -262144
-1 -1;
#X obj 310 242 delay 5000;
#X msg 173 80 set \$1;
#X obj 173 16 loadbang;
#X obj 173 38 f \$1;
#X obj 173 58 + 1;
#X obj 173 101 adc~;
#X obj 275 405 until;
#X msg 275 378 15;
#X obj 275 429 f;
#X obj 303 429 + 1;
#X obj 274 455 mod 15;
#X floatatom 274 479 5 0 0 0 - - -, f 5;
#X obj 274 524 select;
#X obj 321 457 loadbang;
#X obj 321 479 f \$1;
#X floatatom 126 80 5 0 0 0 - - -, f 5;
#X obj 306 646 outlet;
#X obj 310 272 t b b;
#X obj 362 192 t b b;
#X msg 306 605 \$1 \$2;
#X obj 306 565 pack f f;
#X text 452 107 set trigger threshold;
#X text 412 124 sound must exceed the second number;
#X text 397 139 and then fall to the first number to trigger;
#X text 185 194 indicates a trigger;
#X text 62 243 delays \, then goes back to normal preset;
#X text 418 222 amount to raise volume to in all other zones;
#X text 366 309 the normal db level to return to;
#X text 29 447 loops across all channels but this one;
#X text 119 525 selects out this channel;
#X text 354 605 destination + gain message for clone;
#X msg 337 307 -33;
#X msg 389 222 -30;
#X obj 59 627 select 0 1 2 3 4;
#X msg 58 687 3 4 5 6 7 8 9 10 12 13 14 15;
#X obj 59 748 unpack f f f f f f f f f f f f;
#X obj 59 780 pack f f;
#X obj 82 811 pack f f;
#X obj 120 783 pack f f;
#X obj 143 814 pack f f;
#X obj 182 783 pack f f;
#X obj 205 814 pack f f;
#X obj 243 786 pack f f;
#X obj 266 817 pack f f;
#X text 288 703 behavior should stop when there is input on 7 and 8
and pots are up;
#X connect 0 1 4 0;
#X connect 1 0 0 0;
#X connect 2 0 1 0;
#X connect 3 0 6 0;
#X connect 4 0 3 0;
#X connect 4 0 24 0;
#X connect 6 0 23 0;
#X connect 6 0 5 0;
#X connect 7 0 11 0;
#X connect 8 0 9 0;
#X connect 9 0 10 0;
#X connect 10 0 7 0;
#X connect 10 0 21 0;
#X connect 11 0 0 0;
#X connect 12 0 14 0;
#X connect 13 0 12 0;
#X connect 14 0 15 0;
#X connect 14 0 16 0;
#X connect 15 0 14 1;
#X connect 16 0 17 0;
#X connect 17 0 18 0;
#X connect 18 1 26 0;
#X connect 19 0 20 0;
#X connect 20 0 18 1;
#X connect 23 0 13 0;
#X connect 23 1 37 0;
#X connect 24 0 13 0;
#X connect 24 1 38 0;
#X connect 25 0 22 0;
#X connect 26 0 25 0;
#X connect 37 0 42 1;
#X connect 37 0 26 1;
#X connect 38 0 42 1;
#X connect 38 0 26 1;
#X connect 40 0 41 0;
#X connect 41 0 42 0;
#X connect 41 1 43 0;
#X connect 41 2 44 0;
#X connect 41 3 45 0;
#X connect 41 4 46 0;
#X connect 41 5 47 0;
