#N canvas 147 34 756 866 10;
#X obj 335 137 bonk~;
#X msg 335 105 thresh 0.01 0.05;
#X obj 335 79 loadbang;
#X obj 310 195 bng 15 250 50 0 empty empty empty 17 7 0 10 -262144
-1 -1;
#X obj 362 164 route 0;
#X obj 310 242 delay 5000;
#X msg 173 80 set \$1;
#X obj 173 16 loadbang;
#X obj 173 38 f \$1;
#X obj 173 58 + 1;
#X obj 173 101 adc~;
#X floatatom 126 80 5 0 0 0 - - -, f 5;
#X obj 309 426 outlet;
#X obj 362 192 t b b;
#X text 452 107 set trigger threshold;
#X text 412 124 sound must exceed the second number;
#X text 397 139 and then fall to the first number to trigger;
#X text 185 194 indicates a trigger;
#X text 62 243 delays \, then goes back to normal preset;
#X text 418 222 amount to raise volume to in all other zones;
#X text 338 300 the normal db level to return to;
#X msg 309 298 -33;
#X msg 389 222 -30;
#X text 254 515 behavior should stop when there is input on 7 and 8
and pots are up;
#X connect 0 1 4 0;
#X connect 1 0 0 0;
#X connect 2 0 1 0;
#X connect 3 0 5 0;
#X connect 4 0 3 0;
#X connect 4 0 13 0;
#X connect 5 0 21 0;
#X connect 6 0 10 0;
#X connect 7 0 8 0;
#X connect 8 0 9 0;
#X connect 9 0 6 0;
#X connect 9 0 11 0;
#X connect 10 0 0 0;
#X connect 13 1 22 0;
#X connect 21 0 12 0;
#X connect 22 0 12 0;
