#N canvas 368 314 706 521 10;
#X obj 225 51 inlet;
#X text 16 38 for testing;
#X text 229 20 takes messages from clone masker~ and routes them to
the right instances;
#X msg 91 37 \$1 -33;
#X floatatom 91 9 5 0 0 0 - - -, f 5;
#X obj 225 78 trigger a a;
#X obj 243 424 outlet;
#X obj 333 105 unpack f f;
#X obj 243 390 pack f f;
#X msg 68 157 2 3 4 5 6 7 8 9 11 12 13 14;
#X msg 144 188 0 1 4 5 6 7 8 9 10 12 13 14;
#X msg 207 223 0 1 2 3 6 7 8 9 10 11 13 14;
#X msg 230 251 0 1 2 3 4 5 8 9 10 11 12 14;
#X obj 243 348 list-abs/list-drip;
#X msg 264 287 0 1 2 3 4 5 6 7 10 11 12 13;
#X obj 224 104 select 0 1 2 3 4;
#X connect 0 0 5 0;
#X connect 3 0 5 0;
#X connect 4 0 3 0;
#X connect 5 0 15 0;
#X connect 5 1 7 0;
#X connect 7 1 8 1;
#X connect 8 0 6 0;
#X connect 9 0 13 0;
#X connect 10 0 13 0;
#X connect 11 0 13 0;
#X connect 12 0 13 0;
#X connect 13 0 8 0;
#X connect 14 0 13 0;
#X connect 15 0 9 0;
#X connect 15 1 10 0;
#X connect 15 2 11 0;
#X connect 15 3 12 0;
#X connect 15 4 14 0;
