#N canvas 89 272 601 530 10;
#X obj 93 6 noise~;
#X obj 69 442 dac~;
#X msg 153 403 set \$1;
#X obj 153 326 loadbang;
#X obj 153 350 f \$1;
#X obj 153 375 + 1;
#X text 182 377 routes to each channel;
#X obj 33 10 inlet;
#X obj 67 163 gain~;
#X obj 93 69 eq-noview~, f 51;
#X obj 160 137 loadbang;
#X obj 67 365 *~ 1;
#X msg 135 247 \$1 10000;
#X text 192 246 10 second fade up and down for when music is playing
;
#X obj 135 198 r noise_ducking;
#X obj 135 221 route \$1;
#X msg 242 304 set \$1;
#X msg 248 327 1;
#X msg 159 163 -38;
#X obj 52 107 line -38;
#X obj 135 279 line 1;
#X msg 52 81 \$1 10000;
#X connect 0 0 9 0;
#X connect 2 0 1 0;
#X connect 3 0 4 0;
#X connect 4 0 5 0;
#X connect 5 0 2 0;
#X connect 7 0 21 0;
#X connect 8 0 11 0;
#X connect 9 0 8 0;
#X connect 10 0 18 0;
#X connect 11 0 1 0;
#X connect 12 0 20 0;
#X connect 14 0 15 0;
#X connect 15 0 12 0;
#X connect 16 0 17 0;
#X connect 18 0 8 1;
#X connect 19 0 8 1;
#X connect 20 0 11 1;
#X connect 20 0 16 0;
#X connect 21 0 19 0;
