#N canvas 812 207 601 530 10;
#X obj 93 6 noise~;
#X obj 69 442 dac~;
#X msg 153 403 set \$1;
#X obj 153 326 loadbang;
#X obj 153 350 f \$1;
#X obj 153 375 + 1;
#X text 182 377 routes to each channel;
#X obj 33 10 inlet;
#X obj 67 163 gain~;
#X obj 93 69 eq-noview~, f 51;
#X obj 160 137 loadbang;
#X msg 158 163 -33;
#X msg 52 81 \$1 5000;
#X obj 52 107 line -33;
#X connect 0 0 9 0;
#X connect 2 0 1 0;
#X connect 3 0 4 0;
#X connect 4 0 5 0;
#X connect 5 0 2 0;
#X connect 7 0 12 0;
#X connect 8 0 1 0;
#X connect 9 0 8 0;
#X connect 10 0 11 0;
#X connect 11 0 8 1;
#X connect 12 0 13 0;
#X connect 13 0 8 1;
