#N canvas 139 179 601 530 10;
#X obj 128 14 noise~;
#X msg 153 451 set \$1;
#X obj 153 326 loadbang;
#X obj 153 350 f \$1;
#X obj 153 375 + 1;
#X text 182 377 routes to each channel;
#X obj 33 10 inlet;
#X obj 67 163 gain~;
#X obj 128 77 eq-noview~, f 51;
#X obj 159 137 loadbang;
#X obj 67 365 *~ 1;
#X msg 135 247 \$1 10000;
#X text 196 247 10 second fade up and down for when music is playing
;
#X obj 135 198 r noise_ducking;
#X obj 135 221 route \$1;
#X msg 242 304 set \$1;
#X msg 242 326 1;
#X obj 135 279 line 1;
#X msg 52 81 \$1 10000;
#X obj 67 491 dac~ 99;
#X text 251 404 excludes center channels;
#X text 123 490 defaults to nonexistant channel 99;
#X obj 153 404 route 6 7 13 14;
#X text 110 108 change default noise volume here \, and below / after
loadbang;
#X text 189 162 change default noise volume here \, and below / after
loadbang;
#X obj 52 107 line -37;
#X msg 159 163 -37;
#X connect 0 0 8 0;
#X connect 1 0 19 0;
#X connect 2 0 3 0;
#X connect 3 0 4 0;
#X connect 4 0 22 0;
#X connect 6 0 18 0;
#X connect 7 0 10 0;
#X connect 8 0 7 0;
#X connect 9 0 26 0;
#X connect 10 0 19 0;
#X connect 11 0 17 0;
#X connect 13 0 14 0;
#X connect 14 0 11 0;
#X connect 15 0 16 0;
#X connect 17 0 10 1;
#X connect 17 0 15 0;
#X connect 18 0 25 0;
#X connect 22 4 1 0;
#X connect 25 0 7 1;
#X connect 26 0 7 1;
