#N canvas 375 101 601 530 10;
#X obj 93 6 noise~;
#X obj 69 442 dac~;
#X msg 153 403 set \$1;
#X obj 153 326 loadbang;
#X obj 153 350 f \$1;
#X obj 153 375 + 1;
#X text 182 377 routes to each channel;
#X obj 33 10 inlet;
#X obj 67 163 gain~;
#X obj 82 122 line;
#X obj 93 69 eq-noview~, f 51;
#X msg 32 59 \$1 500;
#X connect 0 0 10 0;
#X connect 2 0 1 0;
#X connect 3 0 4 0;
#X connect 4 0 5 0;
#X connect 5 0 2 0;
#X connect 7 0 11 0;
#X connect 8 0 1 0;
#X connect 9 0 8 1;
#X connect 10 0 8 0;
#X connect 11 0 9 0;
