#N canvas 259 68 704 567 10;
#X obj 257 77 bng 15 250 50 0 empty empty empty 17 7 0 10 -262144 -1
-1;
#X obj 256 130 t f f;
#X floatatom 246 161 5 0 0 0 - - -, f 5;
#X floatatom 294 159 5 0 0 0 - - -, f 5;
#X obj 244 191 ==;
#X obj 293 191 f;
#X obj 244 224 sel 0;
#X obj 293 227 t f f;
#X obj 243 269 bng 15 250 50 0 empty empty empty 17 7 0 10 -262144
-1 -1;
#X obj 270 269 bng 15 250 50 0 empty empty empty 17 7 0 10 -262144
-1 -1;
#X obj 294 312 f;
#X floatatom 317 367 5 0 0 0 - - -, f 5;
#X obj 269 361 outlet;
#X obj 249 42 inlet;
#X obj 257 103 random \$1;
#X connect 0 0 14 0;
#X connect 1 0 3 0;
#X connect 1 1 2 0;
#X connect 2 0 4 0;
#X connect 3 0 5 0;
#X connect 4 0 6 0;
#X connect 5 0 7 0;
#X connect 6 0 8 0;
#X connect 6 1 9 0;
#X connect 7 0 4 1;
#X connect 7 1 10 1;
#X connect 8 0 10 0;
#X connect 10 0 11 0;
#X connect 10 0 12 0;
#X connect 13 0 0 0;
#X connect 14 0 1 0;
