#N canvas 533 208 632 655 10;
#X obj 96 323 *~;
#X obj 100 600 dac~;
#X obj 230 377 loadbang;
#X obj 230 401 f \$1;
#X obj 95 242 elooper~;
#X obj 61 50 inlet;
#X obj 167 49 inlet;
#X obj 393 51 inlet;
#X obj 230 430 + 1;
#X msg 230 458 set \$1;
#X text 292 461 route to each speaker;
#X obj 266 83 % 10;
#X obj 266 34 loadbang;
#X obj 266 58 f \$1;
#X obj 141 106 symbol;
#X obj 141 158 makefilename %s%d;
#X msg 266 131 set %s\$1;
#X msg 266 169 %s1;
#X obj 266 106 + 1;
#X obj 98 365 gain~;
#X obj 160 319 loadbang;
#X obj 230 259 print;
#X msg 160 342 -40;
#X obj 448 51 inlet;
#X connect 0 0 19 0;
#X connect 2 0 3 0;
#X connect 3 0 8 0;
#X connect 4 0 0 0;
#X connect 5 0 4 0;
#X connect 6 0 14 0;
#X connect 7 0 0 1;
#X connect 8 0 9 0;
#X connect 9 0 1 0;
#X connect 11 0 18 0;
#X connect 12 0 13 0;
#X connect 13 0 11 0;
#X connect 14 0 15 0;
#X connect 15 0 4 2;
#X connect 15 0 21 0;
#X connect 16 0 15 0;
#X connect 16 0 17 0;
#X connect 18 0 16 0;
#X connect 19 0 1 0;
#X connect 20 0 22 0;
#X connect 22 0 19 1;
#X connect 23 0 19 1;
