#N canvas 401 333 848 574 10;
#X obj 453 285 makefilename shuffle%d_bed_L;
#X obj 453 320 s shuffle_bed_L_table;
#X obj 635 285 makefilename shuffle%d_bed_R;
#X obj 635 320 s shuffle_bed_R_table;
#X obj 98 286 makefilename pan%d_bed_L;
#X obj 254 285 makefilename pan%d_bed_L;
#X obj 285 -2 inlet;
#X obj 322 30 + 1;
#X obj 225 131 + 1;
#X obj 216 365 makefilename pan%d_pass;
#X obj 207 5 bng 15 250 50 0 empty empty empty 17 7 0 10 -262144 -1
-1;
#X obj 188 161 % 5;
#X obj 188 185 + 1;
#X obj 362 143 + 1;
#X obj 325 197 + 1;
#X obj 285 101 moses 5;
#X obj 324 123 bang;
#X obj 285 30 f;
#X obj 325 143 f;
#X obj 188 131 f;
#X text 124 165 pans;
#X text 409 171 shuffles;
#X obj 188 227 t b f;
#X obj 325 219 t b f;
#X obj 92 247 s pan_trig;
#X obj 290 251 s shuffle_trig;
#X obj 242 521 outlet;
#X text 335 510 for debugging;
#X obj 98 321 s pan_bed_L_table;
#X obj 216 400 s pan_pass_table;
#X obj 542 404 s shuffle_weave_table;
#X obj 542 369 makefilename shuffle%d_weave_ch;
#X obj 254 320 s pan_bed_R_table;
#X obj 48 130 s swoosh_trig;
#X obj 325 173 % 9;
#X obj 286 53 % 15;
#X obj 234 76 select 14;
#X connect 0 0 1 0;
#X connect 0 0 26 0;
#X connect 2 0 3 0;
#X connect 2 0 26 0;
#X connect 4 0 26 0;
#X connect 4 0 28 0;
#X connect 5 0 26 0;
#X connect 5 0 32 0;
#X connect 6 0 17 0;
#X connect 7 0 17 1;
#X connect 8 0 19 1;
#X connect 9 0 26 0;
#X connect 9 0 29 0;
#X connect 10 0 17 0;
#X connect 11 0 12 0;
#X connect 12 0 22 0;
#X connect 13 0 18 1;
#X connect 14 0 23 0;
#X connect 15 0 19 0;
#X connect 15 1 16 0;
#X connect 16 0 18 0;
#X connect 17 0 7 0;
#X connect 17 0 35 0;
#X connect 18 0 13 0;
#X connect 18 0 34 0;
#X connect 19 0 8 0;
#X connect 19 0 11 0;
#X connect 22 0 24 0;
#X connect 22 1 5 0;
#X connect 22 1 4 0;
#X connect 22 1 9 0;
#X connect 23 0 25 0;
#X connect 23 1 0 0;
#X connect 23 1 2 0;
#X connect 23 1 31 0;
#X connect 31 0 30 0;
#X connect 31 0 26 0;
#X connect 34 0 14 0;
#X connect 35 0 36 0;
#X connect 36 0 33 0;
#X connect 36 1 15 0;
