#N canvas 777 226 848 574 10;
#X obj 453 285 makefilename shuffle%d_bed_L;
#X obj 453 320 s shuffle_bed_L_table;
#X obj 635 285 makefilename shuffle%d_bed_R;
#X obj 635 320 s shuffle_bed_R_table;
#X obj 98 286 makefilename pan%d_bed_L;
#X obj 254 285 makefilename pan%d_bed_L;
#X obj 285 -2 inlet;
#X obj 216 365 makefilename pan%d_pass;
#X text 225 119 pans;
#X text 337 119 shuffles;
#X obj 188 227 t b f;
#X obj 325 219 t b f;
#X obj 92 247 s pan_trig;
#X obj 290 251 s shuffle_trig;
#X obj 242 521 outlet;
#X text 335 510 for debugging;
#X obj 98 321 s pan_bed_L_table;
#X obj 216 400 s pan_pass_table;
#X obj 542 404 s shuffle_weave_table;
#X obj 542 369 makefilename shuffle%d_weave_ch;
#X obj 254 320 s pan_bed_R_table;
#X obj 554 171 s swoosh_trig;
#X obj 139 122 hradio 15 1 0 4 empty empty empty 0 -8 0 10 -262144
-1 -1 2;
#X obj 139 144 + 1;
#X obj 403 122 hradio 15 1 0 8 empty empty empty 0 -8 0 10 -262144
-1 -1 0;
#X obj 403 144 + 1;
#X obj 552 122 bng 15 250 50 0 empty empty empty 17 7 0 10 -262144
-1 -1;
#X obj 35 441 s pass_vol;
#X msg 12 408 -20;
#X msg 78 409 -27;
#X msg 109 408 -20;
#X msg 522 493 -40;
#X obj 573 540 s shuffle_weave_vol;
#X msg 554 494 -33;
#X msg 587 496 -33;
#X msg 653 494 -38;
#X msg 44 409 -27;
#X obj 35 381 select 1 2 3 4;
#X obj 284 45 moses 4;
#X obj 325 73 - 4;
#X msg 621 495 -22;
#X msg 683 495 -38;
#X msg 713 495 -36;
#X obj 542 447 select 1 2 3 4 5 6 7 8;
#X msg 744 494 -22;
#X obj 554 87 sel 12;
#X connect 0 0 1 0;
#X connect 0 0 14 0;
#X connect 2 0 3 0;
#X connect 2 0 14 0;
#X connect 4 0 14 0;
#X connect 4 0 16 0;
#X connect 5 0 14 0;
#X connect 5 0 20 0;
#X connect 6 0 38 0;
#X connect 6 0 45 0;
#X connect 7 0 14 0;
#X connect 7 0 17 0;
#X connect 10 0 12 0;
#X connect 10 1 5 0;
#X connect 10 1 4 0;
#X connect 10 1 7 0;
#X connect 11 0 13 0;
#X connect 11 1 0 0;
#X connect 11 1 2 0;
#X connect 11 1 19 0;
#X connect 19 0 18 0;
#X connect 19 0 14 0;
#X connect 22 0 23 0;
#X connect 23 0 10 0;
#X connect 23 0 37 0;
#X connect 24 0 25 0;
#X connect 25 0 11 0;
#X connect 25 0 43 0;
#X connect 26 0 21 0;
#X connect 28 0 27 0;
#X connect 29 0 27 0;
#X connect 30 0 27 0;
#X connect 31 0 32 0;
#X connect 33 0 32 0;
#X connect 34 0 32 0;
#X connect 35 0 32 0;
#X connect 36 0 27 0;
#X connect 37 0 28 0;
#X connect 37 1 36 0;
#X connect 37 2 29 0;
#X connect 37 3 30 0;
#X connect 38 0 22 0;
#X connect 38 1 39 0;
#X connect 39 0 24 0;
#X connect 40 0 32 0;
#X connect 41 0 32 0;
#X connect 42 0 32 0;
#X connect 43 0 31 0;
#X connect 43 1 33 0;
#X connect 43 2 34 0;
#X connect 43 3 40 0;
#X connect 43 4 35 0;
#X connect 43 5 41 0;
#X connect 43 6 42 0;
#X connect 43 7 44 0;
#X connect 44 0 32 0;
#X connect 45 0 26 0;
