#N canvas 293 86 1246 754 10;
#X obj 280 456 gain~;
#X obj 356 283 noise~;
#X msg 364 182 250;
#X msg 508 180 345;
#X obj 484 304 line;
#X obj 556 304 line;
#X obj 628 304 line;
#X obj 441 118 bng 15 250 50 0 empty empty empty 17 7 0 10 -262144
-1 -1;
#X obj 629 136 bng 15 250 50 0 empty empty empty 17 7 0 10 -262144
-1 -1;
#X obj 147 126 noise~;
#X obj 194 231 line;
#X obj 599 483 line;
#X obj 459 39 t b b b b;
#X obj 459 3 bng 15 250 50 0 empty empty empty 17 7 0 10 -262144 -1
-1;
#X obj 90 281 bp~ 240 1;
#X obj 162 281 bp~ 2400 1;
#X obj 245 285 bp~ 2160 1;
#X obj 901 43 noise~;
#X obj 998 361 line;
#X msg 938 320 0 1000;
#X obj 934 498 rev3~ 100 90 3000 20;
#X msg 987 319 0.5 2000;
#X msg 1052 319 1 300;
#X msg 572 179 700;
#X msg 716 177 1000;
#X msg 436 180 400;
#X msg 364 225 \$1 4000;
#X msg 436 225 \$1 4000;
#X msg 508 225 \$1 4000;
#X msg 593 416 1 6000;
#X obj 722 417 delay 1000;
#X msg 644 177 900;
#X obj 935 401 *~ 1;
#X msg 231 198 0 1000;
#X msg 572 224 \$1 1000;
#X msg 644 224 \$1 1000;
#X msg 716 223 \$1 1000;
#X obj 456 334 bp~ 700 2;
#X obj 528 334 bp~ 1400 2;
#X obj 600 334 bp~ 1200 2;
#X obj 147 239 *~ 1;
#X obj 193 318 *~ 3;
#X text 917 537 maybe low freq content for subs \, gallopy;
#X text 937 584 maybe low pass filter one of ethans beds;
#X floatatom 662 532 5 0 0 0 - - -, f 5;
#X floatatom 711 532 5 0 0 0 - - -, f 5;
#X floatatom 760 532 5 0 0 0 - - -, f 5;
#X floatatom 809 533 5 0 0 0 - - -, f 5;
#X text 658 513 D;
#X text 708 513 a;
#X text 759 513 b;
#X text 806 514 c;
#X floatatom 1006 426 5 0 0 0 - - -, f 5;
#X floatatom 1055 426 5 0 0 0 - - -, f 5;
#X floatatom 1104 426 5 0 0 0 - - -, f 5;
#X floatatom 1153 427 5 0 0 0 - - -, f 5;
#X text 1002 407 D;
#X text 1052 407 a;
#X text 1103 407 b;
#X text 1150 408 c;
#X floatatom 235 333 5 0 0 0 - - -, f 5;
#X floatatom 284 333 5 0 0 0 - - -, f 5;
#X floatatom 333 333 5 0 0 0 - - -, f 5;
#X floatatom 379 332 5 0 0 0 - - -, f 5;
#X text 231 314 D;
#X text 281 314 a;
#X text 332 314 b;
#X text 379 315 c;
#X obj 506 624 *~ 1;
#X obj 524 557 *~ 1;
#X obj 481 568 *~ 1;
#X obj 580 541 *;
#X obj 577 513 t f f;
#X obj 935 465 cyclone/comb~ 0.61 0.2 0.2 0.3 0.9;
#X obj 526 592 cyclone/comb~ 0.17 0.2 0.2 0.3 0.9;
#X obj 1169 258 osc~ 100;
#X obj 1175 290 osc~ 70;
#X obj 1167 227 osc~ 140;
#X obj 1111 190 gain~;
#X obj 194 357 cyclone/comb~ 100 1.16 0.35 0.52;
#X obj 106 337 *~ 0.5;
#X msg 660 417 0.4 2000;
#X msg 321 424 -15;
#X obj 321 399 loadbang;
#X obj 1157 137 loadbang;
#X floatatom 974 39 5 0 0 0 - - -, f 5;
#X floatatom 1023 39 5 0 0 0 - - -, f 5;
#X floatatom 1072 39 5 0 0 0 - - -, f 5;
#X floatatom 1118 40 5 0 0 0 - - -, f 5;
#X msg 1156 164 -10;
#X msg 165 172 0.05 7000;
#X obj 232 173 delay 7000;
#X obj 444 83 delay 7000;
#X obj 626 83 delay 6000;
#X msg 723 448 0 6000;
#X obj 346 513 rev3~ 100 90 3000 20;
#X obj 1167 197 osc~ 141;
#X obj 970 107 gain~;
#X obj 871 371 *~ 1;
#X obj 880 109 bob~;
#X obj 826 85 *~ 127;
#X obj 831 115 mtof~;
#X obj 826 50 osc~ 440;
#X obj 879 146 lop~ 50;
#X obj 1038 103 loadbang;
#X msg 1037 130 2;
#X obj 903 78 cyclone/comb~ 141.7 0.2 0.2 0.3 0.9;
#X obj 414 3 inlet;
#X obj 281 667 outlet~;
#X obj 506 8 loadbang;
#X connect 0 0 108 0;
#X connect 1 0 37 0;
#X connect 1 0 38 0;
#X connect 1 0 39 0;
#X connect 2 0 26 0;
#X connect 3 0 28 0;
#X connect 4 0 37 1;
#X connect 5 0 38 1;
#X connect 6 0 39 1;
#X connect 7 0 2 0;
#X connect 7 0 25 0;
#X connect 7 0 3 0;
#X connect 8 0 23 0;
#X connect 8 0 24 0;
#X connect 8 0 31 0;
#X connect 9 0 40 0;
#X connect 10 0 40 1;
#X connect 11 0 72 0;
#X connect 12 0 92 0;
#X connect 12 1 93 0;
#X connect 12 2 90 0;
#X connect 12 2 91 0;
#X connect 12 3 29 0;
#X connect 12 3 21 0;
#X connect 13 0 12 0;
#X connect 14 0 80 0;
#X connect 15 0 80 0;
#X connect 16 0 80 0;
#X connect 17 0 106 0;
#X connect 18 0 32 1;
#X connect 18 0 98 1;
#X connect 19 0 18 0;
#X connect 20 0 0 0;
#X connect 21 0 18 0;
#X connect 22 0 18 0;
#X connect 23 0 34 0;
#X connect 24 0 36 0;
#X connect 25 0 27 0;
#X connect 26 0 4 0;
#X connect 27 0 5 0;
#X connect 28 0 6 0;
#X connect 29 0 11 0;
#X connect 30 0 94 0;
#X connect 31 0 35 0;
#X connect 32 0 73 0;
#X connect 33 0 10 0;
#X connect 34 0 4 0;
#X connect 35 0 5 0;
#X connect 36 0 6 0;
#X connect 37 0 69 0;
#X connect 38 0 69 0;
#X connect 39 0 69 0;
#X connect 40 0 14 0;
#X connect 40 0 16 0;
#X connect 40 0 15 0;
#X connect 40 0 41 0;
#X connect 41 0 79 0;
#X connect 44 0 74 1;
#X connect 45 0 74 2;
#X connect 46 0 74 3;
#X connect 47 0 74 4;
#X connect 52 0 73 1;
#X connect 53 0 73 2;
#X connect 54 0 73 3;
#X connect 55 0 73 4;
#X connect 60 0 79 1;
#X connect 61 0 79 2;
#X connect 62 0 79 3;
#X connect 63 0 79 4;
#X connect 68 0 95 0;
#X connect 68 0 0 0;
#X connect 69 0 70 0;
#X connect 69 0 74 0;
#X connect 70 0 68 0;
#X connect 71 0 68 1;
#X connect 72 0 71 0;
#X connect 72 1 71 1;
#X connect 73 0 20 0;
#X connect 74 0 68 0;
#X connect 75 0 78 0;
#X connect 76 0 78 0;
#X connect 77 0 78 0;
#X connect 78 0 32 0;
#X connect 79 0 0 0;
#X connect 80 0 0 0;
#X connect 81 0 11 0;
#X connect 82 0 0 1;
#X connect 83 0 82 0;
#X connect 84 0 89 0;
#X connect 85 0 106 1;
#X connect 86 0 106 2;
#X connect 87 0 106 3;
#X connect 88 0 106 4;
#X connect 89 0 78 1;
#X connect 90 0 10 0;
#X connect 91 0 33 0;
#X connect 92 0 81 0;
#X connect 92 0 7 0;
#X connect 92 0 19 0;
#X connect 92 0 30 0;
#X connect 93 0 8 0;
#X connect 93 0 22 0;
#X connect 94 0 11 0;
#X connect 95 0 0 0;
#X connect 96 0 78 0;
#X connect 97 0 98 0;
#X connect 98 0 0 0;
#X connect 99 0 103 0;
#X connect 100 0 101 0;
#X connect 101 0 99 1;
#X connect 102 0 100 0;
#X connect 103 0 97 0;
#X connect 104 0 105 0;
#X connect 105 0 97 1;
#X connect 106 0 99 0;
#X connect 107 0 13 0;
#X connect 109 0 13 0;
