#N canvas 36 126 1246 754 10;
#X obj 280 456 gain~;
#X obj 288 671 dac~;
#X obj 356 283 noise~;
#X msg 364 182 250;
#X msg 508 180 345;
#X obj 484 304 line;
#X obj 556 304 line;
#X obj 628 304 line;
#X obj 441 118 bng 15 250 50 0 empty empty empty 17 7 0 10 -262144
-1 -1;
#X obj 629 136 bng 15 250 50 0 empty empty empty 17 7 0 10 -262144
-1 -1;
#X obj 147 126 noise~;
#X obj 194 231 line;
#X obj 599 483 line;
#X obj 459 39 t b b b b;
#X obj 459 3 bng 15 250 50 0 empty empty empty 17 7 0 10 -262144 -1
-1;
#X obj 90 281 bp~ 240 1;
#X obj 162 281 bp~ 2400 1;
#X obj 245 285 bp~ 2160 1;
#X obj 929 207 noise~;
#X obj 851 262 bp~ 360 500;
#X obj 1013 263 bp~ 280 500;
#X obj 998 361 line;
#X msg 797 311 0 1000;
#X obj 929 261 bp~ 580 500;
#X obj 935 425 rev3~ 100 90 3000 20;
#X msg 801 80 1900;
#X msg 873 80 1530;
#X msg 729 82 800;
#X msg 987 319 0.5 2000;
#X msg 1052 319 1 300;
#X msg 970 116 700;
#X msg 1114 114 1200;
#X msg 1042 114 1100;
#X msg 572 179 700;
#X msg 716 177 1000;
#X msg 436 180 400;
#X msg 364 225 \$1 4000;
#X msg 436 225 \$1 4000;
#X msg 508 225 \$1 4000;
#X obj 626 83 delay 4000;
#X obj 444 84 delay 6000;
#X msg 593 416 1 6000;
#X msg 660 417 0.3 1000;
#X obj 722 417 delay 1000;
#X msg 723 448 0 5000;
#X obj 524 557 *~ 1;
#X msg 644 177 900;
#X obj 935 401 *~ 1;
#X msg 231 198 0 1000;
#X msg 572 224 \$1 1000;
#X msg 644 224 \$1 1000;
#X msg 716 223 \$1 1000;
#X msg 165 172 0.05 5000;
#X obj 232 173 delay 5000;
#X obj 456 334 bp~ 700 2;
#X obj 528 334 bp~ 1400 2;
#X obj 600 334 bp~ 1200 2;
#X text 22 405 phase/comb filter to get a jet engine sound;
#X obj 147 239 *~ 1;
#X obj 129 323 *~ 3;
#X text 19 442 maybe a few other fx to try in the space;
#X obj 936 369 *~ 30;
#X text 917 537 maybe low freq content for subs \, gallopy;
#X text 937 584 maybe low pass filter one of ethans beds;
#X connect 0 0 1 0;
#X connect 0 0 1 1;
#X connect 2 0 54 0;
#X connect 2 0 55 0;
#X connect 2 0 56 0;
#X connect 3 0 36 0;
#X connect 4 0 38 0;
#X connect 5 0 54 1;
#X connect 6 0 55 1;
#X connect 7 0 56 1;
#X connect 8 0 3 0;
#X connect 8 0 35 0;
#X connect 8 0 4 0;
#X connect 9 0 33 0;
#X connect 9 0 34 0;
#X connect 9 0 46 0;
#X connect 10 0 58 0;
#X connect 11 0 58 1;
#X connect 12 0 45 1;
#X connect 13 0 40 0;
#X connect 13 1 39 0;
#X connect 13 2 52 0;
#X connect 13 2 53 0;
#X connect 13 3 41 0;
#X connect 13 3 28 0;
#X connect 14 0 13 0;
#X connect 18 0 19 0;
#X connect 18 0 20 0;
#X connect 18 0 23 0;
#X connect 19 0 61 0;
#X connect 20 0 61 0;
#X connect 21 0 47 1;
#X connect 22 0 21 0;
#X connect 23 0 61 0;
#X connect 24 0 0 0;
#X connect 28 0 21 0;
#X connect 29 0 21 0;
#X connect 33 0 49 0;
#X connect 34 0 51 0;
#X connect 35 0 37 0;
#X connect 36 0 5 0;
#X connect 37 0 6 0;
#X connect 38 0 7 0;
#X connect 39 0 9 0;
#X connect 39 0 29 0;
#X connect 40 0 42 0;
#X connect 40 0 8 0;
#X connect 40 0 22 0;
#X connect 40 0 43 0;
#X connect 41 0 12 0;
#X connect 42 0 12 0;
#X connect 43 0 44 0;
#X connect 44 0 12 0;
#X connect 45 0 0 0;
#X connect 46 0 50 0;
#X connect 47 0 24 0;
#X connect 48 0 11 0;
#X connect 49 0 5 0;
#X connect 50 0 6 0;
#X connect 51 0 7 0;
#X connect 52 0 11 0;
#X connect 53 0 48 0;
#X connect 54 0 45 0;
#X connect 55 0 45 0;
#X connect 56 0 45 0;
#X connect 58 0 15 0;
#X connect 58 0 16 0;
#X connect 58 0 17 0;
#X connect 58 0 59 0;
#X connect 59 0 0 0;
#X connect 61 0 47 0;
