#N canvas 980 196 450 300 10;
#X obj 138 69 f \$1;
#X obj 135 36 loadbang;
#X obj 149 158 phasor~;
#X obj 138 95 mtof;
#X obj 150 127 + \$2;
#X obj 150 232 outlet~;
#X obj 242 132 sig~;
#X obj 148 198 vcf~ 2;
#X msg 242 101 250;
#X connect 0 0 3 0;
#X connect 1 0 0 0;
#X connect 1 0 8 0;
#X connect 2 0 7 0;
#X connect 3 0 4 0;
#X connect 4 0 2 0;
#X connect 6 0 7 1;
#X connect 7 0 5 0;
#X connect 8 0 6 0;
